<svg width="30" height="33" viewBox="0 0 30 33" fill="none" xmlns="http://www.w3.org/2000/svg">
<circle cx="15" cy="15" r="15" fill="#231F20"/>
<path d="M15 21.5C14.1008 21.5 13.2558 21.3294 12.465 20.9881C11.6742 20.6469 10.9862 20.1838 10.4013 19.5988C9.81625 19.0138 9.35312 18.3258 9.01187 17.535C8.67062 16.7442 8.5 15.8992 8.5 15C8.5 14.1008 8.67062 13.2558 9.01187 12.465C9.35312 11.6742 9.81625 10.9862 10.4013 10.4013C10.9862 9.81625 11.6742 9.35312 12.465 9.01187C13.2558 8.67062 14.1008 8.5 15 8.5C15.8992 8.5 16.7442 8.67062 17.535 9.01187C18.3258 9.35312 19.0138 9.81625 19.5988 10.4013C20.1838 10.9862 20.6469 11.6742 20.9881 12.465C21.3294 13.2558 21.5 14.1008 21.5 15C21.5 15.8992 21.3294 16.7442 20.9881 17.535C20.6469 18.3258 20.1838 19.0138 19.5988 19.5988C19.0138 20.1838 18.3258 20.6469 17.535 20.9881C16.7442 21.3294 15.8992 21.5 15 21.5ZM14.3012 20.5087V19.1762C13.9221 19.1762 13.6025 19.0354 13.3425 18.7537C13.0825 18.4721 12.9525 18.1417 12.9525 17.7625V17.0475L9.62125 13.7162C9.56708 13.9329 9.52917 14.1469 9.5075 14.3581C9.48583 14.5694 9.475 14.7833 9.475 15C9.475 16.4083 9.93271 17.6379 10.8481 18.6887C11.7635 19.7396 12.9146 20.3462 14.3012 20.5087ZM19.0787 18.7537C19.5554 18.2337 19.9156 17.6515 20.1594 17.0069C20.4031 16.3623 20.525 15.6933 20.525 15C20.525 13.8517 20.2108 12.809 19.5825 11.8719C18.9542 10.9348 18.1146 10.2496 17.0638 9.81625V10.1087C17.0638 10.4879 16.9337 10.8183 16.6737 11.1C16.4137 11.3817 16.0942 11.5225 15.715 11.5225H14.3012V12.9362C14.3012 13.1204 14.2281 13.2721 14.0819 13.3912C13.9356 13.5104 13.7704 13.57 13.5862 13.57H12.2375V15H16.43C16.6142 15 16.7658 15.0704 16.885 15.2112C17.0042 15.3521 17.0638 15.5146 17.0638 15.6987V17.7625H17.7625C18.0767 17.7625 18.3529 17.8546 18.5912 18.0387C18.8296 18.2229 18.9921 18.4612 19.0787 18.7537Z" fill="white"/>
</svg>
