<svg width="201" height="201" viewBox="0 0 201 201" fill="none" xmlns="http://www.w3.org/2000/svg">
<path d="M31.4249 170.703C14.0694 154.012 13.5301 126.413 30.2203 109.057L66.4846 71.3476C83.1748 53.9921 110.774 53.4527 128.13 70.1429V70.1429C145.485 86.8331 146.025 114.433 129.334 131.788L93.0701 169.498C76.3799 186.854 48.7804 187.393 31.4249 170.703V170.703Z" fill="#491DC5"/>
<path d="M112.158 155.115C109.28 155.115 106.49 153.719 104.833 151.191C90.3589 129.217 71.8739 110.645 49.8133 96.17C46.151 93.7285 44.8422 89.0198 46.7605 85.0959L84.8663 5.74769C85.9126 3.48059 88.0043 1.82361 90.3586 1.12604C92.8001 0.428474 95.3294 0.864497 97.5093 2.25963C138.055 28.8545 172.062 62.948 198.744 103.494C200.139 105.587 200.575 108.203 199.877 110.644C199.18 113.086 197.523 115.091 195.256 116.138L115.908 154.242C114.687 154.853 113.378 155.115 112.158 155.115Z" fill="#020202"/>
</svg>
