<svg width="231" height="229" viewBox="0 0 231 229" fill="none" xmlns="http://www.w3.org/2000/svg">
<path d="M108.847 215.464C99.691 215.464 89.7496 211.279 81.6403 203.17C78.2397 199.769 78.2397 194.275 81.6403 190.875C85.041 187.474 90.6218 187.474 93.9353 190.875C101.521 198.461 110.851 199.682 114.426 196.02C117.827 192.619 123.32 192.619 126.721 196.02C130.122 199.42 130.122 204.913 126.721 208.314C122.013 213.11 115.648 215.464 108.847 215.464Z" fill="#020202"/>
<path d="M226.636 103.676C224.194 103.676 222.276 101.757 222.276 99.316C222.276 49.3526 181.643 8.71961 131.68 8.71961C129.239 8.71961 127.32 6.8013 127.32 4.35981C127.32 1.91831 129.239 0 131.68 0C186.439 0 230.996 44.5568 230.996 99.316C230.996 101.757 229.077 103.676 226.636 103.676Z" fill="#020202"/>
<path d="M198.733 103.668C196.292 103.668 194.374 101.75 194.374 99.3082C194.374 64.7785 166.21 36.6141 131.68 36.6141C129.239 36.6141 127.32 34.6958 127.32 32.2543C127.32 29.8128 129.239 27.8945 131.68 27.8945C171.093 27.8945 203.093 59.8955 203.093 99.3082C203.093 101.75 201.175 103.668 198.733 103.668Z" fill="#020202"/>
<path d="M31.4249 198.703C14.0694 182.012 13.5301 154.413 30.2203 137.057L66.4846 99.3476C83.1748 81.9921 110.774 81.4527 128.13 98.1429C145.485 114.833 146.025 142.433 129.334 159.788L93.0701 197.498C76.3799 214.854 48.7804 215.393 31.4249 198.703Z" fill="#491DC5"/>
<path d="M112.158 183.115C109.28 183.115 106.49 181.719 104.833 179.191C90.3589 157.217 71.8739 138.645 49.8133 124.17C46.151 121.729 44.8422 117.02 46.7605 113.096L84.8663 33.7477C85.9126 31.4806 88.0043 29.8236 90.3586 29.126C92.8001 28.4285 95.3294 28.8645 97.5093 30.2596C138.055 56.8545 172.062 90.948 198.744 131.494C200.139 133.587 200.575 136.203 199.877 138.644C199.18 141.086 197.523 143.091 195.256 144.138L115.908 182.242C114.687 182.853 113.378 183.115 112.158 183.115Z" fill="#020202"/>
</svg>
