<svg width="200" height="200" viewBox="0 0 200 200" fill="none" xmlns="http://www.w3.org/2000/svg">
<path d="M99.9141 98.4375C98.7926 98.4375 97.875 97.556 97.875 96.4787V85.6463C97.875 84.569 98.7926 83.6875 99.9141 83.6875C101.036 83.6875 101.953 84.569 101.953 85.6463V96.4787C101.953 97.556 101.056 98.4375 99.9141 98.4375Z" fill="white"/>
<path d="M105.315 93.4802H94.0391C92.9176 93.4802 92 92.5987 92 91.5213C92 90.444 92.9176 89.5625 94.0391 89.5625H105.315C106.437 89.5625 107.354 90.444 107.354 91.5213C107.354 92.5987 106.437 93.4802 105.315 93.4802Z" fill="white"/>
<circle cx="100" cy="100" r="100" fill="#EDE8F9"/>
<path d="M62.4375 126.891C60.2375 126.891 58.4375 125.091 58.4375 122.891V84.8906C58.4375 82.6906 60.2375 80.8906 62.4375 80.8906C64.6375 80.8906 66.4375 82.6906 66.4375 84.8906V122.891C66.4375 125.131 64.6375 126.891 62.4375 126.891Z" fill="#020202"/>
<path d="M131.078 126.891C128.878 126.891 127.078 125.091 127.078 122.891V84.8906C127.078 82.6906 128.878 80.8906 131.078 80.8906C133.278 80.8906 135.078 82.6906 135.078 84.8906V122.891C135.078 125.131 133.318 126.891 131.078 126.891Z" fill="#020202"/>
<path d="M79.5938 126.891C77.3937 126.891 75.5938 125.091 75.5938 122.891V84.8906C75.5938 82.6906 77.3937 80.8906 79.5938 80.8906C81.7938 80.8906 83.5938 82.6906 83.5938 84.8906V122.891C83.5938 125.131 81.7938 126.891 79.5938 126.891Z" fill="#491DC5"/>
<path d="M96.7578 126.891C94.5578 126.891 92.7578 125.091 92.7578 122.891V84.8906C92.7578 82.6906 94.5578 80.8906 96.7578 80.8906C98.9578 80.8906 100.758 82.6906 100.758 84.8906V122.891C100.758 125.131 98.9578 126.891 96.7578 126.891Z" fill="#491DC5"/>
<path d="M113.914 126.891C111.714 126.891 109.914 125.091 109.914 122.891V84.8906C109.914 82.6906 111.714 80.8906 113.914 80.8906C116.114 80.8906 117.914 82.6906 117.914 84.8906V122.891C117.914 125.131 116.154 126.891 113.914 126.891Z" fill="#491DC5"/>
<path d="M142.639 87.3699H50.8394C49.0794 87.3699 47.5194 86.2099 46.9994 84.5699C46.4794 82.8899 47.1194 81.0899 48.5594 80.0899L94.4394 48.69C95.7994 47.77 97.5994 47.77 98.9594 48.69L144.839 80.0899C146.279 81.0899 146.919 82.8899 146.399 84.5699C145.959 86.2099 144.399 87.3699 142.639 87.3699Z" fill="#020202"/>
<path d="M137.52 127.406H56C53.8 127.406 52 125.606 52 123.406C52 121.206 53.8 119.406 56 119.406H137.52C139.72 119.406 141.52 121.206 141.52 123.406C141.52 125.606 139.72 127.406 137.52 127.406Z" fill="#020202"/>
<path d="M145.52 138.891H48C45.8 138.891 44 137.091 44 134.891C44 132.691 45.8 130.891 48 130.891H145.52C147.72 130.891 149.52 132.691 149.52 134.891C149.52 137.131 147.72 138.891 145.52 138.891Z" fill="#020202"/>
</svg>
