<svg width="188" height="179" viewBox="0 0 188 179" fill="none" xmlns="http://www.w3.org/2000/svg">
<g opacity="0.2">
<path d="M21.506 102.057C28.9923 129.191 54.6013 150.954 81.9535 155.934C105.508 160.216 133.234 152.891 149.904 135.154C172.11 111.534 180.032 71.6651 156.57 46.832C141.55 30.9864 115.612 23.1843 94.8206 31.8365C88.9011 34.3048 84.5533 39.5399 78.9783 42.7565C72.2114 46.6474 64.7818 45.8413 57.2806 45.9129C51.2405 45.915 45.3092 47.5211 40.0933 50.5671C23.6202 60.2707 16.3269 83.2445 21.506 102.057Z" fill="#DBD2F3"/>
<path d="M14.2281 52.3582C20.5189 51.5747 24.9833 45.8398 24.1997 39.549C23.4162 33.2582 17.6814 28.7938 11.3906 29.5773C5.09986 30.3609 0.635197 36.0958 1.41875 42.3865C2.20231 48.6773 7.93737 53.1418 14.2281 52.3582Z" fill="#DBD2F3"/>
<path d="M23.2792 57.396C36.0119 51.7236 52.3479 56.632 50.89 65.2902V92.6336C68.0091 92.2898 83.5111 81.7663 106.952 74.6487C145.347 62.992 155.457 84.1982 155.457 84.1982V159.455L36.7377 161.562C33.8922 161.612 31.0651 161.094 28.4217 160.04C25.7783 158.985 23.3715 157.415 21.3417 155.42C19.3118 153.425 17.6996 151.046 16.5992 148.421C15.4989 145.796 14.9326 142.979 14.9331 140.133V74.4068C15.767 77.5518 14.9331 74.2731 14.9331 74.2731V74.4068C14.0572 71.0418 14.4179 67.4742 15.9495 64.3526C17.4812 61.231 20.0819 58.7625 23.2792 57.396Z" fill="white"/>
<path d="M36.1332 162.001C30.3925 162.001 24.8869 159.721 20.8276 155.661C16.7683 151.602 14.4877 146.096 14.4877 140.356V74.5087C14.0549 72.887 13.9086 71.2023 14.055 69.5302C14.2864 66.8214 15.2503 64.2265 16.844 62.0239C18.4377 59.8212 20.6009 58.0938 23.1015 57.0268C33.5996 52.3412 45.9501 54.8049 49.98 60.1335C52.2337 63.1066 51.8263 66.7227 48.8342 70.3197C42.4042 78.0229 33.8669 77.3226 30.4928 76.616C25.5716 75.6355 21.5225 72.9872 20.6439 70.1732C20.6272 70.1189 20.6215 70.0618 20.6268 70.0052C20.6322 69.9486 20.6487 69.8936 20.6753 69.8433C20.7019 69.7931 20.7381 69.7486 20.7819 69.7123C20.8257 69.6761 20.8762 69.6488 20.9305 69.6321C20.9844 69.6143 21.0412 69.6075 21.0978 69.6121C21.1543 69.6166 21.2096 69.6324 21.26 69.6585C21.3104 69.6846 21.3549 69.7204 21.3912 69.764C21.4276 69.8076 21.4551 69.8579 21.4717 69.9122C22.2484 72.3951 26.1127 74.8588 30.6647 75.7629C33.886 76.3995 42.0349 77.1062 48.172 69.7658C50.9159 66.4808 51.2979 63.3358 49.2861 60.6747C47.3763 58.1281 43.4865 56.3137 38.648 55.6771C33.4888 54.9893 28.2396 55.72 23.4643 57.7907C21.1056 58.7997 19.0663 60.4322 17.5655 62.5129C16.0648 64.5935 15.1594 67.0437 14.9462 69.6003C14.8178 71.0728 14.9296 72.5564 15.2773 73.993C15.3433 74.0714 15.3792 74.1707 15.379 74.2732V74.3877C16.2773 77.5991 18.314 80.3735 21.1086 82.1929C45.6572 98.4907 61.2931 92.0415 82.9322 83.1223C89.9352 80.232 97.8867 76.9534 106.844 74.2095C126.815 68.1424 139.064 71.0963 145.825 74.636C153.197 78.5004 155.763 83.7526 155.871 83.9754C155.899 84.0352 155.914 84.1003 155.916 84.1664V159.455C155.914 159.568 155.869 159.676 155.789 159.757C155.71 159.837 155.602 159.884 155.489 159.887L36.5535 161.995L36.1332 162.001ZM15.3662 76.8897V140.349C15.3666 143.109 15.9169 145.841 16.9845 148.386C18.0521 150.932 19.6159 153.239 21.5846 155.173C23.5532 157.107 25.8872 158.63 28.4507 159.653C31.0142 160.675 33.7558 161.177 36.5153 161.129L155.024 159.028V84.2937C154.668 83.6125 151.994 78.8696 145.348 75.3809C138.701 71.8921 126.726 69.0782 107.079 75.0435C98.1666 77.7491 90.2342 81.0214 83.244 83.9054C72.4213 88.3618 63.0184 92.2453 53.1824 92.9456C52.1468 93.0219 51.1153 93.0601 50.0882 93.0601C40.4368 93.0601 30.9892 89.7879 20.6057 82.874C18.3433 81.3976 16.5307 79.3273 15.3662 76.8897Z" fill="black"/>
<path d="M125.866 146.816H140.789V101.966H125.866V146.816Z" fill="#491DC5"/>
<path d="M140.789 147.25H125.867C125.752 147.25 125.642 147.204 125.56 147.123C125.479 147.042 125.434 146.932 125.434 146.817V101.966C125.434 101.851 125.479 101.741 125.56 101.66C125.642 101.579 125.752 101.533 125.867 101.533H140.789C140.904 101.533 141.014 101.579 141.095 101.66C141.177 101.741 141.222 101.851 141.222 101.966V146.791C141.226 146.85 141.217 146.909 141.197 146.965C141.177 147.02 141.145 147.071 141.105 147.114C141.064 147.157 141.015 147.191 140.961 147.215C140.907 147.238 140.848 147.25 140.789 147.25ZM126.299 146.384H140.356V102.399H126.299V146.384Z" fill="black"/>
<path d="M110.945 146.816H125.867V115.704H110.945V146.816Z" fill="#A48EE2"/>
<path d="M125.867 147.25H110.95C110.893 147.25 110.837 147.24 110.784 147.218C110.731 147.197 110.683 147.165 110.642 147.125C110.602 147.084 110.57 147.036 110.549 146.983C110.527 146.93 110.517 146.874 110.518 146.817V115.711C110.517 115.653 110.527 115.596 110.549 115.543C110.57 115.49 110.602 115.441 110.642 115.401C110.682 115.36 110.73 115.327 110.783 115.305C110.836 115.283 110.893 115.271 110.95 115.271H125.867C125.924 115.271 125.981 115.283 126.034 115.305C126.087 115.327 126.135 115.36 126.175 115.401C126.215 115.441 126.247 115.49 126.268 115.543C126.29 115.596 126.3 115.653 126.299 115.711V146.791C126.304 146.85 126.296 146.91 126.276 146.966C126.256 147.022 126.225 147.073 126.184 147.116C126.144 147.159 126.094 147.193 126.04 147.216C125.985 147.239 125.926 147.251 125.867 147.25ZM111.383 146.384H125.434V116.144H111.383V146.384Z" fill="black"/>
<path d="M96.0266 146.816H110.949V133.161H96.0266V146.816Z" fill="white"/>
<path d="M110.95 147.25H96.0404C95.9256 147.25 95.8154 147.204 95.7343 147.123C95.6531 147.042 95.6074 146.932 95.6074 146.817V133.161C95.6091 133.047 95.6553 132.938 95.7361 132.857C95.8169 132.776 95.9261 132.73 96.0404 132.729H110.963C111.077 132.73 111.187 132.776 111.267 132.857C111.348 132.938 111.394 133.047 111.396 133.161V146.792C111.4 146.852 111.391 146.912 111.37 146.968C111.349 147.025 111.316 147.076 111.274 147.119C111.232 147.162 111.182 147.196 111.126 147.219C111.07 147.241 111.01 147.252 110.95 147.25ZM96.4607 146.384H110.518V133.594H96.4607V146.384Z" fill="black"/>
<path d="M20.9174 82.8294C20.8604 82.8303 20.8037 82.8196 20.7508 82.7982C20.6979 82.7767 20.6498 82.7449 20.6094 82.7045C20.569 82.6642 20.5373 82.6161 20.5158 82.5632C20.4944 82.5103 20.4836 82.4536 20.4844 82.3965V70.0013C20.4844 69.9444 20.4956 69.8881 20.5174 69.8356C20.5391 69.7831 20.5711 69.7353 20.6113 69.6951C20.6515 69.655 20.6992 69.6231 20.7518 69.6013C20.8043 69.5796 20.8606 69.5684 20.9174 69.5684C20.9743 69.5684 21.0306 69.5796 21.0831 69.6013C21.1357 69.6231 21.1834 69.655 21.2236 69.6951C21.2638 69.7353 21.2958 69.7831 21.3175 69.8356C21.3393 69.8881 21.3505 69.9444 21.3505 70.0013V82.3965C21.3505 82.5113 21.3048 82.6214 21.2236 82.7026C21.1425 82.7838 21.0323 82.8294 20.9174 82.8294Z" fill="black"/>
<path d="M50.8901 93.0719C50.7752 93.0719 50.665 93.0263 50.5839 92.9452C50.5027 92.864 50.457 92.7539 50.457 92.639V65.302C50.457 65.1872 50.5027 65.0771 50.5839 64.9959C50.665 64.9147 50.7752 64.8691 50.8901 64.8691C51.0049 64.8691 51.1151 64.9147 51.1962 64.9959C51.2774 65.0771 51.3228 65.1872 51.3228 65.302V92.6772C51.3132 92.7853 51.2637 92.8858 51.1835 92.9589C51.1033 93.032 50.9985 93.0724 50.8901 93.0719Z" fill="black"/>
<path d="M62.979 126.229H31.1029C30.9881 126.229 30.8779 126.183 30.7968 126.102C30.7156 126.021 30.6699 125.911 30.6699 125.796C30.6699 125.681 30.7156 125.571 30.7968 125.49C30.8779 125.408 30.9881 125.363 31.1029 125.363H62.7881L83.1221 100.025C83.162 99.9733 83.2132 99.9317 83.2717 99.903C83.3301 99.8743 83.3946 99.8594 83.4597 99.8594H101.132C101.247 99.8594 101.357 99.905 101.439 99.9862C101.52 100.067 101.566 100.177 101.566 100.292C101.566 100.407 101.52 100.517 101.439 100.598C101.357 100.68 101.247 100.725 101.132 100.725H83.6378L63.3039 126.063C63.2653 126.113 63.2161 126.154 63.1599 126.182C63.1038 126.211 63.042 126.227 62.979 126.229Z" fill="black"/>
<path d="M31.1029 130.57C32.049 130.571 32.9744 130.292 33.7616 129.767C34.5488 129.242 35.1624 128.495 35.5251 127.622C35.8878 126.748 35.9829 125.786 35.7987 124.858C35.6144 123.93 35.159 123.077 34.49 122.408C33.8209 121.739 32.9684 121.284 32.0404 121.099C31.1124 120.915 30.1505 121.01 29.2766 121.373C28.4027 121.736 27.6563 122.349 27.1314 123.137C26.6065 123.924 26.3269 124.849 26.3281 125.795C26.3315 127.061 26.8357 128.273 27.7304 129.168C28.6251 130.063 29.8376 130.567 31.1029 130.57Z" fill="black"/>
<path d="M150.083 54.2206C148.965 54.2206 147.871 53.8889 146.942 53.2674C146.012 52.646 145.287 51.7627 144.86 50.7293C144.432 49.6959 144.32 48.5589 144.539 47.4621C144.757 46.3653 145.296 45.358 146.088 44.5676C146.879 43.7773 147.887 43.2393 148.984 43.0219C150.081 42.8045 151.218 42.9174 152.251 43.3462C153.284 43.7751 154.166 44.5007 154.787 45.4312C155.407 46.3617 155.738 47.4553 155.736 48.5737C155.733 50.0714 155.136 51.5068 154.076 52.5652C153.017 53.6237 151.581 54.219 150.083 54.2206ZM150.083 43.7863C149.136 43.7863 148.21 44.067 147.423 44.5931C146.636 45.1192 146.022 45.8669 145.66 46.7417C145.298 47.6165 145.203 48.579 145.388 49.5077C145.572 50.4364 146.028 51.2894 146.698 51.959C147.367 52.6285 148.22 53.0845 149.149 53.2692C150.078 53.454 151.04 53.3591 151.915 52.9968C152.79 52.6344 153.538 52.0208 154.064 51.2335C154.59 50.4462 154.871 49.5206 154.871 48.5737C154.871 47.304 154.366 46.0863 153.468 45.1885C152.571 44.2906 151.353 43.7863 150.083 43.7863Z" fill="black"/>
<path d="M72.6756 69.7142C72.6192 69.7156 72.5631 69.7057 72.5105 69.6849C72.458 69.6641 72.4102 69.6329 72.37 69.5932C72.3261 69.5527 72.2912 69.5035 72.2671 69.4487C72.2431 69.394 72.2305 69.3348 72.2305 69.2749C72.2305 69.2151 72.2431 69.156 72.2671 69.1012C72.2912 69.0464 72.3261 68.9972 72.37 68.9566L78.3863 62.9405C78.4708 62.8561 78.5853 62.8086 78.7047 62.8086C78.824 62.8086 78.9386 62.8561 79.023 62.9405C79.1074 63.0249 79.1548 63.1394 79.1548 63.2588C79.1548 63.3782 79.1074 63.4927 79.023 63.5771L73.0067 69.5932C72.9631 69.6355 72.9111 69.6681 72.854 69.689C72.797 69.7098 72.7362 69.7184 72.6756 69.7142Z" fill="black"/>
<path d="M78.692 69.5541C78.6355 69.5555 78.5794 69.5455 78.5269 69.5247C78.4744 69.5039 78.4266 69.4728 78.3864 69.4331L72.3701 63.417C72.3283 63.3751 72.2951 63.3255 72.2725 63.2709C72.2499 63.2163 72.2383 63.1578 72.2383 63.0986C72.2383 63.0395 72.2499 62.981 72.2725 62.9263C72.2951 62.8717 72.3283 62.8221 72.3701 62.7803C72.4119 62.7385 72.4616 62.7053 72.5162 62.6827C72.5708 62.6601 72.6293 62.6484 72.6884 62.6484C72.7475 62.6484 72.806 62.6601 72.8606 62.6827C72.9152 62.7053 72.9649 62.7385 73.0067 62.7803L79.023 68.7965C79.0833 68.857 79.1242 68.9341 79.1408 69.0179C79.1574 69.1017 79.149 69.1886 79.1163 69.2676C79.0836 69.3466 79.0284 69.4141 78.9574 69.4617C78.8864 69.5093 78.8029 69.5348 78.7174 69.535L78.692 69.5541Z" fill="black"/>
<path d="M62.9804 130.137C65.3783 130.137 67.3224 128.193 67.3224 125.795C67.3224 123.397 65.3783 121.453 62.9804 121.453C60.5825 121.453 58.6387 123.397 58.6387 125.795C58.6387 128.193 60.5825 130.137 62.9804 130.137Z" fill="#6D4AD0"/>
<path d="M83.4413 104.633C85.8393 104.633 87.783 102.689 87.783 100.291C87.783 97.8931 85.8393 95.9492 83.4413 95.9492C81.0434 95.9492 79.0996 97.8931 79.0996 100.291C79.0996 102.689 81.0434 104.633 83.4413 104.633Z" fill="#6D4AD0"/>
<path d="M101.146 104.633C103.544 104.633 105.488 102.689 105.488 100.291C105.488 97.8931 103.544 95.9492 101.146 95.9492C98.7485 95.9492 96.8047 97.8931 96.8047 100.291C96.8047 102.689 98.7485 104.633 101.146 104.633Z" fill="#491DC5"/>
</g>
</svg>
