<svg width="6" height="6" viewBox="0 0 6 6" fill="none" xmlns="http://www.w3.org/2000/svg">
<path d="M3.08992 2.99964L4.88158 1.21362C4.96004 1.13522 5.00412 1.02889 5.00412 0.918027C5.00412 0.807159 4.96004 0.700833 4.88158 0.622437C4.80312 0.544042 4.69671 0.5 4.58575 0.5C4.47479 0.5 4.36838 0.544042 4.28992 0.622437L2.50242 2.41263L0.714916 0.622437C0.636456 0.544042 0.530042 0.5 0.419083 0.5C0.308124 0.5 0.201709 0.544042 0.123249 0.622437C0.0447894 0.700833 0.000711084 0.807159 0.000711084 0.918027C0.000711083 1.02889 0.0447894 1.13522 0.123249 1.21362L1.91492 2.99964L0.123249 4.78567C0.0841958 4.82438 0.0531983 4.87042 0.0320447 4.92115C0.010891 4.97189 0 5.0263 0 5.08126C0 5.13622 0.010891 5.19064 0.0320447 5.24137C0.0531983 5.2921 0.0841958 5.33815 0.123249 5.37685C0.161984 5.41587 0.208068 5.44685 0.258842 5.46798C0.309617 5.48912 0.364078 5.5 0.419083 5.5C0.474088 5.5 0.528548 5.48912 0.579323 5.46798C0.630098 5.44685 0.676182 5.41587 0.714916 5.37685L2.50242 3.58666L4.28992 5.37685C4.32865 5.41587 4.37474 5.44685 4.42551 5.46798C4.47628 5.48912 4.53075 5.5 4.58575 5.5C4.64076 5.5 4.69522 5.48912 4.74599 5.46798C4.79677 5.44685 4.84285 5.41587 4.88158 5.37685C4.92064 5.33815 4.95164 5.2921 4.97279 5.24137C4.99394 5.19064 5.00483 5.13622 5.00483 5.08126C5.00483 5.0263 4.99394 4.97189 4.97279 4.92115C4.95164 4.87042 4.92064 4.82438 4.88158 4.78567L3.08992 2.99964Z" fill="#808080"/>
</svg>
