<svg width="140" height="140" viewBox="0 0 140 140" fill="none" xmlns="http://www.w3.org/2000/svg">
<path d="M120.622 34.534H19.6698C16.994 34.534 14.8047 32.3447 14.8047 29.6689C14.8047 26.993 16.994 24.8037 19.6698 24.8037H120.622C123.298 24.8037 125.487 26.993 125.487 29.6689C125.487 32.3934 123.298 34.534 120.622 34.534Z" fill="#491DC5"/>
<path d="M82.674 31.6627C81.4578 25.7272 76.2036 21.446 70.1222 21.446C64.0407 21.446 58.7863 25.7272 57.57 31.6627L48.0342 29.7165C50.1748 19.2564 59.4188 11.667 70.1222 11.667C80.7769 11.667 90.0692 19.2564 92.2099 29.7165L82.674 31.6627Z" fill="#491DC5"/>
<path d="M37.3258 128.333C32.2174 128.333 27.9847 124.198 27.6442 118.895L22.5845 34.5817C22.4386 31.9059 24.4819 29.6193 27.1578 29.4247C29.9309 29.2301 32.1689 31.3221 32.3148 33.9979L37.3745 118.311L102.957 118.603L107.968 33.9979C108.114 31.3221 110.449 29.2787 113.125 29.4247C115.801 29.5706 117.844 31.9059 117.698 34.5817L112.639 118.895C112.298 124.198 108.065 128.333 102.957 128.333H37.3258Z" fill="#491DC5"/>
<path d="M51.6809 110.479C49.1024 110.479 46.9617 108.484 46.8158 105.906L43.5562 47.9132C43.4102 45.2374 45.4536 42.9505 48.1294 42.8045C50.8053 42.6099 53.0918 44.702 53.2378 47.3778L56.4974 105.371C56.6433 108.046 54.5999 110.333 51.9241 110.479C51.8755 110.479 51.7782 110.479 51.6809 110.479Z" fill="#491DC5"/>
<path d="M88.6059 110.477C88.5086 110.477 88.4113 110.477 88.314 110.477C85.6382 110.331 83.5948 108.045 83.7408 105.369L87.0003 47.3759C87.1463 44.7 89.4815 42.608 92.1087 42.8026C94.7845 42.9485 96.8279 45.2354 96.6819 47.9112L93.4223 105.904C93.2764 108.482 91.1358 110.477 88.6059 110.477Z" fill="#491DC5"/>
<path d="M70.1747 110.477C67.4989 110.477 65.3096 108.287 65.3096 105.612V47.6191C65.3096 44.9432 67.4989 42.7539 70.1747 42.7539C72.8506 42.7539 75.0399 44.9432 75.0399 47.6191V105.612C75.0399 108.287 72.8506 110.477 70.1747 110.477Z" fill="#491DC5"/>
</svg>
