<svg width="159" height="168" viewBox="0 0 159 168" fill="none" xmlns="http://www.w3.org/2000/svg">
<path d="M151.316 33.334H7.09866C3.27604 33.334 0.148438 30.2064 0.148438 26.3838C0.148438 22.5612 3.27604 19.4336 7.09866 19.4336H151.316C155.138 19.4336 158.266 22.5612 158.266 26.3838C158.266 30.2759 155.138 33.334 151.316 33.334Z" fill="#9A9A9A"/>
<path d="M97.1047 29.2313C95.3671 20.752 87.8612 14.636 79.1734 14.636C70.4856 14.636 62.9793 20.752 61.2417 29.2313L47.6191 26.4511C50.6772 11.5081 63.8829 0.666016 79.1734 0.666016C94.3944 0.666016 107.669 11.5081 110.727 26.4511L97.1047 29.2313Z" fill="#9A9A9A"/>
<path d="M32.3214 167.334C25.0237 167.334 18.9771 161.426 18.4905 153.85L11.2625 33.4027C11.054 29.5801 13.9731 26.3135 17.7957 26.0355C21.7573 25.7575 24.9544 28.7461 25.1629 32.5687L32.391 153.016L126.08 153.433L133.239 32.5687C133.447 28.7461 136.783 25.827 140.606 26.0355C144.429 26.244 147.348 29.5801 147.139 33.4027L139.911 153.85C139.425 161.426 133.378 167.334 126.08 167.334H32.3214Z" fill="#9A9A9A"/>
<path d="M52.8282 141.825C49.1446 141.825 46.0865 138.975 45.878 135.291L41.2214 52.4449C41.0129 48.6223 43.932 45.3554 47.7547 45.1468C51.5773 44.8688 54.8438 47.8574 55.0523 51.6801L59.7088 134.527C59.9174 138.35 56.9982 141.616 53.1756 141.825C53.1061 141.825 52.9672 141.825 52.8282 141.825Z" fill="#9A9A9A"/>
<path d="M105.578 141.823C105.439 141.823 105.3 141.823 105.161 141.823C101.338 141.614 98.4192 138.348 98.6277 134.525L103.284 51.6781C103.493 47.8555 106.829 44.8669 110.582 45.1449C114.404 45.3534 117.324 48.6203 117.115 52.443L112.459 135.289C112.25 138.973 109.192 141.823 105.578 141.823Z" fill="#9A9A9A"/>
<path d="M79.2471 141.823C75.4245 141.823 72.2969 138.696 72.2969 134.873V52.0264C72.2969 48.2038 75.4245 45.0762 79.2471 45.0762C83.0697 45.0762 86.1973 48.2038 86.1973 52.0264V134.873C86.1973 138.696 83.0697 141.823 79.2471 141.823Z" fill="#9A9A9A"/>
</svg>
