<svg width="20" height="20" viewBox="0 0 20 20" fill="none" xmlns="http://www.w3.org/2000/svg">
<path d="M17.232 4.93301H2.81026C2.42799 4.93301 2.11523 4.62025 2.11523 4.23799C2.11523 3.85573 2.42799 3.54297 2.81026 3.54297H17.232C17.6142 3.54297 17.927 3.85573 17.927 4.23799C17.927 4.6272 17.6142 4.93301 17.232 4.93301Z" fill="#9A9A9A"/>
<path d="M11.8118 4.52255C11.6381 3.67462 10.8875 3.06302 10.0187 3.06302C9.14993 3.06302 8.39929 3.67462 8.22554 4.52255L6.86328 4.24452C7.16909 2.75022 8.48966 1.66602 10.0187 1.66602C11.5408 1.66602 12.8683 2.75022 13.1741 4.24452L11.8118 4.52255Z" fill="#9A9A9A"/>
<path d="M5.33351 18.3328C4.60373 18.3328 3.99907 17.742 3.95042 16.9844L3.22761 4.93969C3.20676 4.55743 3.49867 4.23077 3.88094 4.20297C4.2771 4.17516 4.59681 4.47403 4.61766 4.85629L5.34046 16.901L14.7094 16.9427L15.4252 4.85629C15.4461 4.47403 15.7797 4.18211 16.162 4.20297C16.5442 4.22382 16.8361 4.55743 16.8153 4.93969L16.0925 16.9844C16.0438 17.742 15.4392 18.3328 14.7094 18.3328H5.33351Z" fill="#9A9A9A"/>
<path d="M7.38243 15.7809C7.01407 15.7809 6.70826 15.4959 6.68741 15.1276L6.22175 6.84293C6.2009 6.46067 6.49281 6.13397 6.87508 6.11312C7.25734 6.08532 7.58399 6.38418 7.60484 6.76644L8.07049 15.0511C8.09134 15.4334 7.79943 15.7601 7.41717 15.7809C7.41022 15.7809 7.39633 15.7809 7.38243 15.7809Z" fill="#9A9A9A"/>
<path d="M12.657 15.7809C12.6431 15.7809 12.6292 15.7809 12.6153 15.7809C12.233 15.76 11.9411 15.4334 11.962 15.0511L12.4276 6.76644C12.4485 6.38418 12.7821 6.08532 13.1574 6.11312C13.5397 6.13397 13.8316 6.46067 13.8107 6.84293L13.3451 15.1276C13.3242 15.4959 13.0184 15.7809 12.657 15.7809Z" fill="#9A9A9A"/>
<path d="M10.0251 15.7821C9.64284 15.7821 9.33008 15.4694 9.33008 15.0871V6.80244C9.33008 6.42018 9.64284 6.10742 10.0251 6.10742C10.4074 6.10742 10.7201 6.42018 10.7201 6.80244V15.0871C10.7201 15.4694 10.4074 15.7821 10.0251 15.7821Z" fill="#9A9A9A"/>
</svg>
