<svg width="18" height="19" viewBox="0 0 18 19" fill="none" xmlns="http://www.w3.org/2000/svg">
<path fill-rule="evenodd" clip-rule="evenodd" d="M0 9.42969C0 4.45912 4.02943 0.429688 9 0.429688C13.9706 0.429688 18 4.45912 18 9.42969C18 14.4003 13.9706 18.4297 9 18.4297C4.02943 18.4297 0 14.4003 0 9.42969ZM1.80005 9.42968C1.80005 13.4061 5.0236 16.6297 9.00005 16.6297C12.9765 16.6297 16.2 13.4061 16.2 9.42968C16.2 5.45323 12.9765 2.22968 9.00005 2.22968C5.0236 2.22968 1.80005 5.45323 1.80005 9.42968Z" fill="#D9D9D9"/>
<path fill-rule="evenodd" clip-rule="evenodd" d="M9.79432 6.58878C9.31646 6.58878 8.92892 6.21698 8.92892 5.75819C8.92892 5.29954 9.31646 4.92773 9.79432 4.92773C10.2722 4.92773 10.6597 5.29954 10.6597 5.75819C10.6597 6.21698 10.2722 6.58878 9.79432 6.58878ZM9.38033 13.0228C9.05138 13.0753 8.39699 13.2068 8.06466 13.2333C7.7834 13.2557 7.51779 13.101 7.35599 12.8791C7.19374 12.6573 7.15494 12.3735 7.25125 12.1188L8.55986 8.66521H7.19926C7.19819 7.94559 7.76055 7.41644 8.47981 7.21332C8.82302 7.11632 9.46268 6.98385 9.79532 7.00401C9.99469 7.01623 10.342 7.13634 10.5038 7.35815C10.6662 7.57997 10.705 7.8639 10.6087 8.11854L9.30012 11.5721H10.6603C10.6606 12.291 10.1191 12.9046 9.38033 13.0228Z" fill="#D9D9D9"/>
</svg>
