<svg width="187" height="187" viewBox="0 0 187 187" fill="none" xmlns="http://www.w3.org/2000/svg">
<path fill-rule="evenodd" clip-rule="evenodd" d="M0 93.5C0 41.8614 41.8614 2.25719e-06 93.5 0C145.139 4.08702e-06 187 41.8614 187 93.5C187 145.139 145.139 187 93.5 187C41.8614 187 2.25719e-06 145.139 0 93.5ZM18.7087 93.5087C18.7087 134.82 52.1978 168.309 93.5087 168.309C134.82 168.309 168.309 134.82 168.309 93.5087C168.309 52.1978 134.82 18.7087 93.5087 18.7087C52.1978 18.7087 18.7087 52.1978 18.7087 93.5087Z" fill="#D9D9D9"/>
<path fill-rule="evenodd" clip-rule="evenodd" d="M101.76 63.9869C96.7953 63.9869 92.7692 60.1243 92.7692 55.3579C92.7692 50.5931 96.7953 46.7305 101.76 46.7305C106.724 46.7305 110.75 50.5931 110.75 55.3579C110.75 60.1243 106.724 63.9869 101.76 63.9869ZM97.4503 130.829C94.0329 131.375 87.2346 132.741 83.782 133.016C80.86 133.248 78.1006 131.641 76.4197 129.337C74.7341 127.032 74.331 124.084 75.3315 121.437L88.9266 85.5586H74.7914C74.7803 78.0826 80.6227 72.5853 88.0949 70.4751C91.6605 69.4674 98.3059 68.0912 101.762 68.3007C103.833 68.4276 107.441 69.6754 109.122 71.9798C110.81 74.2842 111.213 77.234 110.212 79.8794L96.6171 115.758H110.747C110.751 123.226 105.125 129.601 97.4503 130.829Z" fill="#D9D9D9"/>
</svg>
