<svg width="200" height="200" viewBox="0 0 200 200" fill="none" xmlns="http://www.w3.org/2000/svg">
<circle cx="100" cy="100" r="100" fill="#EDE8F9"/>
<path d="M66.3057 53.9965L66.3057 53.9966L66.3141 53.9937C88.0133 46.6688 111.908 46.6686 133.727 53.994L133.733 53.9962C139.151 55.729 143.5 61.6943 143.5 67.52V106.998C143.481 109.527 142.837 112.789 141.652 115.991C140.467 119.195 138.756 122.299 136.633 124.534C128.547 132.933 122.002 139.243 116.154 143.454C110.311 147.661 105.208 149.74 100 149.74C94.7924 149.74 89.6893 147.661 83.8516 143.454C78.0089 139.244 71.4745 132.934 63.408 124.536C61.2831 122.259 59.5622 119.134 58.3675 115.93C57.1725 112.726 56.5194 109.486 56.5 106.998V67.52C56.5 61.6142 60.7313 55.7694 66.3057 53.9965Z" fill="#020202" stroke="#491DC5"/>
<path d="M99.9458 131.594C94.1162 131.594 84.3516 122.459 74.8785 113.114C73.4575 111.679 72 107.759 72 105.939V72.3032C72 71.5332 72.51 70.8682 73.2751 70.6232C90.7275 65.2331 109.455 65.2681 126.725 70.6232C127.491 70.8682 128.001 71.5332 128.001 72.3032V105.974C127.964 107.794 126.471 111.714 125.086 113.149C115.467 122.494 105.775 131.594 99.9458 131.594ZM75.607 73.5631V105.904C75.607 106.954 76.8094 109.999 77.4652 110.664C82.7483 115.879 95.1364 128.094 99.9458 128.094C104.755 128.094 117.07 115.949 122.317 110.769C123.082 109.999 124.284 106.919 124.284 105.939V73.5631C108.508 68.9431 91.5291 68.9081 75.607 73.5631Z" fill="white"/>
<path d="M99.9141 102.438C98.7926 102.438 97.875 101.556 97.875 100.479V89.6463C97.875 88.569 98.7926 87.6875 99.9141 87.6875C101.036 87.6875 101.953 88.569 101.953 89.6463V100.479C101.953 101.556 101.056 102.438 99.9141 102.438Z" fill="white"/>
<path d="M105.315 97.4802H94.0391C92.9176 97.4802 92 96.5987 92 95.5213C92 94.444 92.9176 93.5625 94.0391 93.5625H105.315C106.437 93.5625 107.354 94.444 107.354 95.5213C107.354 96.5987 106.437 97.4802 105.315 97.4802Z" fill="white"/>
</svg>
