<svg width="176" height="176" viewBox="0 0 176 176" fill="none" xmlns="http://www.w3.org/2000/svg">
<circle cx="88" cy="88" r="88" fill="#EDE8F9"/>
<path d="M88.0002 127.319C79.8007 127.319 72.0534 120.735 59.6939 107.813C56.3478 104.213 54.328 97.9988 54.2979 94.0607V63.6946C54.2979 58.9873 57.6442 54.3416 62.0755 52.9264C78.7759 47.2654 97.1642 47.2654 113.955 52.9264C118.266 54.3109 121.702 59.0489 121.702 63.6946V94.0607C121.672 98.0603 119.683 104.275 116.337 107.813C103.947 120.735 96.1996 127.319 88.0002 127.319ZM88.0002 54.7723C79.8007 54.7723 71.7219 56.0954 63.9445 58.7412C61.9549 59.3873 60.3269 61.6332 60.3269 63.6638V94.0299C60.3269 96.6451 61.9248 101.291 64.0048 103.537C74.9173 114.951 81.9711 121.166 87.97 121.166C93.999 121.166 101.053 114.951 111.965 103.506C114.045 101.291 115.613 96.6758 115.643 93.9992V63.6638C115.643 61.6947 113.955 59.3564 112.056 58.7719C104.278 56.0952 96.1695 54.7723 88.0002 54.7723Z" fill="#020202"/>
<path d="M92.3556 101.106H83.632C82.9354 101.106 82.3655 100.5 82.3655 99.7618V91.1697H74.2874C73.5914 91.1697 73.0215 90.5636 73.0215 89.8227V80.5598C73.0215 79.8189 73.5914 79.2128 74.2874 79.2128H82.3655V70.6207C82.3655 69.8825 82.9354 69.2764 83.632 69.2764H92.3556C93.0522 69.2764 93.6221 69.8825 93.6221 70.6207V79.2128H101.713C102.409 79.2128 102.979 79.8189 102.979 80.5598V89.8227C102.979 90.5636 102.409 91.1697 101.713 91.1697H93.6221V99.7618C93.6221 100.179 93.4411 100.552 93.1583 100.798C92.9395 100.99 92.6597 101.106 92.3556 101.106Z" fill="#491DC5"/>
</svg>
