<svg width="900" height="875" viewBox="0 0 900 875" fill="none" xmlns="http://www.w3.org/2000/svg">
<path d="M799.408 415.854C782.125 350.874 736.44 288.822 674.784 260.142C638.713 243.526 598.652 237.537 559.297 242.875C522.353 247.949 489.699 273.812 450.655 265.121C418.014 257.857 394.59 231.124 368.769 211.946C344.379 193.823 316.267 182.063 285.592 181.048C144.934 176.472 82.4949 347.867 115.745 462.423C142.978 556.027 227.371 625.692 303.917 679.594C314.042 686.721 324.264 693.665 334.55 700.528C370.462 724.352 410.286 743.25 452.373 751.735C516.593 764.673 583.847 750.596 639.91 719.049C741.055 662.176 832.477 539.794 799.408 415.854Z" fill="#EDE8F9"/>
<path d="M471.792 230.976C499.655 219.444 512.895 187.508 501.363 159.645C489.831 131.782 457.895 118.543 430.032 130.075C402.169 141.607 388.93 173.543 400.462 201.406C411.994 229.269 443.929 242.508 471.792 230.976Z" fill="#EDE8F9"/>
<path d="M543.844 237.921L543.844 237.921C550.546 224.016 562.497 213.342 577.068 208.248C591.64 203.154 607.638 204.057 621.543 210.758L722.38 259.355C736.286 266.057 746.96 278.008 752.054 292.579C757.148 307.151 756.244 323.149 749.543 337.054C746.226 343.942 741.584 350.108 735.884 355.202C730.183 360.295 723.535 364.215 716.319 366.739C709.103 369.262 701.461 370.34 693.828 369.91C686.196 369.479 678.723 367.549 671.837 364.231L639.079 348.443L638.879 348.347L638.69 348.462L608.496 366.763L603.999 331.743L603.971 331.524L603.772 331.428L571 315.634C564.114 312.315 557.948 307.672 552.857 301.97C547.765 296.268 543.846 289.619 541.324 282.403C538.803 275.186 537.727 267.544 538.16 259.911C538.592 252.279 540.523 244.807 543.844 237.921Z" fill="white" stroke="black" stroke-width="0.816318"/>
<path d="M628.224 276.109L628.22 276.12L628.217 276.131C627.358 279.245 626.898 282.923 626.826 287.152C626.773 290.252 629.244 292.807 632.343 292.86L638.711 292.968C640.967 293.006 642.826 291.209 642.864 288.953C642.916 285.941 643.291 283.478 643.969 281.543L643.969 281.543L643.972 281.533C644.646 279.507 645.917 277.459 647.819 275.393C649.734 273.312 652.504 270.836 656.143 267.964L656.143 267.964L656.15 267.959C660.27 264.623 663.828 261.499 666.822 258.588C669.966 255.643 672.382 252.387 674.057 248.819L674.06 248.812C675.745 245.112 676.618 240.782 676.702 235.841C676.859 226.612 673.88 219.118 667.734 213.432C661.696 207.742 653.056 204.851 641.918 204.662C634.883 204.543 628.442 205.289 622.599 206.911C619.307 207.824 616.157 208.887 613.148 210.099C608.97 211.783 607.345 216.633 609.165 220.662C611.086 224.915 616.075 226.694 620.386 225.113C622.27 224.422 624.174 223.796 626.098 223.236L626.106 223.234L626.113 223.232C630.449 221.859 635.227 221.213 640.454 221.302C646.448 221.403 650.859 222.764 653.799 225.278L653.799 225.278L653.808 225.286C656.839 227.79 658.345 231.339 658.265 236.037C658.212 239.137 657.672 241.746 656.672 243.885L656.668 243.892L656.665 243.9C655.775 245.928 654.169 248.093 651.803 250.394C649.538 252.597 646.303 255.356 642.088 258.676L642.087 258.677C638.407 261.582 635.393 264.453 633.055 267.292L633.053 267.295C630.817 270.038 629.204 272.976 628.224 276.109Z" fill="#491DC5" stroke="#491DC5" stroke-width="1.37405"/>
<circle cx="632.641" cy="321.856" r="14.298" transform="rotate(20.5326 632.641 321.856)" fill="#491DC5" stroke="#491DC5" stroke-width="0.816318"/>
<path d="M410.227 520.647C420.038 497.651 466.979 516.366 484.43 521.95C493.632 524.908 517.394 532.734 526.631 535.754L501.596 569.173L458.009 566.924C413.404 549.839 402.093 539.717 410.227 520.647Z" fill="white"/>
<path d="M795.686 581.699C800.185 561.997 798.682 541.399 791.371 522.558C784.059 503.718 771.274 487.498 754.663 475.988C766.618 478.254 778.242 480.843 789.27 483.494C813.411 489.42 834.256 504.597 847.31 525.75C860.364 546.904 864.581 572.341 859.052 596.576C856.23 608.899 850.969 620.531 843.581 630.789C836.192 641.047 826.824 649.722 816.03 656.302C805.236 662.883 793.234 667.236 780.731 669.105C768.228 670.974 755.478 670.321 743.231 667.185L711.982 659.164C732.105 656.165 750.857 647.169 765.789 633.35C780.722 619.531 791.141 601.531 795.686 581.699Z" fill="black"/>
<path d="M794.143 581.739C798.819 561.283 796.833 539.867 788.475 520.619C780.117 501.372 765.824 485.301 747.684 474.752C762.133 477.301 776.141 480.457 789.335 483.611C813.476 489.537 834.321 504.712 847.375 525.866C860.429 547.02 864.646 572.457 859.117 596.691C856.295 609.014 851.034 620.648 843.645 630.906C836.257 641.163 826.889 649.838 816.095 656.418C805.301 662.999 793.299 667.352 780.796 669.221C768.293 671.09 755.543 670.437 743.296 667.301L706.615 657.899C727.393 656.118 747.067 647.782 762.799 634.093C778.531 620.404 789.507 602.071 794.143 581.739Z" fill="black"/>
<path d="M317.523 687.902C315.215 675.764 322.571 659.174 339.014 652.58C339.014 652.58 306.857 650.891 307.069 628.082C307.385 597.021 338.353 600.437 338.353 600.437C326.997 597.112 319.017 581.63 325.064 569.599C334.247 551.257 356.83 551.797 411.43 567.787C421.438 563.777 498.971 561.876 515.446 554.633C527.02 549.584 543.2 528.717 551.174 518.906C602.368 455.949 708.526 463.666 789.236 483.595C813.377 489.521 834.222 504.697 847.276 525.851C860.33 547.005 864.547 572.442 859.018 596.677C856.195 608.999 850.935 620.632 843.546 630.89C836.158 641.148 826.79 649.823 815.996 656.403C805.202 662.984 793.2 667.337 780.697 669.206C768.194 671.075 755.444 670.422 743.197 667.285L677.467 650.429C667.291 647.82 656.577 648.226 646.628 651.598C620.946 660.297 569.676 677.462 548.498 682.985C511.126 692.73 420.213 708.721 396.941 712.422C369.2 716.838 323.522 719.393 317.523 687.902Z" fill="white"/>
<path d="M859.201 602.776C852.141 626.727 836.062 647.005 814.351 659.339C792.639 671.673 766.989 675.102 742.8 668.904L677.07 652.047C667.218 649.521 656.843 649.918 647.212 653.188C619.487 662.577 569.857 679.17 548.94 684.611C512.082 694.218 421.099 710.268 397.247 714.062C363.386 719.446 321.778 719.328 315.856 688.202C313.676 676.706 319.646 661.524 333.243 653.518C323.637 651.756 305.207 646.017 305.391 628.062C305.579 618.443 308.432 610.944 314.184 605.846C319.082 601.763 325.131 599.307 331.489 598.821C327.953 596.157 325.166 592.624 323.399 588.564C321.975 585.476 321.25 582.111 321.273 578.71C321.297 575.31 322.069 571.956 323.535 568.887C328.466 559.053 337.251 554.37 351.177 554.215C364.185 554.055 382.755 557.705 411.357 566.055C416.508 564.356 431.751 563.116 450.84 561.582C475.092 559.561 505.565 557.129 514.727 553.134C524.98 548.644 539.205 531.042 547.703 520.517L549.841 517.883C605.909 448.966 724.141 465.819 789.654 481.981C814.228 488.019 835.444 503.472 848.73 525.008C862.016 546.544 866.306 572.439 860.677 597.109C860.242 598.953 859.754 600.887 859.201 602.776ZM317.521 687.901L319.194 687.575C324.611 716.03 364.332 715.859 396.701 710.721C420.521 706.944 511.345 690.9 548.057 681.435C568.869 675.989 618.406 659.447 646.1 650.075C656.389 646.583 667.474 646.174 677.992 648.899L743.753 665.739C755.769 668.821 768.281 669.466 780.55 667.637C792.819 665.808 804.598 661.542 815.193 655.089C825.788 648.637 834.984 640.129 842.239 630.067C849.494 620.005 854.662 608.592 857.437 596.502C862.745 572.709 858.551 547.784 845.749 527.039C832.948 506.293 812.55 491.368 788.903 485.443C724.204 469.466 607.437 452.727 552.633 520.2L550.502 522.809C541.798 533.589 527.269 551.601 516.261 556.422C506.557 560.652 477.177 563.037 451.274 565.126C433.253 566.605 416.252 568.014 412.214 569.592C411.859 569.744 411.462 569.767 411.091 569.658C356.393 553.64 335.109 553.874 326.695 570.575C325.462 573.203 324.818 576.069 324.808 578.973C324.797 581.876 325.422 584.746 326.637 587.383C327.736 590.102 329.41 592.551 331.542 594.564C333.675 596.577 336.217 598.106 338.995 599.047C339.402 599.163 339.752 599.429 339.973 599.79C340.194 600.152 340.272 600.584 340.189 601C340.107 601.416 339.872 601.786 339.53 602.037C339.187 602.287 338.763 602.4 338.342 602.352C338.342 602.352 325.139 601.114 316.564 608.672C311.593 613.079 309.047 619.616 308.931 628.363C308.706 649.329 339.064 651.147 339.279 651.131C339.663 651.154 340.028 651.306 340.315 651.562C340.603 651.818 340.796 652.163 340.864 652.541C340.928 652.922 340.859 653.314 340.67 653.651C340.48 653.988 340.181 654.249 339.822 654.392C324.213 660.653 317.182 676.313 319.355 687.833L317.521 687.901Z" fill="black"/>
<path d="M788.642 578.878C792.96 560.002 791.834 540.287 785.395 522.025C778.955 503.764 767.466 487.703 752.263 475.711C764.974 477.909 777.392 480.573 789.253 483.52C813.394 489.446 834.239 504.621 847.293 525.775C860.347 546.929 864.564 572.366 859.035 596.601C856.213 608.923 850.952 620.557 843.563 630.815C836.174 641.073 826.807 649.747 816.013 656.328C805.219 662.908 793.217 667.262 780.714 669.131C768.211 671 755.461 670.346 743.214 667.21L704.477 657.286C724.742 654.14 743.596 644.986 758.601 631.008C773.606 617.029 784.071 598.869 788.642 578.878Z" fill="black"/>
<path d="M387.473 603.651C387.364 604.017 387.135 604.334 386.823 604.553C386.51 604.772 386.134 604.879 385.753 604.856L338.267 602.096C337.846 602.029 337.465 601.808 337.198 601.475C336.932 601.143 336.798 600.722 336.825 600.297C336.851 599.871 337.034 599.471 337.34 599.173C337.645 598.876 338.051 598.702 338.477 598.687L385.963 601.447C386.408 601.475 386.823 601.677 387.12 602.01C387.416 602.343 387.569 602.78 387.545 603.225C387.547 603.37 387.523 603.515 387.473 603.651Z" fill="black"/>
<path d="M416.306 637.572C416.221 637.872 416.055 638.142 415.826 638.353C415.597 638.564 415.314 638.708 415.009 638.769L339.341 654.23C339.123 654.273 338.899 654.274 338.681 654.23C338.463 654.186 338.255 654.1 338.071 653.976C337.886 653.853 337.727 653.694 337.604 653.509C337.481 653.324 337.395 653.117 337.352 652.899C337.309 652.681 337.309 652.456 337.353 652.238C337.396 652.02 337.482 651.813 337.606 651.628C337.729 651.444 337.888 651.285 338.073 651.161C338.258 651.038 338.466 650.952 338.684 650.909L414.351 635.448C414.792 635.362 415.249 635.453 415.624 635.7C415.999 635.948 416.262 636.332 416.356 636.772C416.401 637.039 416.384 637.313 416.306 637.572Z" fill="black"/>
<path d="M580.28 641.265C580.178 641.618 579.961 641.928 579.665 642.146C579.368 642.363 579.007 642.476 578.639 642.467C577.77 642.475 492.634 641.519 467.285 642.167C466.174 642.192 465.009 642.219 463.791 642.248C443.423 642.855 409.352 643.84 393.088 627.562C389.962 624.348 387.551 620.509 386.011 616.298C384.472 612.087 383.839 607.598 384.155 603.126C384.207 594.963 386.809 587.021 391.597 580.41C396.385 573.798 403.119 568.849 410.858 566.253C411.068 566.177 411.291 566.144 411.514 566.155C411.737 566.165 411.956 566.22 412.158 566.316C412.359 566.411 412.54 566.547 412.689 566.713C412.839 566.879 412.954 567.072 413.028 567.283C413.174 567.707 413.148 568.172 412.956 568.578C412.763 568.984 412.419 569.298 411.998 569.453C404.85 571.759 398.623 576.283 394.222 582.369C389.82 588.455 387.474 595.786 387.522 603.297C387.223 607.305 387.775 611.332 389.142 615.112C390.508 618.892 392.659 622.341 395.453 625.231C410.705 640.477 443.879 639.413 463.661 638.923L467.179 638.85C492.583 638.192 577.798 639.145 578.661 639.161C579.108 639.17 579.535 639.352 579.849 639.67C580.164 639.988 580.341 640.416 580.345 640.863L580.28 641.265Z" fill="black"/>
<path d="M165.432 378.894C164.909 378.89 164.408 378.681 164.037 378.313L136.886 351.161C136.695 350.971 136.543 350.744 136.44 350.495C136.337 350.245 136.283 349.978 136.283 349.708C136.283 349.163 136.5 348.64 136.886 348.254C137.271 347.869 137.794 347.652 138.339 347.652C138.884 347.652 139.407 347.869 139.793 348.254L166.944 375.435C167.153 375.615 167.321 375.838 167.436 376.089C167.551 376.34 167.61 376.613 167.61 376.889C167.61 377.164 167.551 377.437 167.436 377.688C167.321 377.939 167.153 378.162 166.944 378.342C166.746 378.536 166.509 378.686 166.248 378.782C165.988 378.877 165.709 378.915 165.432 378.894Z" fill="#020202"/>
<path d="M138.247 378.892C137.733 378.886 137.242 378.677 136.881 378.311C136.672 378.131 136.504 377.907 136.389 377.657C136.274 377.406 136.215 377.133 136.215 376.857C136.215 376.581 136.274 376.309 136.389 376.058C136.504 375.807 136.672 375.584 136.881 375.404L164.032 348.223C164.418 347.857 164.933 347.659 165.464 347.673C165.996 347.686 166.501 347.91 166.867 348.296C167.233 348.681 167.431 349.197 167.418 349.728C167.404 350.26 167.18 350.764 166.795 351.13L139.643 378.282C139.463 378.472 139.247 378.624 139.007 378.729C138.767 378.834 138.509 378.889 138.247 378.892Z" fill="#020202"/>
<path d="M324.795 218.413C319.586 218.413 314.494 216.869 310.162 213.975C305.831 211.081 302.455 206.967 300.462 202.155C298.469 197.342 297.947 192.047 298.963 186.938C299.979 181.829 302.488 177.136 306.171 173.452C309.854 169.769 314.547 167.261 319.656 166.244C324.765 165.228 330.061 165.75 334.873 167.743C339.686 169.737 343.8 173.112 346.694 177.443C349.588 181.775 351.132 186.867 351.132 192.076C351.132 199.061 348.358 205.76 343.418 210.699C338.479 215.638 331.78 218.413 324.795 218.413ZM324.795 169.663C320.362 169.663 316.028 170.977 312.343 173.44C308.657 175.903 305.784 179.403 304.088 183.499C302.392 187.594 301.948 192.101 302.813 196.448C303.677 200.796 305.811 204.79 308.946 207.924C312.08 211.059 316.074 213.193 320.422 214.058C324.77 214.923 329.276 214.479 333.372 212.783C337.467 211.086 340.968 208.214 343.431 204.528C345.893 200.842 347.208 196.509 347.208 192.076C347.192 186.139 344.825 180.45 340.624 176.255C336.424 172.059 330.732 169.699 324.795 169.692V169.663Z" fill="#020202"/>
<path d="M224.525 501.381L160.788 606.979C159.576 609.041 158.801 611.33 158.509 613.704C158.218 616.078 158.417 618.487 159.094 620.781C159.771 623.075 160.911 625.205 162.445 627.04C163.979 628.875 165.873 630.376 168.011 631.449C170.082 632.526 172.348 633.176 174.675 633.361C177.002 633.545 179.343 633.262 181.558 632.525C183.773 631.789 185.818 630.616 187.571 629.075C189.325 627.535 190.751 625.658 191.766 623.556L244.173 510.157L224.525 501.381Z" fill="#020202"/>
<path d="M387.87 336.696C390.246 325.712 390.734 314.403 389.314 303.255C386.817 287.749 379.008 280.438 372.93 277.054L355.022 267.121C348.861 263.865 338.678 261.369 324.622 267.298C314.412 271.999 305.066 278.384 296.975 286.186C278.304 303.309 259.059 328.881 242.8 358.152C226.54 387.422 215.002 417.269 210.316 442.185C207.94 453.169 207.451 464.478 208.871 475.626C211.368 491.132 219.177 498.442 225.278 501.81L226.318 502.355L242.695 511.537C248.79 514.944 259.113 517.687 273.618 511.612C283.835 506.942 293.178 500.56 301.243 492.741C319.93 475.641 339.175 450.069 355.434 420.799C371.694 391.528 383.207 361.596 387.87 336.696Z" fill="#020202"/>
<path d="M230.674 488.741C249.399 499.146 290.694 460.583 322.908 402.609C355.122 344.635 366.057 289.204 347.332 278.799C328.607 268.394 287.313 306.956 255.099 364.93C222.885 422.904 211.949 478.336 230.674 488.741Z" fill="#491DC5"/>
<path d="M224.377 485.876C211.876 468.129 223.279 417.797 253.172 364.006C286.448 304.138 328.177 265.975 348.191 277.084C368.205 288.193 357.846 343.831 324.592 403.683C291.339 463.535 249.564 501.732 229.55 490.623C227.486 489.456 225.716 487.833 224.377 485.876ZM350.194 284.34C349.157 282.839 347.794 281.591 346.208 280.69C328.8 271.026 287.847 310.094 256.755 366.006C228.506 416.981 216.369 467.449 227.521 483.281C228.543 484.783 229.903 486.026 231.491 486.908C248.893 496.611 289.83 457.52 320.921 401.608C349.36 350.706 361.464 300.192 350.264 284.291L350.194 284.34Z" fill="#491DC5"/>
<path d="M238.09 475.378C254.434 484.46 290.47 450.815 318.578 400.23C346.687 349.645 356.223 301.275 339.88 292.194C323.536 283.112 287.501 316.757 259.392 367.342C231.284 417.927 221.746 466.296 238.09 475.378Z" fill="white"/>
<path d="M493.748 355.473C505.899 355.463 517.78 359.058 527.888 365.803C537.996 372.549 545.876 382.14 550.53 393.365C555.185 404.59 556.405 416.943 554.037 428.862C551.669 440.781 545.818 451.729 537.226 460.321C528.633 468.914 517.685 474.764 505.766 477.133C493.848 479.501 481.495 478.281 470.27 473.626C459.045 468.971 449.453 461.092 442.708 450.984C435.963 440.876 432.367 428.995 432.377 416.843H493.748V355.473Z" fill="#020202"/>
<path d="M476.568 342.734V402.847H416.456C416.456 386.904 422.789 371.614 434.062 360.341C445.335 349.068 460.626 342.734 476.568 342.734Z" fill="#A48EE2"/>
</svg>
