<svg width="202" height="173" viewBox="0 0 202 173" fill="none" xmlns="http://www.w3.org/2000/svg">
<path d="M142.184 17.6468L142.183 17.6471C139.796 19.4267 138.558 22.0972 138.558 24.8557C138.558 26.6377 139.177 28.5055 140.237 30.0172L140.238 30.0183L181.219 86.7216L140.238 143.425L140.237 143.425C137.409 147.428 138.202 153.035 142.185 155.885C146.165 158.732 151.65 157.932 154.57 153.926L154.57 153.926L199.353 92.0609C199.353 92.0607 199.354 92.0605 199.354 92.0603C201.653 88.9452 201.653 84.6737 199.354 81.5586C199.354 81.5584 199.354 81.5581 199.353 81.5579L154.57 19.6048L154.57 19.6044C151.651 15.6003 146.165 14.7092 142.184 17.6468Z" fill="#491DC5" stroke="#491DC5" stroke-width="0.2"/>
<path d="M55.9061 77.8238C51.0395 77.8238 47.0592 81.8293 47.0592 86.7241C47.0592 91.7075 51.0402 95.6244 55.9061 95.6244L192.183 95.6244C197.049 95.6244 201.03 91.6189 201.03 86.7241C201.03 81.8293 197.049 77.8238 192.183 77.8238L55.9061 77.8238Z" fill="#491DC5" stroke="#491DC5" stroke-width="0.2"/>
<path d="M0.900421 9.80026L0.900415 163.629C0.900414 168.524 4.8807 172.529 9.74727 172.529C14.6138 172.529 18.5941 168.524 18.5941 163.629L18.5941 9.80026C18.5941 4.90546 14.6139 0.9 9.74728 0.9C4.88071 0.899999 0.900421 4.90546 0.900421 9.80026Z" fill="#491DC5" stroke="#491DC5" stroke-width="0.2"/>
<path d="M9.7802 154.725C4.91363 154.725 0.933346 158.731 0.933345 163.625C0.933345 168.52 4.91363 172.526 9.7802 172.526L48.4406 172.526C53.3072 172.526 57.2875 168.52 57.2875 163.625C57.2875 158.731 53.3072 154.725 48.4406 154.725L9.7802 154.725Z" fill="#491DC5" stroke="#491DC5" stroke-width="0.2"/>
<path d="M9.7802 0.997654C4.91363 0.997654 0.933346 5.00312 0.933345 9.89792C0.933345 14.7927 4.91363 18.7982 9.7802 18.7982L48.4406 18.7982C53.3072 18.7982 57.2875 14.7927 57.2875 9.89792C57.2875 5.00312 53.3072 0.997656 48.4406 0.997656L9.7802 0.997654Z" fill="#491DC5" stroke="#491DC5" stroke-width="0.2"/>
</svg>
