<svg width="204" height="198" viewBox="0 0 204 198" fill="none" xmlns="http://www.w3.org/2000/svg">
<g opacity="0.3">
<path d="M180.946 94.1285C177.034 79.4204 166.693 65.375 152.738 58.8832C144.573 55.1222 135.505 53.7664 126.597 54.9747C118.235 56.1232 110.844 61.9772 102.006 60.0102C94.6177 58.3659 89.3157 52.315 83.4712 47.974C77.9505 43.8718 71.5872 41.21 64.644 40.9803C32.8062 39.9445 18.673 78.7397 26.1992 104.669C32.3634 125.857 51.4657 141.625 68.7918 153.826C71.0836 155.439 73.3975 157.011 75.7256 158.564C83.8543 163.957 92.8684 168.235 102.395 170.155C116.931 173.084 132.154 169.897 144.844 162.757C167.738 149.884 188.431 122.182 180.946 94.1285Z" fill="#EDE8F9"/>
<path d="M106.79 52.2817C113.097 49.6714 116.093 42.4428 113.483 36.136C110.873 29.8292 103.644 26.8326 97.3373 29.4428C91.0305 32.053 88.034 39.2816 90.6442 45.5884C93.2544 51.8952 100.483 54.8919 106.79 52.2817Z" fill="#EDE8F9"/>
<path d="M137.159 75.0322L137.122 74.7424L136.858 74.6155L129.441 71.0406C127.935 70.3148 126.586 69.2995 125.473 68.0526C124.359 66.8057 123.503 65.3517 122.951 63.7736C122.4 62.1955 122.164 60.5242 122.259 58.8552C122.354 57.1861 122.776 55.5521 123.502 54.0463L123.017 53.8123L123.502 54.0462C124.968 51.0053 127.581 48.6712 130.768 47.5572C133.954 46.4433 137.453 46.6407 140.493 48.1062L163.318 59.1061C166.359 60.5716 168.693 63.1851 169.807 66.3716C170.921 69.5581 170.723 73.0566 169.258 76.0974L169.258 76.0976C168.532 77.6037 167.517 78.9522 166.271 80.066C165.024 81.1798 163.57 82.0371 161.992 82.5889C160.414 83.1408 158.743 83.3764 157.074 83.2823C155.405 83.1882 153.771 82.7662 152.265 82.0404L144.85 78.467L144.587 78.3401L144.337 78.4916L138.089 82.2785L137.159 75.0322Z" fill="white" stroke="black" stroke-width="1.07754"/>
<path d="M141.478 62.2738L141.474 62.2886L141.47 62.3036C141.254 63.0856 141.145 63.9839 141.128 64.9853C141.109 66.1019 141.999 67.0223 143.115 67.0413L144.557 67.0657C145.482 67.0814 146.245 66.3439 146.261 65.4185C146.271 64.7859 146.35 64.3143 146.468 63.9768L146.471 63.9701L146.473 63.9633C146.584 63.6294 146.806 63.2556 147.184 62.8452C147.579 62.4156 148.172 61.8831 148.98 61.2446L148.981 61.2447L148.989 61.2376C149.933 60.4736 150.754 59.753 151.451 59.0761C152.223 58.3522 152.827 57.5408 153.25 56.6407L153.25 56.6408L153.254 56.6311C153.687 55.6806 153.899 54.5948 153.92 53.3964C153.958 51.1214 153.216 49.2114 151.652 47.7623C150.106 46.307 147.945 45.6199 145.308 45.5751C143.655 45.5471 142.124 45.7222 140.721 46.1114L140.938 46.8926L140.721 46.1114C139.951 46.3253 139.211 46.5747 138.502 46.8602C137.118 47.4179 136.628 48.9989 137.197 50.2572C137.81 51.6157 139.374 52.14 140.68 51.6608C141.09 51.5103 141.505 51.3741 141.924 51.2521L141.934 51.2492L141.945 51.246C142.838 50.9631 143.838 50.8252 144.951 50.8441C146.215 50.8655 147.015 51.1523 147.496 51.564L147.502 51.569L147.508 51.574C147.987 51.97 148.259 52.538 148.244 53.4155C148.233 54.0397 148.125 54.5204 147.954 54.8861L147.949 54.896L147.945 54.9061C147.796 55.2464 147.503 55.6588 147.009 56.1392C146.523 56.6114 145.814 57.2176 144.869 57.9623L144.868 57.9628C144.004 58.6447 143.28 59.3313 142.709 60.0252L142.709 60.0252L142.706 60.0287C142.145 60.7174 141.731 61.4662 141.478 62.2738Z" fill="#491DC5" stroke="#491DC5" stroke-width="1.81374"/>
<circle cx="143.197" cy="72.8551" r="2.78997" transform="rotate(20.5326 143.197 72.8551)" fill="#491DC5" stroke="#491DC5" stroke-width="1.07754"/>
<path d="M92.8531 117.849C95.0736 112.644 105.699 116.881 109.649 118.144C111.732 118.814 117.11 120.585 119.201 121.269L113.534 128.833L103.668 128.324C93.572 124.457 91.0117 122.166 92.8531 117.849Z" fill="white"/>
<path d="M180.102 131.668C181.12 127.209 180.78 122.546 179.125 118.282C177.47 114.017 174.576 110.346 170.816 107.741C173.523 108.254 176.154 108.84 178.65 109.44C184.114 110.781 188.832 114.216 191.787 119.004C194.742 123.793 195.696 129.55 194.445 135.036C193.806 137.825 192.615 140.458 190.943 142.78C189.271 145.102 187.15 147.065 184.707 148.555C182.264 150.044 179.547 151.03 176.717 151.453C173.887 151.876 171.001 151.728 168.229 151.018L161.156 149.203C165.711 148.524 169.955 146.487 173.335 143.359C176.715 140.232 179.073 136.157 180.102 131.668V131.668Z" fill="black"/>
<path d="M179.753 131.677C180.812 127.047 180.362 122.199 178.47 117.842C176.578 113.486 173.343 109.848 169.237 107.46C172.507 108.037 175.678 108.752 178.665 109.466C184.129 110.807 188.847 114.242 191.802 119.03C194.757 123.818 195.711 129.576 194.46 135.061V135.061C193.821 137.85 192.63 140.484 190.958 142.806C189.285 145.127 187.165 147.091 184.722 148.58C182.279 150.07 179.562 151.055 176.732 151.478C173.902 151.901 171.016 151.754 168.244 151.044L159.941 148.916C164.644 148.512 169.097 146.626 172.658 143.527C176.219 140.429 178.704 136.279 179.753 131.677V131.677Z" fill="black"/>
<path d="M71.8709 155.708C71.3485 152.961 73.0135 149.206 76.7354 147.713C76.7354 147.713 69.4566 147.331 69.5047 142.168C69.5761 135.137 76.5857 135.911 76.5857 135.911C74.0153 135.158 72.209 131.654 73.5778 128.93C75.6565 124.779 80.768 124.901 93.1269 128.52C95.3921 127.613 112.942 127.182 116.671 125.543C119.291 124.4 122.953 119.677 124.758 117.456C136.346 103.206 160.375 104.953 178.643 109.464C184.107 110.805 188.826 114.24 191.78 119.028C194.735 123.816 195.69 129.574 194.438 135.06C193.799 137.849 192.609 140.482 190.936 142.804C189.264 145.126 187.144 147.089 184.7 148.579C182.257 150.068 179.54 151.054 176.71 151.477C173.88 151.9 170.994 151.752 168.222 151.042L153.344 147.226C151.041 146.636 148.616 146.728 146.364 147.491C140.551 149.46 128.946 153.345 124.152 154.595C115.693 156.801 95.1148 160.421 89.8471 161.258C83.568 162.258 73.2289 162.836 71.8709 155.708Z" fill="white"/>
<path d="M194.48 136.439C192.881 141.861 189.242 146.45 184.328 149.242C179.413 152.034 173.607 152.81 168.132 151.407L153.254 147.592C151.024 147.02 148.676 147.11 146.496 147.85C140.22 149.975 128.987 153.731 124.252 154.963C115.909 157.137 95.315 160.77 89.9162 161.629C82.2519 162.848 72.8339 162.821 71.4934 155.775C70.9998 153.173 72.3513 149.737 75.4289 147.925C73.2547 147.526 69.0829 146.227 69.1246 142.163C69.1671 139.985 69.8129 138.288 71.1149 137.134C72.2236 136.21 73.5928 135.654 75.032 135.544C74.2315 134.941 73.6006 134.141 73.2007 133.223C72.8785 132.523 72.7143 131.762 72.7196 130.992C72.7249 130.222 72.8998 129.463 73.2316 128.769C74.3476 126.543 76.3362 125.483 79.4883 125.448C82.4327 125.411 86.6358 126.237 93.1101 128.128C94.276 127.743 97.7263 127.462 102.047 127.115C107.537 126.658 114.434 126.107 116.508 125.203C118.829 124.187 122.048 120.202 123.972 117.82L124.456 117.224C137.147 101.624 163.909 105.439 178.738 109.097C184.3 110.464 189.102 113.962 192.109 118.837C195.117 123.711 196.088 129.572 194.814 135.157C194.715 135.574 194.605 136.012 194.48 136.439ZM71.8704 155.707L72.2489 155.634C73.475 162.074 82.4659 162.036 89.7926 160.873C95.1843 160.018 115.742 156.386 124.052 154.244C128.763 153.011 139.976 149.267 146.244 147.145C148.573 146.355 151.082 146.262 153.463 146.879L168.348 150.691C171.068 151.389 173.9 151.535 176.677 151.121C179.454 150.707 182.12 149.741 184.518 148.28C186.916 146.82 188.998 144.894 190.64 142.617C192.282 140.339 193.452 137.756 194.08 135.019C195.282 129.634 194.332 123.992 191.435 119.296C188.537 114.6 183.92 111.222 178.568 109.881C163.923 106.265 137.493 102.476 125.088 117.748L124.605 118.339C122.635 120.779 119.347 124.856 116.855 125.947C114.659 126.905 108.008 127.445 102.145 127.917C98.0662 128.252 94.218 128.571 93.3041 128.928C93.2236 128.962 93.1337 128.968 93.0498 128.943C80.669 125.317 75.8513 125.37 73.9468 129.151C73.6677 129.746 73.5218 130.394 73.5195 131.051C73.5172 131.709 73.6586 132.358 73.9336 132.955C74.1825 133.57 74.5612 134.125 75.044 134.581C75.5267 135.036 76.1021 135.382 76.7308 135.595C76.8231 135.622 76.9021 135.682 76.9522 135.764C77.0023 135.845 77.0198 135.943 77.0012 136.037C76.9826 136.132 76.9293 136.215 76.8519 136.272C76.7744 136.329 76.6785 136.354 76.5831 136.343C76.5831 136.343 73.5946 136.063 71.6535 137.774C70.5283 138.771 69.9522 140.251 69.9258 142.231C69.8749 146.976 76.7464 147.388 76.7951 147.385C76.882 147.39 76.9647 147.424 77.0297 147.482C77.0948 147.54 77.1385 147.618 77.1539 147.704C77.1684 147.79 77.1529 147.879 77.11 147.955C77.0671 148.031 76.9994 148.09 76.9181 148.123C73.385 149.54 71.7935 153.084 72.2854 155.692L71.8704 155.707Z" fill="black"/>
<path d="M178.508 131.032C179.486 126.759 179.231 122.297 177.773 118.163C176.316 114.029 173.715 110.394 170.274 107.68C173.151 108.177 175.962 108.78 178.646 109.447C184.111 110.789 188.829 114.224 191.784 119.012C194.739 123.8 195.693 129.558 194.442 135.043V135.043C193.803 137.832 192.612 140.466 190.94 142.788C189.267 145.109 187.147 147.073 184.704 148.562C182.26 150.052 179.544 151.037 176.714 151.46C173.884 151.883 170.998 151.736 168.226 151.026L159.458 148.779C164.044 148.067 168.312 145.995 171.708 142.831C175.105 139.667 177.473 135.557 178.508 131.032Z" fill="black"/>
<path d="M87.703 136.637C87.6784 136.72 87.6265 136.792 87.5559 136.841C87.4852 136.891 87.3999 136.915 87.3137 136.91L76.5653 136.285C76.47 136.27 76.3837 136.22 76.3234 136.144C76.263 136.069 76.2329 135.974 76.2388 135.878C76.2447 135.781 76.2862 135.691 76.3554 135.623C76.4245 135.556 76.5163 135.517 76.6127 135.513L87.3612 136.138C87.4619 136.144 87.556 136.19 87.6231 136.266C87.6902 136.341 87.7248 136.44 87.7194 136.54C87.7199 136.573 87.7143 136.606 87.703 136.637V136.637Z" fill="black"/>
<path d="M94.2306 144.315C94.2114 144.383 94.1738 144.444 94.122 144.492C94.0702 144.54 94.0061 144.572 93.937 144.586L76.8096 148.085C76.7602 148.095 76.7094 148.095 76.6601 148.085C76.6107 148.076 76.5638 148.056 76.522 148.028C76.4802 148 76.4443 147.964 76.4164 147.922C76.3885 147.88 76.3691 147.833 76.3593 147.784C76.3495 147.735 76.3496 147.684 76.3595 147.634C76.3693 147.585 76.3888 147.538 76.4168 147.497C76.4448 147.455 76.4807 147.419 76.5226 147.391C76.5645 147.363 76.6114 147.344 76.6608 147.334L93.7882 143.834C93.888 143.815 93.9914 143.835 94.0763 143.891C94.1611 143.947 94.2206 144.034 94.242 144.134C94.2521 144.194 94.2482 144.256 94.2306 144.315V144.315Z" fill="black"/>
<path d="M131.345 145.151C131.322 145.231 131.273 145.301 131.206 145.35C131.139 145.399 131.057 145.425 130.974 145.423C130.777 145.425 111.507 145.208 105.769 145.355C105.517 145.361 105.254 145.367 104.978 145.373C100.368 145.511 92.6558 145.734 88.9743 142.049C88.2668 141.321 87.721 140.453 87.3725 139.499C87.0241 138.546 86.8809 137.53 86.9523 136.518C86.9642 134.67 87.5532 132.872 88.6369 131.376C89.7206 129.88 91.2449 128.759 92.9966 128.172C93.0441 128.155 93.0946 128.147 93.1451 128.149C93.1956 128.152 93.2451 128.164 93.2908 128.186C93.3364 128.208 93.3773 128.238 93.4111 128.276C93.4449 128.313 93.471 128.357 93.4877 128.405C93.5209 128.501 93.515 128.606 93.4714 128.698C93.4279 128.79 93.35 128.861 93.2546 128.896C91.6367 129.418 90.2273 130.442 89.231 131.82C88.2348 133.197 87.7035 134.857 87.7145 136.557C87.6468 137.464 87.7717 138.375 88.0811 139.231C88.3905 140.087 88.8773 140.867 89.5096 141.521C92.962 144.972 100.471 144.732 104.949 144.621L105.745 144.604C111.495 144.455 130.784 144.671 130.979 144.674C131.08 144.676 131.177 144.718 131.248 144.79C131.319 144.862 131.359 144.959 131.36 145.06L131.345 145.151Z" fill="black"/>
<path d="M37.4445 85.7611C37.3261 85.7601 37.2128 85.7129 37.1287 85.6295L30.9831 79.4837C30.9399 79.4405 30.9056 79.3892 30.8822 79.3328C30.8588 79.2763 30.8467 79.2158 30.8467 79.1547C30.8467 79.0313 30.8958 78.913 30.9831 78.8257C31.0703 78.7385 31.1887 78.6895 31.3121 78.6895C31.4355 78.6895 31.5538 78.7385 31.6411 78.8257L37.7867 84.9781C37.834 85.0188 37.872 85.0693 37.898 85.1261C37.9241 85.1829 37.9375 85.2446 37.9375 85.3071C37.9375 85.3695 37.9241 85.4312 37.898 85.488C37.872 85.5448 37.834 85.5953 37.7867 85.6361C37.7419 85.6801 37.6883 85.714 37.6293 85.7356C37.5703 85.7571 37.5072 85.7658 37.4445 85.7611V85.7611Z" fill="#020202"/>
<path d="M31.2911 85.761C31.1747 85.7597 31.0636 85.7124 30.9819 85.6294C30.9346 85.5887 30.8966 85.5382 30.8706 85.4814C30.8445 85.4246 30.8311 85.3629 30.8311 85.3004C30.8311 85.238 30.8445 85.1763 30.8706 85.1195C30.8966 85.0627 30.9346 85.0122 30.9819 84.9714L37.1275 78.8191C37.2148 78.7362 37.3314 78.6914 37.4517 78.6945C37.572 78.6976 37.6863 78.7483 37.7691 78.8356C37.852 78.9228 37.8969 79.0394 37.8938 79.1598C37.8907 79.2801 37.84 79.3942 37.7528 79.4771L31.607 85.6229C31.5663 85.6659 31.5173 85.7004 31.463 85.7241C31.4088 85.7478 31.3504 85.7604 31.2911 85.761Z" fill="#020202"/>
<path d="M73.5172 49.4376C72.3381 49.4376 71.1855 49.088 70.2052 48.4329C69.2248 47.7779 68.4607 46.8468 68.0095 45.7575C67.5583 44.6682 67.4402 43.4695 67.6702 42.3131C67.9002 41.1567 68.468 40.0945 69.3017 39.2607C70.1354 38.427 71.1977 37.8592 72.3541 37.6292C73.5105 37.3992 74.7092 37.5172 75.7985 37.9684C76.8878 38.4197 77.819 39.1837 78.4741 40.1641C79.1291 41.1445 79.4787 42.2971 79.4787 43.4762C79.4787 45.0572 78.8507 46.5736 77.7327 47.6916C76.6147 48.8096 75.0983 49.4376 73.5172 49.4376V49.4376ZM73.5172 38.4029C72.5138 38.4029 71.533 38.7005 70.6987 39.2579C69.8644 39.8154 69.2142 40.6077 68.8302 41.5347C68.4462 42.4617 68.3458 43.4818 68.5415 44.4659C68.7373 45.45 69.2203 46.3539 69.9298 47.0634C70.6393 47.7729 71.5434 48.2561 72.5275 48.4518C73.5116 48.6476 74.5316 48.5471 75.4586 48.1632C76.3856 47.7792 77.178 47.1289 77.7354 46.2947C78.2929 45.4604 78.5904 44.4795 78.5904 43.4762C78.5869 42.1323 78.0511 40.8446 77.1002 39.895C76.1494 38.9454 74.861 38.4113 73.5172 38.4095V38.4029Z" fill="#020202"/>
<path d="M50.824 113.488L36.3972 137.39C36.1229 137.857 35.9474 138.375 35.8814 138.912C35.8154 139.449 35.8605 139.995 36.0137 140.514C36.167 141.033 36.4251 141.515 36.7723 141.931C37.1195 142.346 37.5483 142.686 38.0321 142.929V142.929C38.5009 143.172 39.0139 143.32 39.5406 143.361C40.0673 143.403 40.5971 143.339 41.0985 143.172C41.5999 143.006 42.0627 142.74 42.4596 142.391C42.8565 142.043 43.1794 141.618 43.4092 141.142L55.2714 115.474L50.824 113.488Z" fill="#020202"/>
<path d="M87.7967 76.2121C88.3345 73.7258 88.4451 71.1662 88.1237 68.6428C87.5585 65.133 85.791 63.4782 84.4152 62.7123L80.3617 60.4639C78.9671 59.7268 76.6621 59.1619 73.4807 60.504C71.1696 61.5679 69.0541 63.0132 67.2227 64.7793C62.9966 68.6549 58.6405 74.4432 54.9601 81.0686C51.2797 87.694 48.6681 94.4497 47.6074 100.09C47.0696 102.576 46.959 105.135 47.2804 107.659C47.8456 111.169 49.6131 112.823 50.9941 113.586L51.2295 113.709L54.9365 115.787C56.3161 116.559 58.6526 117.179 61.936 115.804C64.2485 114.747 66.3632 113.303 68.1888 111.533C72.4185 107.662 76.7746 101.874 80.455 95.2487C84.1354 88.6233 86.7412 81.8482 87.7967 76.2121Z" fill="#020202"/>
<path d="M52.2151 110.627C56.4535 112.982 65.8005 104.253 73.0921 91.1307C80.3838 78.0083 82.859 65.4613 78.6206 63.1062C74.3822 60.751 65.0352 69.4796 57.7435 82.602C50.4518 95.7244 47.9767 108.271 52.2151 110.627Z" fill="#491DC5"/>
<path d="M50.7905 109.978C47.9609 105.961 50.542 94.5685 57.3082 82.3931C64.8404 68.8419 74.2857 60.2036 78.8159 62.7182C83.346 65.2327 81.0012 77.8264 73.4743 91.3739C65.9473 104.922 56.4917 113.567 51.9615 111.053C51.4943 110.789 51.0937 110.421 50.7905 109.978V109.978ZM79.2693 64.3605C79.0344 64.0209 78.726 63.7385 78.367 63.5345C74.4267 61.3469 65.1569 70.19 58.1194 82.8457C51.7251 94.384 48.978 105.807 51.5022 109.391C51.7335 109.731 52.0413 110.012 52.4009 110.212C56.3396 112.408 65.6058 103.56 72.6433 90.9043C79.0805 79.3826 81.8203 67.9487 79.285 64.3495L79.2693 64.3605Z" fill="#491DC5"/>
<path d="M53.8926 107.601C57.592 109.656 65.7487 102.041 72.1111 90.591C78.4734 79.1411 80.632 68.1927 76.9326 66.137C73.2332 64.0814 65.0767 71.697 58.7144 83.1469C52.352 94.5968 50.1932 105.545 53.8926 107.601Z" fill="white"/>
<path d="M111.759 80.46C114.509 80.4578 117.199 81.2716 119.486 82.7983C121.774 84.3251 123.558 86.4962 124.612 89.0369C125.665 91.5777 125.941 94.3738 125.405 97.0716C124.869 99.7694 123.545 102.248 121.6 104.192C119.655 106.137 117.177 107.462 114.479 107.998C111.781 108.534 108.985 108.258 106.445 107.204C103.904 106.15 101.733 104.367 100.206 102.079C98.6791 99.791 97.8654 97.1017 97.8675 94.3512H111.759V80.46Z" fill="#020202"/>
<path d="M107.871 77.5771V91.1835H94.2647C94.2647 87.5749 95.6982 84.114 98.2499 81.5623C100.802 79.0107 104.263 77.5771 107.871 77.5771V77.5771Z" fill="#A48EE2"/>
</g>
</svg>
