<svg width="204" height="198" viewBox="0 0 204 198" fill="none" xmlns="http://www.w3.org/2000/svg">
<g opacity="0.3">
<path d="M180.946 94.1285C177.034 79.4204 166.693 65.375 152.738 58.8832C144.573 55.1222 135.505 53.7664 126.597 54.9747C118.235 56.1232 110.844 61.9772 102.006 60.0102C94.6177 58.3659 89.3156 52.315 83.4712 47.974C77.9505 43.8718 71.5872 41.21 64.644 40.9803C32.8062 39.9445 18.673 78.7397 26.1992 104.669C32.3634 125.857 51.4657 141.625 68.7918 153.826C71.0836 155.439 73.3975 157.011 75.7256 158.564C83.8543 163.957 92.8684 168.235 102.395 170.155C116.931 173.084 132.154 169.897 144.844 162.757C167.738 149.884 188.431 122.182 180.946 94.1285Z" fill="#EDE8F9"/>
<path d="M106.79 52.2807C113.097 49.6705 116.093 42.4418 113.483 36.135C110.873 29.8282 103.644 26.8316 97.3373 29.4418C91.0305 32.052 88.034 39.2806 90.6442 45.5874C93.2544 51.8942 100.483 54.8909 106.79 52.2807Z" fill="#EDE8F9"/>
<path d="M123.502 54.0463L123.502 54.0462C124.968 51.0053 127.581 48.6712 130.768 47.5572C133.954 46.4433 137.453 46.6407 140.493 48.1062L163.318 59.1061C166.359 60.5716 168.693 63.1851 169.807 66.3716C170.921 69.5581 170.723 73.0566 169.258 76.0974L169.258 76.0976C168.532 77.6037 167.517 78.9522 166.271 80.066C165.024 81.1798 163.57 82.0371 161.992 82.5889C160.414 83.1408 158.743 83.3764 157.074 83.2823C155.405 83.1882 153.771 82.7662 152.265 82.0404L144.85 78.467L144.587 78.3401L144.337 78.4916L138.089 82.2785L137.159 75.0322L137.122 74.7424L136.858 74.6155L129.441 71.0406C127.935 70.3148 126.586 69.2995 125.473 68.0526C124.359 66.8057 123.503 65.3517 122.951 63.7736C122.4 62.1955 122.164 60.5242 122.259 58.8552C122.354 57.1861 122.776 55.5521 123.502 54.0463Z" fill="white" stroke="black" stroke-width="1.07754"/>
<path d="M141.478 62.2738L141.474 62.2886L141.47 62.3036C141.254 63.0856 141.145 63.9839 141.128 64.9853C141.109 66.1019 141.999 67.0223 143.115 67.0413L144.557 67.0657C145.482 67.0814 146.245 66.3439 146.261 65.4185C146.271 64.7859 146.35 64.3143 146.468 63.9768L146.471 63.9701L146.473 63.9633C146.584 63.6294 146.806 63.2556 147.184 62.8452C147.579 62.4156 148.172 61.8831 148.98 61.2446L148.981 61.2447L148.989 61.2376C149.933 60.4736 150.754 59.753 151.451 59.0761C152.223 58.3522 152.827 57.5408 153.25 56.6407L153.25 56.6408L153.254 56.6311C153.687 55.6806 153.899 54.5948 153.92 53.3964C153.958 51.1214 153.216 49.2114 151.652 47.7623C150.106 46.307 147.945 45.6199 145.308 45.5751C143.655 45.5471 142.124 45.7222 140.721 46.1114L140.964 46.9853L140.721 46.1114C139.951 46.3253 139.211 46.5747 138.502 46.8602C137.118 47.4179 136.628 48.9989 137.197 50.2572L138.023 49.8839L137.197 50.2572C137.81 51.6157 139.374 52.14 140.68 51.6608C141.09 51.5103 141.505 51.3741 141.924 51.2521L141.934 51.2492L141.945 51.246C142.838 50.9631 143.838 50.8252 144.951 50.8441C146.215 50.8655 147.015 51.1523 147.496 51.564L147.502 51.569L147.508 51.574C147.987 51.97 148.259 52.538 148.244 53.4155C148.233 54.0397 148.125 54.5204 147.954 54.8861L147.949 54.896L147.945 54.9061C147.796 55.2464 147.503 55.6588 147.009 56.1392C146.523 56.6114 145.814 57.2176 144.869 57.9623L144.868 57.9628C144.004 58.6447 143.28 59.3313 142.709 60.0252L142.709 60.0252L142.706 60.0287C142.145 60.7174 141.731 61.4662 141.478 62.2738Z" fill="#491DC5" stroke="#491DC5" stroke-width="1.81374"/>
<circle cx="143.197" cy="72.8551" r="2.78997" transform="rotate(20.5326 143.197 72.8551)" fill="#491DC5" stroke="#491DC5" stroke-width="1.07754"/>
<path d="M92.8531 117.849C95.0736 112.644 105.699 116.881 109.649 118.144C111.732 118.814 117.11 120.585 119.201 121.269L113.534 128.833L103.668 128.324C93.572 124.457 91.0117 122.166 92.8531 117.849Z" fill="white"/>
<path d="M180.102 131.67C181.12 127.211 180.78 122.548 179.125 118.284C177.47 114.019 174.576 110.348 170.816 107.743C173.523 108.255 176.154 108.842 178.65 109.442C184.114 110.783 188.832 114.218 191.787 119.006C194.742 123.794 195.696 129.552 194.445 135.038C193.806 137.827 192.615 140.46 190.943 142.782C189.271 145.104 187.15 147.067 184.707 148.557C182.264 150.046 179.547 151.032 176.717 151.455C173.887 151.878 171.001 151.73 168.229 151.02L161.156 149.204C165.711 148.526 169.955 146.489 173.335 143.361C176.715 140.233 179.073 136.159 180.102 131.67Z" fill="black"/>
<path d="M179.753 131.677C180.812 127.047 180.362 122.199 178.47 117.842C176.578 113.486 173.343 109.848 169.237 107.46C172.507 108.037 175.678 108.752 178.665 109.466C184.129 110.807 188.847 114.242 191.802 119.03C194.757 123.818 195.711 129.576 194.46 135.061C193.821 137.85 192.63 140.484 190.958 142.806C189.285 145.127 187.165 147.091 184.722 148.58C182.279 150.07 179.562 151.055 176.732 151.478C173.902 151.901 171.016 151.754 168.244 151.044L159.941 148.916C164.644 148.512 169.097 146.626 172.658 143.527C176.219 140.429 178.704 136.279 179.753 131.677Z" fill="black"/>
<path d="M71.8709 155.71C71.3485 152.963 73.0135 149.208 76.7354 147.715C76.7354 147.715 69.4566 147.333 69.5047 142.17C69.5761 135.139 76.5857 135.913 76.5857 135.913C74.0153 135.16 72.209 131.656 73.5778 128.932C75.6565 124.781 80.768 124.903 93.1269 128.522C95.3921 127.615 112.942 127.184 116.671 125.545C119.291 124.402 122.953 119.679 124.758 117.458C136.346 103.208 160.375 104.955 178.643 109.466C184.107 110.807 188.826 114.242 191.78 119.03C194.735 123.818 195.69 129.576 194.438 135.062C193.799 137.851 192.609 140.484 190.936 142.806C189.264 145.128 187.144 147.091 184.7 148.581C182.257 150.07 179.54 151.055 176.71 151.479C173.88 151.902 170.994 151.754 168.222 151.044L153.344 147.228C151.041 146.638 148.616 146.73 146.364 147.493C140.551 149.462 128.946 153.347 124.152 154.597C115.693 156.803 95.1148 160.423 89.8471 161.26C83.568 162.26 73.2289 162.838 71.8709 155.71Z" fill="white"/>
<path d="M194.48 136.44C192.881 141.862 189.242 146.451 184.328 149.243C179.413 152.035 173.607 152.811 168.132 151.408L153.254 147.593C151.024 147.021 148.676 147.111 146.496 147.851C140.22 149.976 128.987 153.732 124.252 154.964C115.909 157.138 95.315 160.771 89.9162 161.63C82.2519 162.849 72.8339 162.822 71.4934 155.776C70.9998 153.174 72.3513 149.738 75.4289 147.926C73.2547 147.527 69.0829 146.228 69.1246 142.164C69.1671 139.986 69.8129 138.289 71.1149 137.135C72.2236 136.211 73.5928 135.655 75.032 135.545C74.2315 134.942 73.6006 134.142 73.2007 133.223C72.8785 132.524 72.7143 131.763 72.7196 130.993C72.7249 130.223 72.8998 129.464 73.2316 128.77C74.3476 126.544 76.3362 125.484 79.4883 125.449C82.4327 125.412 86.6358 126.238 93.1101 128.129C94.276 127.744 97.7263 127.463 102.047 127.116C107.537 126.659 114.434 126.108 116.508 125.204C118.829 124.188 122.048 120.203 123.972 117.821L124.456 117.225C137.147 101.625 163.909 105.44 178.738 109.098C184.3 110.465 189.102 113.963 192.109 118.838C195.117 123.712 196.088 129.573 194.814 135.158C194.715 135.575 194.605 136.013 194.48 136.44ZM71.8704 155.708L72.2489 155.635C73.475 162.075 82.4659 162.037 89.7926 160.874C95.1843 160.019 115.742 156.387 124.052 154.245C128.763 153.012 139.976 149.268 146.244 147.146C148.573 146.356 151.082 146.263 153.463 146.88L168.348 150.692C171.068 151.39 173.9 151.536 176.677 151.122C179.454 150.708 182.12 149.742 184.518 148.281C186.916 146.821 188.998 144.895 190.64 142.618C192.282 140.34 193.452 137.757 194.08 135.02C195.282 129.635 194.332 123.993 191.435 119.297C188.537 114.601 183.92 111.223 178.568 109.882C163.923 106.266 137.493 102.477 125.088 117.749L124.605 118.34C122.635 120.78 119.347 124.857 116.855 125.948C114.659 126.905 108.008 127.445 102.145 127.918C98.0662 128.253 94.218 128.572 93.3041 128.929C93.2236 128.963 93.1337 128.969 93.0498 128.944C80.669 125.318 75.8513 125.371 73.9468 129.152C73.6677 129.747 73.5218 130.395 73.5195 131.052C73.5172 131.71 73.6586 132.359 73.9336 132.956C74.1825 133.571 74.5612 134.126 75.044 134.582C75.5267 135.037 76.1021 135.383 76.7308 135.596C76.8231 135.623 76.9021 135.683 76.9522 135.764C77.0023 135.846 77.0198 135.944 77.0012 136.038C76.9826 136.132 76.9293 136.216 76.8519 136.273C76.7744 136.33 76.6785 136.355 76.5831 136.344C76.5831 136.344 73.5946 136.064 71.6535 137.775C70.5283 138.772 69.9522 140.252 69.9258 142.232C69.8749 146.977 76.7464 147.389 76.7951 147.385C76.882 147.391 76.9647 147.425 77.0297 147.483C77.0948 147.541 77.1385 147.619 77.1539 147.705C77.1684 147.791 77.1529 147.88 77.11 147.956C77.0671 148.032 76.9994 148.091 76.9181 148.124C73.385 149.541 71.7935 153.085 72.2854 155.693L71.8704 155.708Z" fill="black"/>
<path d="M178.508 131.033C179.486 126.76 179.231 122.298 177.773 118.164C176.316 114.03 173.715 110.395 170.274 107.681C173.151 108.178 175.962 108.781 178.646 109.448C184.111 110.79 188.829 114.225 191.784 119.013C194.739 123.801 195.693 129.559 194.442 135.044C193.803 137.833 192.612 140.467 190.94 142.789C189.267 145.11 187.147 147.074 184.704 148.563C182.26 150.053 179.544 151.038 176.714 151.461C173.884 151.884 170.998 151.736 168.226 151.027L159.458 148.78C164.044 148.068 168.312 145.996 171.708 142.832C175.105 139.668 177.473 135.558 178.508 131.033Z" fill="black"/>
<path d="M87.703 136.638C87.6784 136.721 87.6265 136.793 87.5559 136.842C87.4852 136.892 87.3999 136.916 87.3137 136.911L76.5653 136.286C76.47 136.271 76.3837 136.221 76.3234 136.145C76.263 136.07 76.2329 135.975 76.2388 135.879C76.2447 135.782 76.2862 135.692 76.3554 135.624C76.4245 135.557 76.5163 135.518 76.6127 135.514L87.3612 136.139C87.4619 136.145 87.556 136.191 87.6231 136.267C87.6902 136.342 87.7248 136.441 87.7194 136.541C87.7199 136.574 87.7143 136.607 87.703 136.638Z" fill="black"/>
<path d="M94.2306 144.316C94.2114 144.384 94.1738 144.445 94.122 144.493C94.0702 144.541 94.0061 144.573 93.937 144.587L76.8096 148.086C76.7602 148.096 76.7094 148.096 76.6601 148.086C76.6107 148.077 76.5638 148.057 76.522 148.029C76.4802 148.001 76.4443 147.965 76.4164 147.923C76.3885 147.881 76.3691 147.834 76.3593 147.785C76.3495 147.736 76.3496 147.685 76.3595 147.635C76.3693 147.586 76.3888 147.539 76.4168 147.498C76.4448 147.456 76.4807 147.42 76.5226 147.392C76.5645 147.364 76.6114 147.345 76.6608 147.335L93.7882 143.835C93.888 143.816 93.9914 143.836 94.0763 143.892C94.1611 143.948 94.2206 144.035 94.242 144.135C94.2521 144.195 94.2482 144.257 94.2306 144.316Z" fill="black"/>
<path d="M131.345 145.153C131.322 145.233 131.273 145.303 131.206 145.352C131.139 145.401 131.057 145.427 130.974 145.425C130.777 145.427 111.507 145.21 105.769 145.357C105.517 145.362 105.254 145.369 104.978 145.375C100.368 145.513 92.6558 145.736 88.9743 142.051C88.2668 141.323 87.721 140.455 87.3725 139.501C87.0241 138.548 86.8809 137.532 86.9523 136.52C86.9642 134.672 87.5532 132.874 88.6369 131.378C89.7206 129.882 91.2449 128.761 92.9966 128.174C93.0441 128.157 93.0946 128.149 93.1451 128.151C93.1956 128.154 93.2451 128.166 93.2908 128.188C93.3364 128.21 93.3773 128.24 93.4111 128.278C93.4449 128.315 93.471 128.359 93.4877 128.407C93.5209 128.503 93.515 128.608 93.4714 128.7C93.4279 128.792 93.35 128.863 93.2546 128.898C91.6367 129.42 90.2273 130.444 89.231 131.822C88.2348 133.199 87.7035 134.858 87.7145 136.559C87.6468 137.466 87.7717 138.377 88.0811 139.233C88.3905 140.089 88.8773 140.869 89.5096 141.523C92.962 144.974 100.471 144.734 104.949 144.623L105.745 144.606C111.495 144.457 130.784 144.673 130.979 144.676C131.08 144.678 131.177 144.72 131.248 144.792C131.319 144.864 131.359 144.961 131.36 145.062L131.345 145.153Z" fill="black"/>
<path d="M37.4445 85.7611C37.3261 85.7601 37.2128 85.7129 37.1287 85.6295L30.9831 79.4837C30.9399 79.4405 30.9056 79.3892 30.8822 79.3328C30.8588 79.2763 30.8467 79.2158 30.8467 79.1547C30.8467 79.0313 30.8958 78.913 30.9831 78.8257C31.0703 78.7385 31.1887 78.6895 31.3121 78.6895C31.4355 78.6895 31.5538 78.7385 31.6411 78.8257L37.7867 84.9781C37.834 85.0188 37.872 85.0693 37.898 85.1261C37.9241 85.1829 37.9375 85.2446 37.9375 85.3071C37.9375 85.3695 37.9241 85.4312 37.898 85.488C37.872 85.5448 37.834 85.5953 37.7867 85.6361C37.7419 85.6801 37.6883 85.714 37.6293 85.7356C37.5703 85.7571 37.5072 85.7658 37.4445 85.7611Z" fill="#020202"/>
<path d="M31.2911 85.762C31.1747 85.7607 31.0636 85.7134 30.9819 85.6304C30.9346 85.5897 30.8966 85.5391 30.8706 85.4824C30.8445 85.4256 30.8311 85.3639 30.8311 85.3014C30.8311 85.239 30.8445 85.1772 30.8706 85.1205C30.8966 85.0637 30.9346 85.0132 30.9819 84.9724L37.1275 78.8201C37.2148 78.7372 37.3314 78.6924 37.4517 78.6955C37.572 78.6985 37.6863 78.7493 37.7691 78.8365C37.852 78.9238 37.8969 79.0404 37.8938 79.1607C37.8907 79.281 37.84 79.3952 37.7528 79.4781L31.607 85.6238C31.5663 85.6669 31.5173 85.7013 31.463 85.7251C31.4088 85.7488 31.3504 85.7614 31.2911 85.762Z" fill="#020202"/>
<path d="M73.5172 49.4386C72.3381 49.4386 71.1855 49.089 70.2052 48.4339C69.2248 47.7789 68.4607 46.8478 68.0095 45.7585C67.5583 44.6692 67.4402 43.4705 67.6702 42.3141C67.9002 41.1577 68.468 40.0955 69.3017 39.2617C70.1354 38.428 71.1977 37.8602 72.3541 37.6302C73.5105 37.4002 74.7092 37.5182 75.7985 37.9694C76.8878 38.4206 77.819 39.1847 78.4741 40.1651C79.1291 41.1454 79.4787 42.2981 79.4787 43.4771C79.4787 45.0582 78.8507 46.5745 77.7327 47.6925C76.6147 48.8105 75.0983 49.4386 73.5172 49.4386ZM73.5172 38.4039C72.5138 38.4039 71.533 38.7015 70.6987 39.2589C69.8644 39.8164 69.2142 40.6087 68.8302 41.5357C68.4462 42.4627 68.3458 43.4828 68.5415 44.4669C68.7373 45.451 69.2203 46.3549 69.9298 47.0644C70.6393 47.7739 71.5434 48.2571 72.5275 48.4528C73.5116 48.6486 74.5316 48.5481 75.4586 48.1641C76.3856 47.7802 77.178 47.1299 77.7354 46.2956C78.2929 45.4614 78.5904 44.4805 78.5904 43.4771C78.5869 42.1333 78.0511 40.8456 77.1002 39.896C76.1494 38.9464 74.861 38.4122 73.5172 38.4105V38.4039Z" fill="#020202"/>
<path d="M50.824 113.488L36.3972 137.39C36.1229 137.857 35.9474 138.375 35.8814 138.912C35.8154 139.449 35.8605 139.995 36.0137 140.514C36.167 141.033 36.4251 141.515 36.7723 141.931C37.1195 142.346 37.5483 142.686 38.0321 142.929C38.5009 143.172 39.0139 143.32 39.5406 143.361C40.0673 143.403 40.5971 143.339 41.0985 143.172C41.5999 143.006 42.0627 142.74 42.4596 142.391C42.8565 142.043 43.1794 141.618 43.4092 141.142L55.2714 115.474L50.824 113.488Z" fill="#020202"/>
<path d="M87.7967 76.213C88.3345 73.7268 88.4451 71.1672 88.1237 68.6438C87.5585 65.134 85.791 63.4792 84.4152 62.7132L80.3617 60.4649C78.9671 59.7278 76.6621 59.1629 73.4807 60.505C71.1696 61.5689 69.0541 63.0142 67.2227 64.7803C62.9966 68.6559 58.6405 74.4442 54.9601 81.0696C51.2797 87.695 48.6681 94.4507 47.6074 100.091C47.0696 102.577 46.959 105.136 47.2804 107.66C47.8456 111.17 49.6131 112.824 50.9941 113.587L51.2295 113.71L54.9365 115.788C56.3161 116.559 58.6526 117.18 61.936 115.805C64.2485 114.748 66.3632 113.304 68.1888 111.534C72.4185 107.663 76.7746 101.875 80.455 95.2497C84.1354 88.6243 86.7412 81.8492 87.7967 76.213Z" fill="#020202"/>
<path d="M52.2151 110.627C56.4535 112.982 65.8005 104.253 73.0921 91.1307C80.3838 78.0083 82.859 65.4613 78.6206 63.1062C74.3822 60.751 65.0352 69.4796 57.7435 82.602C50.4518 95.7244 47.9767 108.271 52.2151 110.627Z" fill="#491DC5"/>
<path d="M50.7905 109.977C47.9609 105.96 50.542 94.5676 57.3082 82.3922C64.8404 68.8409 74.2857 60.2027 78.8159 62.7172C83.346 65.2317 81.0012 77.8254 73.4743 91.373C65.9473 104.921 56.4917 113.566 51.9615 111.052C51.4943 110.788 51.0937 110.42 50.7905 109.977ZM79.2693 64.3596C79.0344 64.0199 78.726 63.7375 78.367 63.5335C74.4267 61.346 65.1569 70.189 58.1194 82.8447C51.7251 94.383 48.978 105.806 51.5022 109.39C51.7335 109.73 52.0413 110.011 52.4009 110.211C56.3396 112.407 65.6058 103.559 72.6433 90.9033C79.0805 79.3816 81.8203 67.9478 79.285 64.3485L79.2693 64.3596Z" fill="#491DC5"/>
<path d="M53.8926 107.602C57.592 109.657 65.7487 102.042 72.1111 90.592C78.4734 79.1421 80.632 68.1937 76.9326 66.138C73.2332 64.0824 65.0767 71.698 58.7144 83.1479C52.352 94.5978 50.1932 105.546 53.8926 107.602Z" fill="white"/>
<path d="M111.759 80.4609C114.509 80.4588 117.199 81.2725 119.486 82.7993C121.774 84.3261 123.558 86.4972 124.612 89.0379C125.665 91.5786 125.941 94.3748 125.405 97.0726C124.869 99.7704 123.545 102.249 121.6 104.193C119.655 106.138 117.177 107.463 114.479 107.999C111.781 108.535 108.985 108.259 106.445 107.205C103.904 106.151 101.733 104.368 100.206 102.08C98.6791 99.792 97.8654 97.1027 97.8675 94.3521H111.759V80.4609Z" fill="#020202"/>
<path d="M107.871 77.5762V91.1826H94.2647C94.2647 87.5739 95.6982 84.1131 98.2499 81.5614C100.802 79.0097 104.263 77.5762 107.871 77.5762Z" fill="#A48EE2"/>
</g>
</svg>
