<svg width="213" height="213" viewBox="0 0 213 213" fill="none" xmlns="http://www.w3.org/2000/svg">
<circle cx="106.5" cy="106.5" r="106.5" fill="#EDE8F9"/>
<path d="M146.632 100.948H66.333C64.7935 100.948 63.4289 99.8873 62.9741 98.3884C62.5192 96.8529 63.079 95.2078 64.3386 94.2938L104.471 65.5955C105.66 64.7546 107.235 64.7546 108.424 65.5955L148.556 94.2938C149.816 95.2078 150.376 96.8529 149.921 98.3884C149.536 99.8873 148.171 100.948 146.632 100.948ZM77.6693 93.6358H135.331L106.5 73.0167L77.6693 93.6358Z" fill="#020202"/>
<path d="M76.4813 137.068C74.5569 137.068 72.9824 135.423 72.9824 133.412V98.6812C72.9824 96.6705 74.5569 95.0254 76.4813 95.0254C78.4057 95.0254 79.9801 96.6705 79.9801 98.6812V133.412C79.9801 135.459 78.4057 137.068 76.4813 137.068Z" fill="#020202"/>
<path d="M136.522 137.068C134.598 137.068 133.023 135.423 133.023 133.412V98.6812C133.023 96.6705 134.598 95.0254 136.522 95.0254C138.447 95.0254 140.021 96.6705 140.021 98.6812V133.412C140.021 135.459 138.482 137.068 136.522 137.068Z" fill="#020202"/>
<path d="M142.153 137.542H70.8465C68.9221 137.542 67.3477 135.897 67.3477 133.886C67.3477 131.876 68.9221 130.23 70.8465 130.23H142.153C144.078 130.23 145.652 131.876 145.652 133.886C145.652 135.897 144.078 137.542 142.153 137.542Z" fill="#020202"/>
<path d="M140.272 148.035H63.4996C61.7676 148.035 60.3506 146.39 60.3506 144.379C60.3506 142.369 61.7676 140.724 63.4996 140.724H140.272C142.004 140.724 143.421 142.369 143.421 144.379C143.421 146.427 142.004 148.035 140.272 148.035Z" fill="#020202"/>
<rect x="102.95" y="102.95" width="7.1" height="24.85" rx="3.55" fill="#020202"/>
<circle cx="134.19" cy="134.19" r="23.075" fill="#491DC5"/>
<path d="M130.111 136.718C130.111 137.238 130.182 137.698 130.324 138.097C130.466 138.495 130.662 138.84 130.912 139.131C131.169 139.422 131.466 139.665 131.804 139.861C132.149 140.05 132.524 140.196 132.93 140.297V134.933L132.433 134.771C131.953 134.635 131.48 134.49 131.014 134.335C130.547 134.172 130.101 133.986 129.675 133.777C129.249 133.56 128.854 133.314 128.489 133.037C128.13 132.753 127.819 132.425 127.556 132.053C127.292 131.681 127.082 131.255 126.927 130.775C126.778 130.289 126.704 129.738 126.704 129.122C126.704 128.507 126.785 127.939 126.947 127.419C127.109 126.898 127.333 126.425 127.616 125.999C127.9 125.573 128.238 125.198 128.631 124.874C129.023 124.542 129.449 124.258 129.908 124.022C130.375 123.785 130.861 123.596 131.368 123.454C131.882 123.305 132.403 123.204 132.93 123.15V121.081H135.506V123.231C136.324 123.352 137.094 123.572 137.818 123.89C138.548 124.201 139.183 124.617 139.724 125.137C140.272 125.658 140.701 126.29 141.012 127.033C141.33 127.777 141.489 128.636 141.489 129.609H137.422C137.402 129.203 137.341 128.849 137.24 128.544C137.138 128.233 137.003 127.966 136.834 127.743C136.672 127.513 136.476 127.324 136.246 127.175C136.023 127.027 135.776 126.905 135.506 126.81V131.516L136.418 131.759C136.655 131.82 136.959 131.901 137.331 132.002C137.71 132.097 138.112 132.235 138.538 132.418C138.964 132.594 139.389 132.817 139.815 133.087C140.248 133.358 140.637 133.699 140.982 134.111C141.333 134.517 141.617 135 141.833 135.562C142.05 136.123 142.158 136.778 142.158 137.529C142.158 138.36 142.012 139.138 141.722 139.861C141.438 140.584 141.015 141.223 140.454 141.778C139.893 142.332 139.197 142.788 138.365 143.147C137.541 143.498 136.587 143.725 135.506 143.826V146.138H132.93V143.826C132.308 143.758 131.703 143.637 131.115 143.461C130.534 143.292 129.986 143.065 129.472 142.781C128.958 142.498 128.489 142.16 128.063 141.767C127.644 141.375 127.282 140.929 126.978 140.429C126.673 139.922 126.437 139.361 126.268 138.746C126.106 138.124 126.028 137.448 126.035 136.718H130.111ZM138.081 137.934C138.081 137.61 138.014 137.326 137.879 137.083C137.75 136.839 137.571 136.626 137.341 136.444C137.111 136.254 136.837 136.092 136.52 135.957C136.209 135.815 135.871 135.687 135.506 135.572V140.338C135.817 140.277 136.124 140.189 136.428 140.074C136.739 139.959 137.017 139.81 137.26 139.628C137.503 139.439 137.699 139.205 137.848 138.928C138.004 138.651 138.081 138.32 138.081 137.934ZM130.77 128.788C130.77 129.045 130.801 129.268 130.861 129.457C130.922 129.64 131.034 129.809 131.196 129.964C131.358 130.113 131.578 130.251 131.855 130.38C132.132 130.508 132.491 130.643 132.93 130.785V126.638C132.653 126.692 132.382 126.773 132.119 126.881C131.862 126.983 131.632 127.121 131.429 127.297C131.233 127.466 131.074 127.676 130.953 127.926C130.831 128.169 130.77 128.456 130.77 128.788Z" fill="white"/>
</svg>
