<svg width="13" height="13" viewBox="0 0 13 13" fill="none" xmlns="http://www.w3.org/2000/svg">
<path d="M12.821 11.2393L10.2898 8.70813C10.1756 8.59389 10.0207 8.53042 9.85822 8.53042H9.44439C10.1451 7.63422 10.5615 6.50698 10.5615 5.28073C10.5615 2.36364 8.19783 0 5.28073 0C2.36364 0 0 2.36364 0 5.28073C0 8.19783 2.36364 10.5615 5.28073 10.5615C6.50698 10.5615 7.63422 10.1451 8.53042 9.44439V9.85822C8.53042 10.0207 8.59389 10.1756 8.70813 10.2898L11.2393 12.821C11.478 13.0597 11.8639 13.0597 12.1 12.821L12.8185 12.1025C13.0571 11.8639 13.0571 11.478 12.821 11.2393ZM5.28073 8.53042C3.48579 8.53042 2.03105 7.07822 2.03105 5.28073C2.03105 3.48579 3.48325 2.03105 5.28073 2.03105C7.07568 2.03105 8.53042 3.48325 8.53042 5.28073C8.53042 7.07568 7.07822 8.53042 5.28073 8.53042Z" fill="#606060"/>
</svg>
