<svg width="100" height="101" viewBox="0 0 100 101" fill="none" xmlns="http://www.w3.org/2000/svg">
<path d="M24.5567 55.545C25.7396 55.545 26.8769 55.0738 27.7869 54.179L49.0346 32.2322L70.2368 54.179C72.0112 56.0158 74.8772 56.0158 76.6516 54.179C78.426 52.3422 78.426 49.3755 76.6516 47.5387L52.2192 22.2477C50.4448 20.4109 47.5789 20.4109 45.8044 22.2477L21.3721 47.5387C19.5976 49.3755 19.5976 52.3422 21.3721 54.179C22.2365 55.0738 23.3738 55.545 24.5567 55.545Z" fill="#491DC5"/>
<path d="M48.9893 80.1292C51.4916 80.1292 53.5391 78.0098 53.5391 75.4195L53.5391 32.3728C53.5391 29.7824 51.4917 27.6631 48.9893 27.6631C46.4869 27.6631 44.4395 29.7824 44.4395 32.3728L44.4395 75.4195C44.4395 78.0569 46.4869 80.1292 48.9893 80.1292Z" fill="#491DC5"/>
</svg>
