<svg width="100" height="101" viewBox="0 0 100 101" fill="none" xmlns="http://www.w3.org/2000/svg">
<path d="M24.5567 45.455C25.7396 45.455 26.8769 45.9262 27.7869 46.821L49.0346 68.7678L70.2368 46.821C72.0112 44.9842 74.8772 44.9842 76.6516 46.821C78.426 48.6578 78.426 51.6245 76.6516 53.4613L52.2192 78.7523C50.4448 80.5891 47.5789 80.5891 45.8044 78.7523L21.3721 53.4613C19.5976 51.6245 19.5976 48.6578 21.3721 46.821C22.2365 45.9262 23.3738 45.455 24.5567 45.455Z" fill="#808080"/>
<path d="M48.9893 20.8708C51.4916 20.8708 53.5391 22.9902 53.5391 25.5805L53.5391 68.6272C53.5391 71.2176 51.4917 73.3369 48.9893 73.3369C46.4869 73.3369 44.4395 71.2176 44.4395 68.6272L44.4395 25.5805C44.4395 22.9431 46.4869 20.8708 48.9893 20.8708Z" fill="#808080"/>
</svg>
