<svg width="900" height="870" viewBox="0 0 900 870" fill="none" xmlns="http://www.w3.org/2000/svg">
<path d="M456.784 325.494C446.007 339.618 435.714 354.223 423.007 366.903C411.909 378.78 398.56 387.929 384.406 396.596C377.489 401.09 370.734 405.263 363.014 408.473C355.133 411.362 347.412 412.485 339.049 412.967C307.685 415.053 272.461 416.979 247.209 395.312C245.6 394.349 245.118 391.941 246.726 390.336C257.02 379.261 270.691 373.162 283.88 366.421C285.489 365.458 286.775 364.816 288.384 364.014C293.37 361.125 298.195 358.236 303.181 355.347C305.272 347.482 306.076 338.815 306.559 331.111C306.076 328.704 305.594 326.617 304.95 324.21C301.573 317.95 300.447 311.049 301.573 304.147C296.587 298.369 292.244 293.393 287.901 286.973C279.698 274.775 274.23 260.17 274.712 245.564C275.195 232.403 280.503 219.723 287.901 208.97C295.3 198.216 304.468 188.907 315.405 182.166C326.181 175.907 337.923 171.894 350.79 172.857C362.692 173.82 374.273 178.635 382.154 187.623C390.035 196.29 393.252 208.167 396.951 218.921C399.042 224.218 400.329 229.996 402.741 234.971C405.636 240.749 410.623 246.046 413.035 252.626C418.021 264.503 416.413 278.948 410.944 290.825C405.958 301.579 396.147 314.259 383.441 315.864C382.475 315.864 381.35 315.864 381.028 314.901C380.063 315.864 379.42 316.987 378.937 318.271C378.937 318.271 378.937 318.753 378.454 318.753C378.937 324.531 379.42 330.63 380.545 336.889C404.993 334.482 429.441 329.506 452.602 321.802C455.819 319.234 458.714 322.444 456.784 325.494Z" fill="white"/>
<path d="M728.126 384.078C708.665 373.806 689.686 363.534 670.063 353.743C654.783 345.879 639.182 338.175 624.063 330.792C608.783 323.408 593.664 315.704 577.58 309.766C562.622 303.988 546.216 299.975 529.81 299.494C514.53 299.012 499.572 301.58 484.936 304.79C479.95 305.914 475.124 307.198 470.138 308.803C466.6 309.766 463.705 310.889 460.327 311.692C460.327 311.852 460.166 311.852 460.166 312.013C415.613 327.742 382.32 332.718 382.32 332.718L384.571 375.892L298.522 351.657L245.927 380.065C245.927 380.065 245.766 380.065 245.766 379.905C243.353 381.51 240.78 382.312 238.367 383.917C237.081 384.559 235.955 385.362 234.668 386.004L210.381 399.165C209.577 399.646 208.773 399.967 207.969 400.449L207.164 400.93C188.989 410.881 171.458 421.635 158.108 437.846C142.506 456.785 133.339 480.218 125.94 503.651C120.954 518.417 117.255 532.862 113.234 547.628C112.751 550.517 111.625 553.406 111.143 556.295C112.429 558.703 114.52 561.271 116.45 563.197C129.157 577.482 145.241 588.235 163.416 594.013C169.206 596.1 175.318 596.902 181.108 598.507C183.199 599.149 184.486 599.631 186.094 600.112C188.507 626.434 192.528 652.275 197.996 677.795C205.073 711.018 205.073 747.613 238.046 765.268C311.389 803.788 419.634 767.354 487.509 730.76C541.873 701.388 554.58 665.436 562.461 606.693C567.447 572.185 575.65 537.356 580.957 502.688C586.748 504.454 592.055 506.54 597.524 508.948C598.167 508.948 598.65 508.948 599.132 508.948C624.384 520.343 650.28 531.097 675.853 542.171C676.497 542.171 676.979 542.653 677.462 542.653C679.231 543.616 681.644 544.739 683.734 545.542C684.217 543.134 685.343 541.048 685.825 538.64C697.728 501.244 709.308 463.847 722.014 426.932C725.392 416.178 728.77 405.906 732.791 395.313C733.756 392.905 734.399 390.819 735.203 388.411C732.63 387.448 730.7 386.485 728.126 384.078Z" fill="#491DC5"/>
<path d="M14.7944 153.116C86.5293 146.054 153.921 156.005 178.691 161.943C186.089 165.635 183.838 208.489 183.838 221.81C183.838 235.132 182.39 239.626 174.992 246.206C169.04 251.503 162.607 248.453 160.194 246.206L165.341 282.48C158.747 277.183 142.823 259.047 135.746 250.7C103.578 249.737 36.5079 247.49 25.2491 246.206C11.0951 244.762 6.75241 218.761 5.30485 201.748C3.69645 184.895 9.64754 161.943 14.7944 153.116Z" fill="white"/>
<path d="M175.958 634.3C174.35 642.967 170.168 650.35 164.7 657.252C159.392 663.511 152.797 669.931 147.007 675.709C140.734 681.969 134.301 687.907 126.902 693.364C119.503 698.661 111.301 702.674 102.454 705.563C93.769 708.452 84.2794 711.822 74.9507 713.427C58.8666 715.835 43.2651 709.415 30.8804 699.303C18.174 689.031 5.46761 673.944 4.50257 657.412C4.02005 647.622 6.11098 637.831 7.3977 628.683C9.0061 618.892 10.2928 609.101 12.3838 599.471C15.7614 579.89 19.7824 560.47 25.0901 540.889C25.0901 540.407 25.0901 540.407 25.5727 540.407C26.5377 534.148 27.1811 527.727 28.4678 521.468C31.8454 503.01 37.7965 484.874 46.6428 468.342C54.8456 453.094 66.2653 439.612 81.2234 431.266C91.9998 425.007 104.706 421.476 116.93 419.389C117.413 419.871 117.895 420.352 118.538 421.476C127.867 418.587 137.518 417.463 146.525 422.439C155.853 427.414 162.126 436.563 166.63 446.353C169.042 451.329 171.937 457.107 172.42 462.885C172.902 468.182 170.812 473.157 167.916 477.009C162.93 483.911 155.21 487.763 147.329 490.652C147.811 492.738 148.937 494.022 149.42 495.948C155.21 514.085 160.679 532.061 164.7 550.519C169.203 568.976 172.581 587.915 174.993 607.175C176.602 615.842 177.567 625.633 175.958 634.3Z" fill="white"/>
<path d="M208.772 632.854C205.394 637.83 201.373 642.645 197.513 646.978C181.911 665.436 163.254 681.486 142.345 694.647C120.953 707.808 95.8617 719.685 69.9664 718.883C56.7775 718.401 44.5536 714.389 33.2948 707.006C23.001 700.746 13.1897 692.24 7.39948 681.647C-5.30691 659.176 1.60922 631.891 5.79108 608.458C11.5813 579.728 16.5674 550.838 23.001 522.59C25.8961 508.947 29.2738 495.144 33.7773 482.625C37.7983 470.427 43.5886 458.711 52.2739 448.92C73.344 425.968 106.155 413.289 137.519 416.178C139.932 416.178 142.827 416.659 145.401 417.141C143.792 419.227 142.505 421.635 140.897 423.4C138.484 422.919 135.589 422.919 133.016 422.919C118.862 422.437 104.225 425.005 91.0365 430.302C80.7427 434.796 70.9314 440.574 62.5677 448.439C53.8824 456.624 47.2879 466.575 42.9452 477.65C37.9592 489.527 35.064 501.885 32.1689 514.244C29.2738 527.405 26.3786 540.566 23.966 553.727C21.5534 566.888 18.6583 580.531 16.0849 593.692C13.6723 605.89 11.0988 617.928 9.16872 630.768C7.0778 641.842 6.2736 654.201 8.6862 665.275C11.0988 676.35 17.3716 685.82 26.3786 693.524C35.064 701.388 46.0012 707.648 57.7425 710.697C69.9664 713.586 82.1903 712.784 93.9316 709.734C116.449 703.956 138.002 691.598 156.499 677.634C174.674 663.991 190.275 647.941 203.464 629.163C205.877 624.99 211.345 629.484 208.772 632.854Z" fill="black"/>
<path d="M892.665 536.716C889.288 548.915 880.763 559.187 871.273 567.051C853.098 582.299 828.168 590.966 804.685 587.114C798.895 586.151 792.783 584.225 786.993 581.817C786.028 581.336 784.902 580.854 784.098 580.854C782.007 580.373 779.594 579.249 777.825 578.447C773.804 576.842 769.944 576.039 765.923 575.076C755.629 572.669 746.3 568.817 737.937 563.199C732.629 561.594 727.16 560.792 722.335 558.705C710.433 554.693 699.817 548.433 689.524 541.05C680.195 534.148 671.027 526.926 663.628 517.617C656.712 508.95 652.37 497.554 653.817 485.998C655.426 473.319 661.698 460.639 667.489 449.404C673.279 437.527 679.712 426.452 686.468 415.699C689.845 410.402 693.866 404.945 697.727 399.649C701.104 395.155 704.643 391.463 709.629 388.895C715.419 386.006 721.853 387.932 727.804 389.858C733.594 391.945 739.706 394.352 745.496 396.76C757.398 402.056 768.014 408.958 778.308 416.341C779.273 417.304 779.916 418.427 779.916 419.23C780.881 419.711 782.007 419.711 782.811 420.193C785.706 421.798 787.315 423.563 788.119 426.452C789.727 429.341 791.014 430.946 793.909 431.749C797.287 432.712 801.308 433.354 804.685 433.835C820.287 436.243 836.049 437.848 850.686 443.144C861.462 447.157 871.756 452.935 879.155 461.602C887.357 471.393 890.413 484.072 891.861 496.912C894.595 510.394 896.043 524.197 892.665 536.716Z" fill="white"/>
<path d="M888.642 510.394C883.335 529.975 867.572 547.79 846.18 548.914C833.957 549.395 822.215 545.543 811.921 539.123C801.628 533.345 791.334 525.962 785.544 515.69C779.753 505.418 778.145 493.22 777.662 481.503C777.18 467.861 776.697 454.058 776.697 440.415L775.732 406.228C775.25 392.586 774.767 379.906 774.767 366.745C774.767 366.264 774.285 366.264 774.285 365.782C768.977 357.918 763.509 350.214 758.683 341.868C757.718 341.386 757.075 340.905 757.075 339.46C757.075 338.979 757.075 338.497 756.592 337.855C755.627 335.769 754.501 333.842 753.697 332.077C752.732 330.472 753.215 329.188 754.18 328.064C753.215 325.175 752.571 321.805 752.089 318.755C749.194 306.076 749.998 294.52 755.467 282.161C760.453 271.087 767.369 261.136 773.963 250.863L786.67 232.727C790.047 227.751 793.586 222.455 797.928 217.961C802.432 213.948 807.74 212.183 813.208 211.059C818.998 210.096 825.432 209.454 830.901 210.578C841.677 212.664 848.111 220.85 851.488 230.64C855.509 242.517 855.992 254.555 857.279 266.753C860.174 294.199 867.09 324.373 870.95 351.658C874.971 379.104 875.453 403.821 881.726 431.267C887.838 458.07 896.524 485.195 888.642 510.394Z" fill="white"/>
<path d="M778.629 420.675C776.217 419.07 773.643 418.267 771.713 416.662C763.832 412.168 756.112 407.995 748.23 403.501C742.923 400.612 737.937 397.723 732.629 395.316C733.594 392.908 734.237 390.822 735.042 388.414C747.265 395.316 759.489 402.057 771.713 408.958C774.126 410.563 776.699 411.366 778.629 412.971C778.308 415.378 778.629 418.267 778.629 420.675Z" fill="black"/>
<path d="M786.025 385.038C782.648 381.025 779.109 376.852 775.731 372.84C772.836 368.827 769.941 364.975 767.046 360.963C760.13 351.654 753.857 342.505 748.549 332.714C743.242 323.405 737.773 314.257 733.27 304.466C731.179 299.491 729.249 294.676 728.766 289.379C728.284 283.601 728.766 278.305 727.801 272.206C726.836 267.712 733.591 266.909 734.717 271.243C735.682 276.539 735.2 281.996 735.682 287.293C736.165 292.589 738.095 297.565 740.186 302.861C744.689 312.652 749.515 321.319 754.983 330.788C757.396 334.801 759.969 338.974 762.864 342.987C766.242 348.283 770.263 353.74 774.123 358.555C779.913 366.42 786.025 373.803 792.298 381.025C794.872 384.075 788.92 388.248 786.025 385.038Z" fill="black"/>
<path d="M823.663 91.166C822.698 156.971 821.572 254.716 816.747 275.1C810.474 301.904 808.866 325.979 761.096 330.633C713.648 335.127 586.906 330.152 547.339 330.152C507.773 330.152 501.982 320.361 501.982 276.384C501.982 271.409 501.982 264.507 501.982 256.803C507.773 248.938 514.206 242.037 522.087 236.74C528.36 232.728 535.276 230.481 542.675 229.839C550.878 229.357 559.885 231.444 568.088 232.246C576.291 233.209 584.172 234.333 592.536 232.246C599.934 230.641 606.69 227.752 612.641 223.579C625.83 215.394 636.123 203.035 645.452 190.837C655.263 178.158 665.075 164.996 678.264 155.527C691.452 146.218 707.054 141.403 723.138 140.761C740.348 140.279 757.719 143.65 774.124 136.267C787.313 130.489 797.125 119.093 806.292 108.34C812.404 103.043 817.873 96.623 823.663 91.166Z" fill="#A48EE2"/>
<path d="M824.144 41.4094C824.144 50.7184 823.662 64.8425 823.662 81.3741C823.662 84.2631 823.662 87.1521 823.662 90.6832C817.871 96.4612 812.403 102.56 807.095 108.82C797.766 119.573 788.116 130.648 774.927 136.747C758.843 144.13 741.151 141.241 723.941 141.241C707.857 141.722 692.255 146.538 679.066 156.007C665.877 165.316 656.066 178.477 646.255 191.317C636.926 203.515 626.632 215.553 613.443 224.06C607.171 228.072 600.737 230.961 593.338 232.727C585.457 234.813 577.254 233.69 568.891 232.727C560.688 231.122 551.681 229.838 543.478 230.319C536.079 230.801 528.68 233.208 522.89 237.221C515.009 242.517 508.736 249.419 502.785 257.283C502.785 253.913 502.785 250.382 502.785 246.53C503.75 183.613 507.289 67.4105 507.289 42.6934C507.289 39.8043 507.289 37.3968 507.771 34.5078C546.373 34.5078 584.492 34.5078 623.094 34.9893L824.305 35.3103C824.144 37.0758 824.144 39.4833 824.144 41.4094Z" fill="white"/>
<path d="M823.662 83.9414C823.662 86.8304 823.662 89.7194 823.662 93.2505C817.872 99.0285 812.403 105.128 807.095 111.387C797.766 121.98 788.116 133.215 774.927 139.154C758.843 146.537 741.151 143.648 723.941 143.648C707.857 144.129 692.255 148.944 679.066 158.414C665.877 167.723 656.066 180.884 646.255 193.724C636.926 205.922 626.632 217.96 613.443 226.466C607.171 230.479 600.737 233.368 593.338 235.133C585.457 237.22 577.254 236.096 568.891 235.133C560.688 233.528 551.681 232.244 543.478 232.726C536.079 233.207 528.68 235.615 522.89 239.627C515.009 244.924 508.736 251.825 502.785 259.69C502.785 256.319 502.785 252.788 502.785 248.936C509.701 241.072 516.939 234.17 526.75 229.997C542.834 222.614 558.918 227.911 575.646 229.516C583.527 230.479 591.247 229.997 599.129 227.108C606.527 224.219 612.8 220.207 618.108 215.231C630.332 204.959 639.178 191.798 649.472 179.6C659.765 166.92 670.863 155.364 685.178 147.981C699.976 140.117 716.06 137.709 732.626 138.191C741.312 138.672 750.801 139.154 759.487 137.709C767.368 136.746 774.284 133.697 780.557 129.524C792.78 121.338 801.627 108.98 811.438 98.226C814.976 92.127 819.158 88.2749 823.662 83.9414Z" fill="black"/>
<path d="M824.146 34.506L622.774 34.0245C584.172 34.0245 546.053 34.0245 507.451 33.543C507.451 35.9505 506.968 38.8395 506.968 41.7285C506.968 66.7667 503.591 182.648 502.465 245.565C502.465 249.577 502.465 252.948 502.465 256.318C502.465 264.183 502.465 271.084 502.465 275.899C502.465 319.877 507.773 329.667 547.822 329.667C575.326 329.667 643.683 332.075 699.333 332.075C724.425 332.075 746.781 331.593 761.418 329.988C808.866 325.494 810.796 301.74 817.069 274.455C822.055 253.911 822.859 156.487 823.985 90.5208C823.985 87.6318 823.985 84.2613 823.985 81.2118C823.985 64.6802 824.467 50.3956 824.467 41.247C824.146 39.4815 824.146 37.074 824.146 34.506ZM817.39 41.4075C817.39 50.7166 816.908 63.8777 816.908 81.3723C816.908 82.9773 816.908 84.2613 816.908 86.3478C816.908 87.9528 816.908 89.2368 816.908 90.8418C816.425 143.486 814.817 252.787 810.635 273.331C810.153 275.418 809.67 277.344 809.027 279.109C803.719 303.345 800.341 319.716 760.453 323.568C747.264 325.173 727.159 325.655 698.69 325.655C665.879 325.655 628.725 324.692 598.487 324.05C577.095 323.568 558.92 323.087 547.018 323.087C528.521 323.087 519.031 320.679 514.85 315.222C509.542 308.963 508.577 295.16 508.577 276.22C508.577 271.245 508.577 265.146 508.577 256.639C508.577 253.75 508.577 250.861 508.577 247.972V245.886C509.059 217.156 510.185 178.154 510.989 140.437C511.954 96.9409 513.08 55.5316 513.08 41.889C513.08 41.4075 513.08 40.926 513.08 40.284C530.29 40.284 547.339 40.284 564.549 40.284C583.528 40.284 603.151 40.284 622.291 40.284L817.39 41.4075Z" fill="black"/>
<path d="M866.767 346.362C866.285 356.152 866.767 365.943 859.851 373.808C849.557 385.685 833.956 399.167 817.389 390.981C802.109 383.117 795.515 365.141 792.941 349.572C790.046 331.435 791.976 312.978 791.976 295.002C791.976 286.335 791.011 276.865 789.081 268.198C786.669 258.889 782.809 250.543 777.179 242.839C771.871 234.974 765.277 227.752 763.025 218.603C760.934 211.702 762.06 203.837 767.046 198.541C766.081 196.133 764.955 194.046 764.151 192.281C762.06 188.91 761.256 184.898 761.256 180.404C761.256 176.391 762.864 172.539 765.759 170.132C766.242 169.65 766.724 169.169 767.85 169.169C767.368 164.193 769.459 159.378 773.158 156.489C779.431 151.995 787.955 153.119 794.228 156.008C801.627 160.02 808.382 165.798 814.333 171.576C817.228 174.465 820.123 177.354 823.019 180.885L822.536 177.996L819.641 162.428C818.676 157.452 817.228 152.156 816.746 146.859C816.263 142.847 817.228 138.995 821.249 137.55C825.27 136.587 829.452 138.513 832.508 140.921C848.11 151.674 848.592 174.144 850.201 191.157C852.292 212.183 853.096 233.048 855.508 254.074C856.473 264.346 857.921 275.099 859.529 285.372C861.138 295.644 863.55 305.916 865.32 316.669C866.124 325.497 866.767 335.608 866.767 346.362Z" fill="white"/>
<path d="M808.867 389.055C808.384 390.66 806.454 391.944 804.846 391.944C802.755 391.944 802.433 390.981 801.468 389.536C796.965 381.351 793.587 371.881 790.692 363.214C785.706 345.077 784.902 326.62 788.279 308.162C787.797 303.187 787.797 297.89 787.314 293.396C785.223 274.939 779.433 256.802 770.104 241.233C765.601 233.85 759.81 226.467 756.915 218.282C754.503 211.38 752.894 200.627 759.81 195.33C766.083 190.836 775.412 192.441 781.685 196.293C788.601 200.306 793.909 206.565 798.251 213.467C808.063 229.035 814.335 246.69 817.23 264.827C817.713 269.321 810.958 270.124 810.314 265.79C807.419 247.653 800.986 229.677 790.692 214.43C786.671 209.133 782.006 203.355 775.412 200.787C772.517 199.824 768.496 198.701 765.601 199.824C761.58 200.787 761.097 204.8 761.097 208.491C761.58 216.356 766.083 223.257 770.426 229.517C774.929 236.418 778.629 243.159 782.328 250.542C791.013 270.605 795.517 293.557 794.23 315.064C794.23 315.545 794.23 316.669 794.23 317.15C793.748 322.928 793.265 328.225 793.265 334.324C793.265 340.102 794.23 346.201 795.356 351.979C796.965 359.362 798.734 366.745 801.629 373.807C803.237 377.178 804.524 380.709 806.615 384.079C807.58 385.363 809.51 387.45 808.867 389.055Z" fill="black"/>
<path d="M832.996 250.224C828.01 230.161 822.22 210.259 811.604 192.283C806.297 183.616 799.38 175.751 791.499 169.331C783.618 163.553 771.394 159.541 763.03 166.924C754.345 174.788 757.24 187.468 760.135 197.259C761.744 201.753 768.017 198.864 766.408 194.37C764.317 188.11 761.1 177.196 767.373 171.899C775.254 165.64 785.066 172.381 790.856 177.677C804.045 189.554 811.926 205.605 817.716 221.655C821.094 230.964 823.506 240.594 825.919 250.384C827.045 255.681 833.961 254.718 832.996 250.224Z" fill="black"/>
<path d="M835.565 228.395C832.67 220.53 829.775 212.826 826.237 204.962C825.272 202.875 824.628 200.949 823.824 199.184C822.216 195.813 820.929 192.282 819.321 188.912C817.23 184.418 814.817 179.602 811.922 175.75C806.936 168.367 801.146 162.108 793.425 157.614C788.922 155.206 783.614 153.601 778.628 155.206C775.25 156.169 771.712 159.219 771.229 163.071C770.747 167.565 763.831 166.441 764.313 162.108C765.922 152.799 774.124 147.342 782.81 147.342C791.013 147.342 799.376 152.317 805.81 157.614C809.188 160.503 812.726 164.515 815.139 168.367C817.23 170.775 819.16 173.664 820.446 176.553C822.537 179.442 823.824 182.813 825.433 186.344C831.705 199.023 836.209 212.666 841.517 225.345C843.768 229.679 837.335 232.889 835.565 228.395Z" fill="black"/>
<path d="M348.701 310.247C349.183 308.16 351.114 306.876 353.204 307.358C373.31 313.617 397.757 309.765 409.499 290.826C415.289 281.517 416.415 270.763 413.52 260.491C411.911 255.195 410.142 249.738 407.729 244.923C405.317 239.947 401.457 235.614 399.848 230.799C398.883 227.428 398.883 224.539 397.757 221.008C397.275 218.119 396.149 215.23 394.862 212.823C391.967 207.045 387.946 202.069 382.96 198.056C379.582 195.167 383.925 189.871 387.946 192.76C397.275 200.624 403.548 211.218 405.638 223.095C406.121 226.465 406.603 229.354 408.534 232.404C410.624 235.293 411.911 238.182 413.841 241.071C416.736 246.367 419.149 251.824 420.757 258.244C423.653 269.319 423.17 282.159 417.862 292.431C412.555 302.222 403.708 310.086 393.415 314.259C380.708 319.556 365.428 319.556 352.239 315.222C349.666 313.778 348.379 312.333 348.701 310.247Z" fill="black"/>
<path d="M378.139 221.011C378.621 216.036 379.747 210.739 383.125 206.887C386.503 203.517 391.81 201.591 396.796 204.48C398.405 205.443 399.209 207.369 398.887 209.455C397.922 211.06 395.992 212.344 393.901 211.542C391.489 209.937 388.915 211.542 388.111 213.628C386.02 216.517 386.02 221.011 386.02 224.382C386.02 228.394 386.503 232.246 388.915 235.456C391.328 238.345 394.223 240.753 397.601 243.321C401.622 246.21 396.636 251.507 392.615 248.617C388.594 245.728 384.412 242.358 381.517 237.543C378.139 232.246 377.656 226.468 378.139 221.011Z" fill="black"/>
<path d="M350.631 232.568C350.631 230.963 351.113 229.198 352.722 228.074C353.687 227.593 355.134 227.111 356.743 227.111C358.351 227.593 359.155 228.074 360.12 229.519C360.603 230 361.085 231.124 361.085 231.926C361.085 232.408 361.085 232.408 361.085 232.889C362.051 234.494 362.694 235.778 362.694 237.865C362.694 239.47 362.211 240.754 360.603 241.235C358.995 241.717 357.708 241.717 356.582 240.754C354.974 239.791 354.169 238.346 353.204 237.383C352.722 236.902 352.239 236.42 352.239 235.778C351.757 235.136 350.631 234.173 350.631 232.568Z" fill="black"/>
<path d="M384.248 227.912C384.248 226.307 384.731 224.542 386.339 223.418C387.304 222.937 388.752 222.455 390.36 222.455C391.968 222.937 392.773 223.418 393.738 224.863C394.22 225.344 394.703 226.468 394.703 227.27C394.703 227.752 394.703 227.752 394.703 228.233C395.668 229.838 396.311 231.122 396.311 233.209C396.311 234.814 395.829 236.098 394.22 236.579C392.612 237.061 391.325 237.061 390.199 236.098C388.591 235.135 387.787 233.69 386.822 232.727C386.339 232.246 385.856 231.764 385.856 231.122C385.374 230.48 384.248 229.357 384.248 227.912Z" fill="black"/>
<path d="M325.705 224.38C327.796 216.194 335.516 212.182 343.397 210.256C350.313 208.651 358.195 208.169 363.985 213.145C367.363 216.034 363.02 221.812 358.999 218.441C355.621 215.552 350.313 216.034 345.81 216.836C340.824 217.799 334.712 219.725 333.104 225.022C332.621 227.109 331.013 228.393 328.6 227.911C326.67 228.393 325.222 226.467 325.705 224.38Z" fill="black"/>
<path d="M383.443 261.618C387.464 260.655 391.324 260.013 395.345 261.618C396.31 262.1 397.436 262.1 397.757 263.223C398.24 263.705 398.722 265.31 398.24 265.631C398.24 266.594 397.757 267.717 396.632 268.038C395.666 268.52 394.541 269.001 394.219 268.52C392.61 268.038 391.806 268.038 390.198 268.038C389.233 268.038 387.785 268.038 386.82 268.52C386.338 268.52 386.338 268.52 385.855 268.52C384.89 269.001 383.764 269.001 382.96 268.52C382.156 268.038 381.352 267.557 380.869 266.433C381.03 264.507 382.156 262.1 383.443 261.618Z" fill="black"/>
<path d="M351.756 177.031C352.239 174.945 354.169 173.661 356.26 174.142C369.931 178.155 382.155 184.896 392.449 195.168C394.057 196.773 394.54 198.538 392.931 200.143C391.966 201.748 388.91 202.23 387.945 200.625C378.617 191.958 367.358 185.056 355.134 181.686C352.56 180.402 351.274 179.118 351.756 177.031Z" fill="black"/>
<path d="M386.824 192.763C384.411 195.652 379.908 192.763 380.551 189.874C379.586 189.393 378.943 188.269 378.139 187.788C378.139 187.788 377.656 187.788 377.656 187.306C377.173 186.825 376.691 186.825 376.691 186.825C376.208 186.343 375.083 185.862 374.6 185.862C373.635 185.38 372.509 184.899 371.705 184.257C371.222 184.738 370.096 184.738 369.292 184.738C358.998 183.775 348.705 184.738 338.893 186.343C333.907 187.306 329.082 188.43 324.739 189.714C322.327 190.677 319.753 191.319 317.341 192.121C315.25 193.084 315.25 194.208 314.928 196.615C314.446 199.023 313.963 201.591 313.32 203.998C312.837 206.406 311.229 209.295 312.355 211.863C312.837 213.949 314.446 215.234 315.732 216.839C317.341 218.444 318.145 220.209 318.628 222.135C320.236 225.506 320.718 230 320.236 234.012C320.236 236.099 319.753 238.025 318.628 240.272C317.662 241.877 315.732 244.766 316.215 245.568C316.215 245.568 316.215 246.05 316.697 246.05C316.215 246.05 315.732 246.531 315.732 246.531C311.229 242.037 304.956 239.63 299.166 240.753C285.012 242.84 278.578 261.297 284.369 272.853C290.159 285.051 305.76 289.385 317.662 283.125C317.662 283.607 317.662 283.607 317.662 284.088C318.145 298.213 319.271 312.337 320.558 326.461C321.04 328.868 318.467 330.955 316.054 330.473C312.676 329.51 308.655 329.51 305.278 330.473C302.383 331.436 299.97 328.387 300.774 325.498C302.383 321.004 297.879 316.831 294.501 314.744C289.998 312.337 285.173 310.25 280.83 307.843C272.627 302.867 264.746 295.965 258.312 288.903C245.123 272.853 238.69 251.507 241.102 230.321C242.067 220.049 245.123 209.776 250.431 201.109C256.221 192.442 265.229 185.541 273.431 179.281C290.641 166.602 310.586 156.33 331.495 152.959C337.285 151.996 343.719 151.354 349.67 151.996C352.565 151.996 355.46 152.478 358.998 152.478C362.376 152.478 363.985 150.391 366.397 147.984C370.418 144.613 375.726 145.095 379.586 148.465C382.964 151.354 384.09 155.848 384.09 159.54L389.88 158.577C391.488 158.095 393.257 159.54 393.901 160.984C396.635 172.701 394.223 184.417 386.824 192.763Z" fill="black"/>
<path d="M318.787 283.444C308.976 288.42 295.787 284.407 289.997 274.777C287.102 269.48 286.619 263.702 287.584 257.603C288.549 252.307 292.57 245.405 297.878 243.479C304.794 241.072 312.675 246.368 315.088 252.788C316.696 257.282 323.291 254.393 321.361 249.899C318.465 242.035 310.584 236.738 302.381 236.257C293.053 235.775 286.297 242.516 282.759 250.381C275.843 265.147 281.794 283.123 296.913 289.864C304.794 293.235 313.479 293.877 321.361 289.864C325.703 287.938 322.808 281.518 318.787 283.444Z" fill="black"/>
<path d="M320.395 259.21C314.605 257.605 309.297 256.803 303.185 255.198C301.094 254.716 299.164 256.803 299.164 258.087C299.164 260.173 300.129 261.457 302.059 262.099C307.849 263.704 313.157 264.507 319.269 266.112C321.36 266.593 323.29 264.507 323.29 263.223C323.773 260.976 322.325 259.692 320.395 259.21Z" fill="black"/>
<path d="M262.008 198.54C261.043 196.133 259.917 193.565 259.112 191.639C258.63 190.676 258.147 189.231 257.504 188.268C257.022 187.305 256.539 185.861 255.413 184.898C254.448 183.293 253.001 182.49 251.392 182.49C249.301 182.49 248.014 182.972 246.889 184.577C245.28 186.984 245.924 189.552 246.889 191.96C245.924 191.478 245.28 191.478 244.476 190.997C241.581 190.034 238.686 193.083 239.972 195.491C242.385 200.787 247.854 203.355 253.161 204.8C254.77 205.281 256.539 204.8 257.665 203.195C258.63 203.676 259.273 203.676 260.078 203.195C261.525 202.553 262.651 200.466 262.008 198.54Z" fill="black"/>
<path d="M116.929 563.194C108.244 602.677 102.132 642.803 100.845 682.767C100.845 687.261 93.4463 686.78 93.9289 681.804C95.5373 649.704 99.2366 617.764 105.188 586.146C107.279 575.874 109.209 566.083 111.46 556.453C112.908 558.7 114.838 561.108 116.929 563.194Z" fill="black"/>
<path d="M773.804 487.601C772.196 476.847 771.713 466.254 771.713 455.5C771.231 442.821 771.713 429.66 771.231 416.98C771.231 414.573 771.231 411.684 771.231 409.116C770.748 393.065 770.266 377.497 767.21 361.768C766.245 355.508 766.245 352.459 764.314 346.199L765.279 347.162C768.657 352.459 769.783 353.422 773.482 359.039C774.447 363.533 775.091 367.706 775.573 372.682C775.573 373.163 775.573 373.163 775.573 373.645C777.182 386.806 777.664 399.967 777.986 413.61C777.986 416.017 777.986 418.906 777.986 421.474C777.986 443.302 777.986 465.451 780.398 487.28C781.685 490.971 774.287 492.255 773.804 487.601Z" fill="black"/>
<path d="M898.615 491.773C897.007 481.02 895.238 470.748 893.308 460.957C883.979 413.609 875.615 365.78 869.342 318.432C868.86 313.938 868.377 309.765 867.251 305.753C863.23 274.936 859.37 243.799 856.475 212.983C854.867 198.217 853.58 183.29 850.202 169.006C848.594 162.104 846.825 155.363 843.93 148.943C841.517 143.647 838.622 137.868 833.636 134.819C828.65 131.93 822.859 131.448 818.034 134.337C811.761 138.35 811.761 144.61 813.048 150.869L816.426 169.006L820.447 189.068C822.055 192.439 823.342 195.97 824.95 199.34C825.915 201.427 826.559 203.353 827.363 205.118C828.971 204.637 830.258 203.513 829.776 201.106C828.811 196.13 827.685 191.315 826.88 186.34C824.789 176.549 823.503 166.759 821.573 157.61C821.09 154.24 819.964 150.709 819.482 147.338C818.999 144.931 818.517 142.363 820.447 140.437C823.824 137.547 828.65 138.35 832.349 141.4C836.852 145.412 838.622 151.672 840.23 156.968C842.643 163.228 844.251 170.129 845.538 177.031C848.433 190.673 849.559 204.958 850.846 218.922C856.636 277.504 864.517 335.606 874.328 393.065C879.314 421.795 885.587 451.006 889.93 480.538C893.951 505.897 897.329 535.108 880.601 557.097C868.699 572.666 848.916 581.012 829.615 582.938C805.649 585.345 781.845 577.962 759.167 569.295C734.719 559.505 710.271 548.27 685.823 537.998C685.341 540.405 684.215 542.492 683.732 544.899C707.215 555.171 730.215 565.443 754.181 575.234C777.181 584.543 801.95 592.407 827.524 590.321C848.111 588.716 868.699 580.53 882.692 565.283C900.545 545.06 901.832 518.095 898.615 491.773Z" fill="black"/>
<path d="M96.3422 509.913C114.035 509.913 350.792 506.543 377.17 506.543C403.547 506.543 428.638 508.95 427.513 566.57C427.03 610.548 429.925 678.279 427.513 707.49C425.422 727.553 429.925 749.863 395.827 749.863C361.568 749.863 149.259 749.863 117.412 749.863C85.7267 749.863 65.9434 752.27 65.9434 720.17C65.9434 675.39 66.9084 570.262 66.9084 543.94C67.5518 516.815 78.6498 509.913 96.3422 509.913Z" fill="black"/>
<path d="M211.341 509.91C208.928 517.775 203.46 525.961 195.257 528.047C190.271 529.01 185.928 526.442 183.354 522.751C177.564 527.726 170.648 530.936 162.767 526.763C161.802 526.282 161.158 525.158 161.158 524.356C160.676 524.356 159.55 523.874 159.068 523.874C156.172 527.245 152.151 529.652 147.165 530.134C143.788 530.134 140.249 529.171 137.837 527.245C135.424 532.22 130.92 536.554 124.648 535.109C116.767 533.504 115.319 524.035 112.746 516.973C108.242 504.293 101.487 488.724 88.2978 483.267C87.3327 484.23 85.4026 485.354 83.7942 483.749C82.8292 483.267 81.7033 482.144 81.3816 481.341C79.2907 480.86 78.969 478.452 79.2907 476.847C78.8082 471.069 83.3117 464.168 87.1719 459.674C94.088 452.291 101.969 446.031 110.172 440.093C124.326 429.821 143.466 421.153 161.963 425.968C170.166 428.376 175.152 430.944 181.585 436.722C187.858 442.982 193.809 450.365 198.795 458.069C208.446 473.316 216.648 491.774 211.341 509.91Z" fill="white"/>
<path d="M128.511 535.274C152.958 537.361 354.974 533.188 371.058 533.188C387.624 533.188 410.142 537.682 410.142 562.88C410.142 588.239 407.729 699.627 409.177 710.702C411.268 721.776 403.387 733.172 382.799 733.172C362.694 733.172 118.056 729.801 105.993 729.801C93.9298 729.801 87.0137 721.937 87.0137 696.096C87.0137 670.255 90.3913 568.337 89.4263 555.176C89.4263 542.176 104.224 533.348 128.511 535.274Z" fill="#A48EE2"/>
<path d="M318.789 634.302C318.307 633.339 317.181 632.215 316.377 632.215C308.978 630.129 302.223 624.832 299.81 617.449C296.915 608.14 309.621 597.868 306.083 592.09C304.474 589.201 307.048 585.831 303.188 581.337C294.985 572.67 281.313 569.139 273.432 578.929C272.95 579.411 272.95 579.892 272.467 579.892L271.985 580.374C271.02 580.855 270.376 581.979 269.572 582.46L268.607 582.942C268.124 582.942 267.642 583.423 266.999 583.423C266.033 583.905 265.39 583.905 264.586 584.386C262.495 584.868 261.208 584.868 259.278 584.386C258.313 583.905 256.383 583.423 254.775 582.3C253.166 581.337 252.362 580.213 250.754 578.287C245.446 570.904 251.719 562.719 239.495 565.126L218.425 569.62C211.026 571.225 213.117 577.806 213.921 583.263C215.53 590.646 216.816 595.942 211.509 602.844C206.523 608.622 197.837 611.511 190.438 609.103C180.627 606.214 178.215 633.018 177.25 638.315C176.284 643.611 195.746 648.105 198.641 654.365C200.732 659.34 200.732 664.637 198.159 669.131C192.851 679.884 201.054 681.008 207.97 686.304C209.578 687.267 212.956 691.601 214.243 692.082C221.159 694.49 225.019 688.07 230.809 686.786C243.033 683.415 244.963 702.836 252.201 699.465C252.684 699.465 253.166 699.465 253.81 699.465C262.012 697.379 269.894 694.971 278.257 693.206C280.67 692.724 282.761 690.798 282.278 688.23C282.761 687.749 283.887 687.749 284.369 687.267C286.46 685.662 286.782 682.773 285.334 681.008C284.852 680.526 284.369 680.045 284.369 679.403C283.887 678.921 283.887 678.44 283.887 678.44C283.887 677.958 283.404 677.477 283.404 676.835C283.404 676.353 283.404 675.872 282.922 675.23C282.922 674.748 282.922 674.748 282.922 674.267V673.304C282.922 672.822 282.922 672.341 282.922 672.341C282.922 671.859 282.922 671.378 283.404 670.736C283.404 670.254 283.887 669.773 283.887 669.131C283.887 668.649 284.369 668.168 284.852 667.044C284.852 666.563 285.334 666.563 285.334 666.081C285.817 665.6 286.299 665.118 286.943 664.476C287.425 663.995 287.425 663.995 287.908 663.513C287.908 663.513 288.39 663.032 288.873 663.032C289.838 662.55 290.481 662.069 290.964 662.069C291.929 661.587 294.341 661.587 295.467 661.587C296.432 661.587 297.88 661.587 298.845 662.069C300.453 662.069 300.453 662.55 301.258 662.55C303.67 663.032 305.761 664.155 307.53 664.958C309.621 665.921 312.516 664.476 313.321 662.55C313.321 662.069 313.321 661.587 313.321 661.587C314.286 661.106 315.411 660.624 315.733 659.18C318.146 652.278 320.719 645.537 322.649 638.636C322.328 637.673 321.202 635.265 318.789 634.302ZM254.935 649.55C248.019 651.636 241.264 649.55 237.243 644.574C233.222 639.599 232.739 632.697 235.635 627.4L236.117 626.919C236.6 625.956 237.082 625.314 237.726 624.511C238.208 624.03 238.208 624.03 239.334 622.906C240.942 621.943 241.747 621.301 243.837 620.82C246.733 619.857 250.11 619.857 253.166 620.338C259.439 621.301 267.32 626.116 267.964 633.5C268.446 637.512 266.355 641.364 263.46 644.253C261.208 646.661 258.152 648.426 254.935 649.55Z" fill="#EDE8F9"/>
<path d="M87.0192 758.363C102.621 756.277 412.721 760.771 422.532 760.771C432.344 760.771 434.434 763.178 466.12 776.339C498.288 789.5 538.177 814.539 553.778 820.317C569.38 826.576 551.687 858.837 536.086 863.331C520.484 867.825 202.02 871.195 191.726 869.59C160.362 865.096 90.8793 799.291 80.103 787.574C69.4876 776.821 71.2568 759.647 87.0192 758.363Z" fill="black"/>
<path d="M134.302 481.184C127.386 468.986 117.736 459.356 105.512 452.454C101.491 450.047 97.3092 455.825 101.008 457.751C120.631 468.825 135.589 489.851 136.715 512.321C137.198 517.618 136.233 523.075 133.337 527.408C130.925 531.902 125.135 536.075 120.631 531.421C117.253 527.408 116.61 521.149 115.323 516.173C113.232 509.914 111.302 503.975 108.407 498.037C102.617 486.962 90.7147 475.566 77.0433 479.579C72.5397 481.184 75.4349 487.444 79.9384 485.839C85.7287 483.752 92.1623 487.925 96.0224 492.098C101.008 497.074 103.904 503.975 105.834 510.235C108.246 516.494 109.211 522.914 111.141 529.174C113.232 534.149 116.449 538.964 121.918 539.927C128.191 541.532 134.624 537.038 138.002 532.063C141.379 527.087 142.988 521.309 142.988 515.531C144.596 503.654 140.897 491.296 134.302 481.184Z" fill="black"/>
<path d="M149.585 463.044C143.795 454.859 136.396 447.476 128.997 440.574C125.62 437.685 121.599 442.982 124.494 445.871C138.648 458.069 150.872 473.317 156.662 491.132C159.075 499.318 161.648 509.59 159.075 517.936C158.11 521.948 155.697 525.319 151.676 526.603C148.781 527.566 144.76 527.566 142.347 524.998C139.452 521.627 134.144 525.961 137.039 529.492C142.025 535.27 150.228 535.751 156.662 532.381C164.061 528.368 166.956 519.701 167.438 511.837C167.76 494.663 159.879 477.329 149.585 463.044Z" fill="black"/>
<path d="M190.272 502.527C189.307 485.354 183.999 468.341 174.188 454.056C168.88 446.191 161.482 438.969 153.118 433.993C149.097 431.586 145.237 437.364 148.615 439.29C164.216 449.562 174.992 465.612 179.978 483.749C182.391 492.416 183.999 502.688 182.874 511.676C182.391 516.17 180.783 520.985 177.083 523.874C174.188 526.281 169.685 527.244 166.307 524.837C162.286 522.429 158.426 527.726 161.803 530.133C168.72 535.109 177.888 532.541 183.195 527.244C190.272 520.985 190.755 511.515 190.272 502.527Z" fill="black"/>
<path d="M210.863 519.699C205.877 529.49 193.653 536.873 182.877 530.774C178.856 528.688 181.268 522.107 185.289 524.514C189.793 526.922 194.618 526.119 198.478 522.909C207.164 517.131 208.772 503.97 208.289 494.18C207.807 483.908 205.394 474.117 200.408 465.45C191.079 447.314 174.995 433.35 155.534 426.448C150.548 424.843 145.722 423.559 140.254 423.078C141.862 420.991 143.149 418.584 144.757 416.818C157.946 419.226 170.17 424.201 181.429 432.387C199.122 445.548 211.185 465.611 214.723 486.957C216.653 497.55 216.171 509.909 210.863 519.699Z" fill="black"/>
<path d="M122.722 772.33C133.981 769.441 406.444 770.243 413.843 770.243C420.759 770.243 484.291 798.491 486.221 799.936C488.312 802.022 182.394 809.726 171.617 804.911C161.002 799.775 111.624 775.379 122.722 772.33Z" fill="white"/>
<path d="M308.008 814.383C319.911 812.778 386.338 813.42 390.68 813.42C394.701 813.42 428.317 823.21 426.387 826.099C424.296 828.988 338.729 831.075 334.064 828.507C329.078 826.099 299.323 815.827 308.008 814.383Z" fill="white"/>
<path d="M106.634 789.502C104.222 787.897 101.648 786.132 99.7181 784.206C98.7531 783.243 97.6272 782.119 96.3405 781.317C95.8579 780.835 95.3754 780.354 95.3754 780.354C94.8929 779.872 94.4104 779.391 93.767 778.749C92.1586 777.144 90.3894 776.662 88.781 778.267C87.1725 779.23 86.69 781.638 88.2984 783.243C92.802 788.218 96.9838 791.91 102.452 795.441C104.061 796.404 106.473 796.404 107.438 794.959C107.921 792.873 107.921 790.465 106.634 789.502Z" fill="white"/>
<path d="M141.217 817.272C141.217 816.309 140.734 815.186 140.252 814.865C139.769 814.383 139.769 814.383 139.287 813.902C138.804 813.902 138.804 813.42 138.322 813.42C137.839 813.42 137.839 812.939 137.357 812.939C136.874 812.939 136.392 812.939 136.392 812.457C134.783 812.457 134.301 812.457 133.979 812.939C133.497 813.42 133.014 813.42 133.014 813.42C132.532 813.902 132.532 813.902 132.049 814.383C131.567 815.346 131.084 816.47 131.084 817.272C131.084 817.754 131.084 818.235 131.084 818.877C131.084 819.359 131.084 819.84 131.567 820.482C131.567 820.964 132.049 821.445 132.532 821.445C133.014 821.927 133.497 822.408 134.622 823.05C135.105 823.05 135.588 823.05 135.588 823.532C136.07 823.532 136.553 823.532 136.553 823.532C137.035 823.532 137.518 823.532 138.161 823.05C138.161 823.05 138.643 823.05 138.643 822.569L139.126 822.087C139.609 821.606 139.609 821.606 140.091 821.124C140.574 820.643 140.574 820.161 141.056 819.519C141.539 819.038 141.056 818.556 141.539 818.556C141.217 818.396 141.217 817.914 141.217 817.272Z" fill="white"/>
<path d="M156.985 830.593C156.985 830.112 156.985 829.63 156.985 828.988V828.507C156.985 827.544 156.502 826.42 156.02 826.099C155.055 825.136 153.929 824.494 152.642 824.494C152.16 824.494 151.677 824.976 151.034 824.976C150.551 824.976 150.069 825.457 149.425 825.939C149.425 826.42 148.943 826.42 148.943 826.902C148.943 827.383 148.46 827.865 148.943 828.988C148.943 829.951 148.943 831.396 148.943 832.359C148.943 832.84 149.425 833.322 149.425 833.964C149.908 834.445 150.391 834.927 151.034 834.927C151.516 834.927 151.999 835.408 153.125 834.927C153.607 834.927 154.09 834.445 154.733 834.445C155.698 833.964 156.342 832.84 156.824 832.359C156.824 832.359 157.307 831.877 157.307 831.396C156.502 831.556 156.985 831.075 156.985 830.593Z" fill="white"/>
<path d="M138.326 250.702C139.934 249.739 141.704 249.739 142.829 251.183C148.137 259.369 154.732 267.233 161.809 274.135C159.718 266.27 157.788 258.085 156.501 250.22C156.018 248.134 158.109 246.85 159.396 246.85C161.487 246.85 162.774 247.813 162.774 249.739C165.186 260.492 167.76 271.567 170.655 282.481C171.137 285.37 167.277 286.975 165.347 285.37C154.088 277.184 144.76 266.912 137.361 255.035C136.878 253.751 136.878 251.825 138.326 250.702Z" fill="black"/>
<path d="M7.40005 163.872C9.49098 156.971 11.4211 149.748 19.3022 147.822C23.3233 146.859 27.1834 146.859 31.2044 146.859C35.708 146.859 39.8898 146.859 44.3933 146.859C62.5683 146.859 80.0999 147.341 98.2749 148.464C116.45 149.427 133.981 151.353 152.156 153.44C156.66 153.921 160.842 154.403 165.345 155.526C169.366 156.008 173.227 156.489 176.604 157.613C179.982 158.576 182.394 160.983 184.003 163.872C185.611 167.243 185.611 171.256 185.611 174.947C186.094 184.256 186.094 193.084 186.576 202.393C187.059 210.578 187.541 219.566 187.059 227.752C187.059 234.653 185.45 242.518 180.786 247.815C176.765 252.309 170.492 255.198 164.702 254.074C161.807 253.593 159.394 252.469 157.303 250.704C154.408 247.815 158.268 242.839 161.324 245.407C165.345 248.778 170.653 247.815 174.513 244.926C179.821 240.913 180.786 233.851 180.786 227.27C181.269 219.887 180.303 212.183 180.303 204.8C180.303 196.615 179.821 188.269 179.821 180.565C179.821 177.194 179.821 173.182 179.338 169.811C178.856 166.441 176.926 164.514 173.548 163.551C166.15 161.465 158.268 161.144 151.031 160.181C134.947 158.094 119.345 156.81 103.261 155.687C87.1769 154.724 70.4495 153.6 54.3655 153.6C46.4843 153.6 38.2814 153.6 30.4002 153.6C27.5051 153.6 23.4841 153.119 20.589 154.563C17.6938 155.847 16.0854 159.057 14.9596 161.946C10.1343 175.91 8.68678 190.676 9.65182 205.442C10.1343 212.825 11.7427 220.69 13.6728 227.27C15.2812 233.048 17.0505 240.913 23.9666 242.839C27.9876 243.802 32.1695 243.802 36.673 243.802C41.1765 243.802 46.0018 244.283 50.3444 244.283C59.6732 244.765 68.8411 244.765 78.3307 245.247C96.8273 245.728 115.485 246.852 133.981 247.333C138.485 247.333 137.359 254.235 133.016 253.593C114.841 253.111 96.3448 251.988 78.1698 251.506C68.8411 251.025 59.9949 251.025 50.6661 250.543C46.1626 250.543 41.3374 250.062 36.9947 250.062C32.9737 250.062 28.7918 250.062 24.7708 249.58C16.8896 247.975 12.5469 242.678 9.9735 235.456C7.56089 227.591 5.46997 219.887 4.18325 212.023C2.09232 196.133 2.89652 179.602 7.40005 163.872Z" fill="black"/>
<path d="M824.15 34.5087L622.778 34.0272C584.176 34.0272 546.057 34.0272 507.455 33.5457C507.455 31.1381 507.938 29.0516 508.42 27.2861C511.476 8.50751 522.252 1.60596 544.448 0.642959C570.826 -0.962051 765.121 1.60596 788.926 1.60596C809.031 1.60596 821.094 8.50751 824.311 29.0516C823.667 30.3356 823.667 32.5827 824.15 34.5087Z" fill="black"/>
<path d="M748.229 18.4565C748.229 17.975 748.229 16.8514 747.746 16.3699C747.746 15.8884 747.263 15.4069 746.781 14.7649C746.781 14.7649 746.781 14.2834 746.298 14.2834C745.816 13.8019 745.816 13.8019 745.333 13.3204C744.851 12.8389 744.368 12.8389 744.368 12.8389H743.886C743.403 12.8389 742.921 12.8389 742.277 12.3574C741.795 12.3574 741.312 12.3574 740.669 12.3574C740.187 12.3574 739.061 12.3574 738.578 12.8389C738.096 12.8389 737.613 13.3204 736.97 13.8019C737.131 14.4439 737.131 14.4439 736.648 14.9254L736.005 15.5674C735.522 16.0489 735.522 17.1725 735.04 17.654C734.557 19.259 734.557 20.543 735.522 21.6665C735.522 22.148 736.005 22.6295 736.487 23.2715C736.97 23.753 736.97 23.753 737.452 24.2345C737.452 24.2345 737.935 24.716 738.417 24.716C738.9 25.1975 740.026 25.1975 740.508 25.1975C740.991 25.1975 741.473 25.1975 742.599 25.1975C743.564 25.1975 745.012 24.716 745.977 24.2345C746.459 23.753 746.942 23.2715 747.585 23.2715C748.068 22.79 748.068 22.3085 748.55 21.6665C748.55 21.185 749.033 20.7035 749.033 20.0615V19.4195C748.229 19.4195 748.229 18.938 748.229 18.4565Z" fill="#5833FF"/>
<path d="M777.177 18.4574C777.177 17.4944 776.694 16.3709 776.211 15.5684C775.729 15.0869 775.729 14.6054 775.246 14.6054C774.764 14.1239 774.281 14.1239 773.638 13.6424C772.673 13.1609 771.547 13.1609 770.743 13.6424C769.778 13.6424 769.134 13.6424 768.33 14.1239C767.848 14.1239 766.722 14.6054 766.239 15.0869C765.274 16.0499 764.148 17.1734 763.827 18.4574C763.344 19.4204 763.344 20.0624 763.827 20.8649C764.309 21.8279 764.792 22.4699 765.918 22.9514H766.4C766.883 23.9144 768.009 25.0379 769.295 25.359C770.904 25.8405 772.19 25.8405 773.799 25.359C775.407 24.8774 776.694 23.2724 777.177 21.9884C777.177 20.5439 777.177 19.4204 777.177 18.4574Z" fill="#5833FF"/>
<path d="M802.596 18.9407C802.596 18.4592 802.596 17.9777 802.113 17.9777C801.631 17.0147 801.631 16.3727 801.148 15.8912C800.183 14.9282 799.057 13.8047 797.77 13.8047C796.162 13.8047 794.875 14.2862 793.749 14.7677C793.267 15.2492 792.784 15.7307 792.141 16.3727C791.658 16.8542 791.658 17.3357 791.176 18.4592C790.693 19.4222 790.693 20.0642 790.693 20.8667C790.693 21.8297 791.176 22.4717 791.658 23.2742C792.141 23.7557 792.141 23.7557 792.623 24.2373C793.106 24.2373 793.588 24.7188 793.588 24.7188C794.071 24.7188 794.554 25.2003 794.554 25.2003C795.036 25.2003 795.519 25.2003 795.519 25.6818C796.001 25.6818 796.484 25.6818 797.609 25.6818C798.575 25.6818 799.218 25.2003 800.022 24.7188C800.505 24.2373 800.987 23.7557 801.63 22.6322C802.113 21.6692 802.113 21.6692 802.113 21.0272C802.596 20.0642 802.596 19.4222 802.596 18.9407Z" fill="#5833FF"/>
<path d="M615.213 90.8458C589.318 90.3643 562.94 90.3643 536.884 89.8828C532.38 89.8828 531.898 96.1424 535.919 96.1424C561.814 96.6239 588.192 96.6239 614.248 97.1054C618.591 97.4264 619.717 90.8458 615.213 90.8458Z" fill="black"/>
<path d="M651.079 90.8398H636.925C635.96 90.8398 635.317 90.8398 634.513 91.3214C634.03 91.8029 633.548 92.9264 632.904 93.7289C632.904 95.3339 633.869 97.0994 635.799 97.0994H649.953C650.918 97.0994 651.562 97.0994 652.366 96.6179C652.849 96.1364 653.331 95.0129 653.974 94.2104C653.974 92.7659 653.009 90.8398 651.079 90.8398Z" fill="black"/>
<path d="M649.475 112.672H540.425C535.921 112.672 535.439 118.931 539.46 118.931H648.51C653.013 119.573 653.496 112.672 649.475 112.672Z" fill="black"/>
<path d="M76.7204 222.615C66.9091 216.355 57.0978 209.454 47.4474 202.071C55.6503 196.774 64.014 191.799 72.5385 186.502C74.1469 185.539 74.1469 183.132 73.0211 182.008C72.056 180.403 70.1259 180.403 68.5175 181.527L39.7271 199.663C37.6362 200.626 38.1187 203.676 39.7271 204.96C50.5034 213.145 61.1189 221.01 73.0211 228.393C76.7204 229.677 80.7414 224.862 76.7204 222.615Z" fill="black"/>
<path d="M107.922 172.695C100.523 190.831 92.6422 209.289 85.4044 227.265C83.796 231.278 89.9079 233.525 91.1947 229.673C98.5933 211.536 106.474 193.078 113.712 175.102C115.803 170.769 110.013 168.843 107.922 172.695Z" fill="black"/>
<path d="M154.569 201.431C143.792 193.246 133.177 185.381 122.4 177.196C119.023 174.788 115.002 179.603 118.379 182.492C127.708 189.875 137.359 196.616 146.848 203.839C137.037 210.099 127.226 216.519 117.575 222.778C114.198 225.186 118.058 230.161 121.596 228.075C132.373 220.692 143.471 213.951 154.408 206.728C156.499 205.444 156.016 202.555 154.569 201.431Z" fill="black"/>
<path d="M298.199 351.812L362.375 449.397L384.249 376.048L298.199 351.812Z" fill="#C8BBED"/>
<path d="M384.248 376.05L416.094 404.458L384.248 336.566V376.05Z" fill="#C8BBED"/>
<path d="M384.248 376.049C384.248 376.049 455.822 557.415 487.025 730.756" stroke="black" stroke-width="2.27398" stroke-miterlimit="10"/>
<path d="M423.818 439.769C428.082 439.769 431.538 436.32 431.538 432.065C431.538 427.811 428.082 424.361 423.818 424.361C419.554 424.361 416.098 427.811 416.098 432.065C416.098 436.32 419.554 439.769 423.818 439.769Z" fill="#C8BBED"/>
<path d="M459.685 536.713C463.949 536.713 467.406 533.264 467.406 529.009C467.406 524.754 463.949 521.305 459.685 521.305C455.421 521.305 451.965 524.754 451.965 529.009C451.965 533.264 455.421 536.713 459.685 536.713Z" fill="#C8BBED"/>
<path d="M486.22 623.543C490.484 623.543 493.941 620.094 493.941 615.839C493.941 611.584 490.484 608.135 486.22 608.135C481.956 608.135 478.5 611.584 478.5 615.839C478.5 620.094 481.956 623.543 486.22 623.543Z" fill="#C8BBED"/>
<path d="M865.156 696.41C865.156 732.041 863.548 734.93 812.883 736.375C759.002 737.98 599.126 734.77 554.252 734.77C509.699 734.77 503.265 728.51 503.265 699.459C503.265 693.2 503.748 670.73 503.748 670.73L450.992 681.804L505.839 618.406C505.839 618.406 507.93 576.034 508.251 555.972C508.251 553.564 508.251 550.996 508.251 549.07C508.251 547.465 508.251 546.662 508.251 546.181C508.251 526.6 520.154 519.859 549.909 518.735C579.665 517.772 797.442 519.217 824.303 519.217C851.163 519.217 865.478 525.476 864.352 545.539C864.352 546.502 864.352 547.626 864.352 548.428C864.352 550.515 864.352 552.922 864.352 555.33C864.835 594.331 865.156 679.236 865.156 696.41Z" fill="white"/>
<path d="M600.573 521.63C673.916 521.63 801.623 522.593 821.728 522.593C848.106 522.593 861.777 528.853 861.295 548.434C861.295 549.397 861.295 550.52 861.295 551.323C861.295 553.409 861.295 555.817 861.295 558.224C860.812 595.3 861.295 678.6 861.295 695.453C861.295 729.96 859.687 733.652 809.826 734.454C800.015 734.454 786.826 734.936 771.546 734.936C703.511 734.936 592.048 732.849 556.181 732.849C512.593 732.849 506.32 726.59 506.32 698.342C506.32 692.082 506.803 670.414 506.803 670.414L455.012 681.489L508.894 619.054C508.894 619.054 510.985 577.645 511.306 557.422C511.306 555.014 511.306 552.446 511.306 551.162C511.306 549.557 511.306 549.076 511.306 548.273C511.306 529.334 523.208 522.433 551.999 521.951C560.041 521.63 577.733 521.63 600.573 521.63ZM600.573 514.729C574.677 514.729 558.915 514.728 552.803 515.21C528.355 515.692 505.355 520.507 505.355 548.434C505.355 548.915 505.355 549.397 505.355 550.52V551.002C505.355 553.088 505.355 555.014 505.355 557.261C504.873 574.435 503.264 607.017 502.943 616.326L450.669 676.835L437.48 692.082L457.103 687.588L500.691 678.279C500.691 685.181 500.208 694.329 500.208 697.86C500.208 710.54 501.173 723.219 511.467 731.084C519.348 736.862 531.572 738.948 556.824 738.948C572.104 738.948 599.929 739.43 633.062 739.911C677.615 740.393 732.301 741.516 771.868 741.516C787.952 741.516 801.141 741.516 810.148 741.035C837.651 740.553 850.197 738.948 858.722 732.849C868.05 725.466 868.05 712.787 868.05 695.453C868.05 690.959 868.05 681.81 868.05 670.093C868.05 638.475 867.568 585.83 868.05 558.385C868.05 555.977 868.05 553.891 868.05 552.125C868.05 551.644 868.05 551.162 868.05 550.52C868.05 550.039 868.05 549.557 868.05 548.915C868.533 539.606 865.959 532.384 860.652 527.087C853.253 519.704 841.672 516.334 822.05 516.334C815.134 516.334 795.19 516.334 770.259 516.334C721.525 515.21 648.503 514.729 600.573 514.729Z" fill="black"/>
<path d="M861.459 547.946C861.459 548.909 861.459 550.033 861.459 550.835H511.953C511.953 549.872 511.953 548.749 511.953 547.946C511.953 529.007 523.855 522.106 552.646 521.624C581.919 520.661 795.193 522.105 821.088 522.105C847.627 522.105 861.942 528.365 861.459 547.946Z" fill="#020202"/>
<path d="M549.263 666.401C549.263 669.771 546.851 673.784 543.473 674.586C540.096 675.549 536.075 674.586 533.662 672.179C532.054 670.574 531.571 668.808 532.054 666.882C532.054 666.401 532.054 665.277 532.536 664.796C532.536 664.314 532.536 663.19 532.536 662.709C533.501 660.622 534.949 659.338 537.04 658.215C538.648 657.252 541.061 657.252 542.347 657.252C543.312 657.252 543.956 657.733 544.76 657.733C545.242 657.733 545.725 658.215 546.368 658.696C546.851 659.178 547.333 659.659 547.977 660.783C548.942 662.709 549.263 664.635 549.263 666.401Z" fill="black"/>
<path d="M534.15 588.399C532.541 586.794 532.059 584.386 532.059 582.621C532.059 581.658 532.541 580.534 532.541 579.732C533.024 578.769 533.506 577.645 534.632 576.842L535.115 576.361L535.597 575.879C537.688 574.274 539.618 573.793 541.387 573.793C542.996 573.793 544.765 574.274 546.373 575.879C547.982 577.484 548.786 578.769 549.269 581.176C549.751 584.547 548.303 589.041 545.248 590.485C543.157 591.448 541.227 592.572 538.975 592.09C537.527 591.448 535.436 590.325 534.15 588.399Z" fill="black"/>
<path d="M546.853 619.211C549.266 621.618 549.748 625.47 548.944 629.001C548.462 630.606 546.853 631.89 545.566 633.014C543.476 633.977 542.189 634.619 540.259 634.619C536.881 634.619 533.343 632.532 532.056 629.322C531.091 626.915 531.091 624.347 532.056 621.939C533.021 619.853 534.468 617.927 536.559 616.964C538.168 616.001 539.937 615.359 541.867 616.001C543.958 616.643 545.245 617.766 546.853 619.211Z" fill="black"/>
<path d="M696.919 579.244C656.227 582.615 615.695 584.22 574.681 582.615C570.177 582.615 569.695 588.874 573.716 588.874C614.891 590.479 656.388 589.356 697.563 585.504C702.388 585.504 701.423 579.244 696.919 579.244Z" fill="black"/>
<path d="M831.06 578.768C795.675 580.373 760.612 580.373 725.388 578.768C720.884 578.768 720.402 585.027 724.423 585.027C760.129 586.632 795.675 586.632 832.025 585.027C835.885 585.027 835.563 578.768 831.06 578.768Z" fill="black"/>
<path d="M824.466 622.098C759.487 625.468 693.864 627.073 628.884 626.11C610.388 625.629 592.213 625.147 573.716 624.505C569.212 624.505 568.73 630.765 572.751 630.765C638.213 633.172 704.479 633.172 770.424 630.765C788.92 630.283 807.095 629.16 825.592 628.357C829.452 628.518 828.487 622.098 824.466 622.098Z" fill="black"/>
<path d="M642.72 668.484C620.845 666.398 598.649 666.077 576.775 666.879C572.272 666.879 573.398 673.781 577.74 673.139C599.132 672.176 620.845 673.139 642.398 674.744C646.097 675.386 647.062 668.966 642.72 668.484Z" fill="black"/>
<path d="M831.057 663.512C789.077 665.919 746.616 668.006 703.832 668.808C691.608 668.808 679.384 669.29 667.16 669.29C663.139 669.29 662.174 675.549 666.195 675.549C709.301 675.068 751.763 673.944 794.707 672.179C806.931 671.697 819.155 670.574 831.379 670.092C836.365 670.092 835.56 663.512 831.057 663.512Z" fill="black"/>
<path d="M299.178 358.599L361.937 452.968L381.71 381.763L416.958 409.215L381.71 341.441" stroke="black" stroke-width="3.78997"/>
<path d="M381.357 310.889C379.266 310.889 377.336 311.852 377.336 313.778V358.236C377.336 360.323 378.301 361.607 380.231 362.249C382.322 362.249 384.252 361.286 384.252 359.36V314.901C384.252 312.654 383.448 310.889 381.357 310.889Z" fill="black"/>
<path d="M307.206 325.014C307.206 333.681 306.724 343.151 305.598 351.818C305.598 353.423 305.116 354.707 305.116 356.312C304.633 356.793 304.633 356.793 304.151 356.793C301.738 358.398 299.647 359.201 297.234 360.806C297.717 357.917 298.199 355.028 298.843 352.139C300.451 342.83 300.934 334.002 300.934 324.693C300.934 322.607 303.025 321.323 304.955 321.804C306.081 321.644 307.206 322.928 307.206 325.014Z" fill="black"/>
<path d="M305.112 351.818C305.112 353.423 304.629 354.707 304.629 356.312C304.147 356.794 304.147 356.794 303.664 356.794C301.252 358.399 299.161 359.201 296.748 360.806C281.951 368.671 267.475 376.856 252.678 384.721C250.265 383.758 247.692 382.313 245.279 380.708C262.972 370.918 280.664 361.769 298.035 351.979C299 351.497 300.126 351.016 300.93 350.374C303.182 349.25 304.79 350.374 305.112 351.818Z" fill="black"/>
<path d="M459.683 312.336C457.592 315.225 455.662 318.595 453.892 321.645C430.41 329.028 407.41 336.732 382.962 339.782C378.458 340.263 377.654 333.522 381.997 332.88C408.857 329.51 434.431 320.04 459.683 312.336Z" fill="black"/>
<path d="M318.789 634.302C318.307 633.339 317.181 632.215 316.377 632.215C308.978 630.129 302.223 624.832 299.81 617.449C296.915 608.14 309.621 597.868 306.083 592.09C304.474 589.201 307.048 585.831 303.188 581.337C294.985 572.67 281.313 569.139 273.432 578.929C272.95 579.411 272.95 579.892 272.467 579.892L271.985 580.374C271.02 580.855 270.376 581.979 269.572 582.46L268.607 582.942C268.124 582.942 267.642 583.423 266.999 583.423C266.033 583.905 265.39 583.905 264.586 584.386C262.495 584.868 261.208 584.868 259.278 584.386C258.313 583.905 256.383 583.423 254.775 582.3C253.166 581.337 252.362 580.213 250.754 578.287C245.446 570.904 251.719 562.719 239.495 565.126L218.425 569.62C211.026 571.225 213.117 577.806 213.921 583.263C215.53 590.646 216.816 595.942 211.509 602.844C206.523 608.622 197.837 611.511 190.438 609.103C180.627 606.214 178.215 633.018 177.25 638.315C176.284 643.611 195.746 648.105 198.641 654.365C200.732 659.34 200.732 664.637 198.159 669.131C192.851 679.884 201.054 681.008 207.97 686.304C209.578 687.267 212.956 691.601 214.243 692.082C221.159 694.49 225.019 688.07 230.809 686.786C243.033 683.415 244.963 702.836 252.201 699.465C252.684 699.465 253.166 699.465 253.81 699.465C262.012 697.379 269.894 694.971 278.257 693.206C280.67 692.724 282.761 690.798 282.278 688.23C282.761 687.749 283.887 687.749 284.369 687.267C286.46 685.662 286.782 682.773 285.334 681.008C284.852 680.526 284.369 680.045 284.369 679.403C283.887 678.921 283.887 678.44 283.887 678.44C283.887 677.958 283.404 677.477 283.404 676.835C283.404 676.353 283.404 675.872 282.922 675.23C282.922 674.748 282.922 674.748 282.922 674.267V673.304C282.922 672.822 282.922 672.341 282.922 672.341C282.922 671.859 282.922 671.378 283.404 670.736C283.404 670.254 283.887 669.773 283.887 669.131C283.887 668.649 284.369 668.168 284.852 667.044C284.852 666.563 285.334 666.563 285.334 666.081C285.817 665.6 286.299 665.118 286.943 664.476C287.425 663.995 287.425 663.995 287.908 663.513C287.908 663.513 288.39 663.032 288.873 663.032C289.838 662.55 290.481 662.069 290.964 662.069C291.929 661.587 294.341 661.587 295.467 661.587C296.432 661.587 297.88 661.587 298.845 662.069C300.453 662.069 300.453 662.55 301.258 662.55C303.67 663.032 305.761 664.155 307.53 664.958C309.621 665.921 312.516 664.476 313.321 662.55C313.321 662.069 313.321 661.587 313.321 661.587C314.286 661.106 315.411 660.624 315.733 659.18C318.146 652.278 320.719 645.537 322.649 638.636C322.328 637.673 321.202 635.265 318.789 634.302ZM254.935 649.55C248.019 651.636 241.264 649.55 237.243 644.574C233.222 639.599 232.739 632.697 235.635 627.4L236.117 626.919C236.6 625.956 237.082 625.314 237.726 624.511C238.208 624.03 238.208 624.03 239.334 622.906C240.942 621.943 241.747 621.301 243.837 620.82C246.733 619.857 250.11 619.857 253.166 620.338C259.439 621.301 267.32 626.116 267.964 633.5C268.446 637.512 266.355 641.364 263.46 644.253C261.208 646.661 258.152 648.426 254.935 649.55Z" stroke="black" stroke-width="3.03198" stroke-miterlimit="10"/>
</svg>
