<svg width="468" height="468" viewBox="0 0 468 468" fill="none" xmlns="http://www.w3.org/2000/svg">
<circle cx="234" cy="234" r="233" fill="#EDEDF8" stroke="#491DC5" stroke-width="2"/>
<path d="M256.514 315.377H143.556C138.905 315.377 135.13 312.147 134.779 308.052L132.322 275.289C131.357 262.688 141.889 248.669 155.756 244.022C184.369 234.807 215.878 234.886 244.315 244.022C258.27 248.669 268.802 262.688 267.836 275.289L265.379 307.974C264.94 312.148 261.166 315.377 256.514 315.377ZM151.719 299.625H248.352L250.283 274.266C250.634 269.225 245.455 261.191 238.259 258.828C213.771 250.953 186.387 250.953 161.724 258.828C154.703 261.191 149.437 269.146 149.788 274.266L151.719 299.625Z" fill="#491DC5"/>
<path d="M200.784 228.292C179.719 228.292 162.692 211.283 162.692 190.45C162.692 169.54 179.807 152.607 200.784 152.607C221.76 152.607 238.875 169.618 238.875 190.45C238.875 211.283 221.76 228.292 200.784 228.292ZM200.784 168.134C189.461 168.134 180.246 178.122 180.246 190.372C180.246 202.622 189.461 212.609 200.784 212.609C212.106 212.609 221.322 202.622 221.322 190.372C221.322 178.122 212.106 168.134 200.784 168.134Z" fill="#491DC5"/>
<path d="M256.514 315.377H143.556C138.905 315.377 135.13 312.147 134.779 308.052L132.322 275.289C131.357 262.688 141.889 248.669 155.756 244.022C184.369 234.807 215.878 234.886 244.315 244.022C258.27 248.669 268.802 262.688 267.836 275.289L265.379 307.974C264.94 312.148 261.166 315.377 256.514 315.377ZM151.719 299.625H248.352L250.283 274.266C250.634 269.225 245.455 261.191 238.259 258.828C213.771 250.953 186.387 250.953 161.724 258.828C154.703 261.191 149.437 269.146 149.788 274.266L151.719 299.625Z" fill="#491DC5"/>
<path d="M324.898 315.396H279.873C275.045 315.396 271.096 311.852 271.096 307.52C271.096 303.188 275.045 299.644 279.873 299.644H316.648L318.227 278.773C318.578 274.757 314.19 268.378 308.66 266.567C298.83 263.416 288.474 261.684 277.854 261.526C273.027 261.447 269.165 257.903 269.252 253.493C269.34 249.161 273.29 245.538 278.205 245.775C290.668 245.932 302.956 247.98 314.629 251.76C327.18 255.934 336.571 268.535 335.693 279.876L333.499 308.15C333.323 312.166 329.549 315.396 324.898 315.396Z" fill="#491DC5"/>
<path d="M290.224 237.28C272.758 237.28 258.54 223.116 258.54 205.803C258.54 188.491 272.758 174.326 290.224 174.326C307.69 174.326 321.908 188.491 321.908 205.803C321.908 223.116 307.69 237.28 290.224 237.28ZM290.224 189.986C282.413 189.986 276.094 197.068 276.094 205.725C276.094 214.381 282.413 221.463 290.224 221.463C297.948 221.463 304.355 214.381 304.355 205.725C304.355 197.068 298.036 189.986 290.224 189.986Z" fill="#491DC5"/>
</svg>
