<svg width="149" height="134" viewBox="0 0 149 134" fill="none" xmlns="http://www.w3.org/2000/svg">
<rect x="42" y="35" width="18" height="16" fill="white"/>
<g clip-path="url(#clip0_2949_56510)">
<path d="M40.15 109.712C43.8 111.237 47.75 112 52 112C56.2 112 60.125 111.237 63.775 109.712C67.425 108.187 70.6 106.075 73.3 103.375C76 100.675 78.125 97.5 79.675 93.85C81.225 90.2 82 86.25 82 82C82 77.8 81.225 73.875 79.675 70.225C78.125 66.575 76 63.4 73.3 60.7C70.6 58 67.425 55.875 63.775 54.325C60.125 52.775 56.2 52 52 52C47.75 52 43.8 52.775 40.15 54.325C36.5 55.875 33.325 58 30.625 60.7C27.925 63.4 25.8125 66.575 24.2875 70.225C22.7625 73.875 22 77.8 22 82C22 86.25 22.7625 90.2 24.2875 93.85C25.8125 97.5 27.925 100.675 30.625 103.375C33.325 106.075 36.5 108.187 40.15 109.712Z" fill="#491DC5"/>
<path d="M52.0625 104.5C51.5208 104.5 51.0729 104.323 50.7188 103.969C50.3646 103.615 50.1875 103.167 50.1875 102.625V99.25C48.1875 98.9167 46.4792 98.2083 45.0625 97.125C43.6458 96.0417 42.5417 94.6667 41.75 93C41.5417 92.5417 41.5417 92.0625 41.75 91.5625C41.9583 91.0625 42.3125 90.7083 42.8125 90.5C43.2708 90.2917 43.7396 90.2917 44.2187 90.5C44.6979 90.7083 45.0625 91.0417 45.3125 91.5C46.0625 92.9167 47.0417 93.9792 48.25 94.6875C49.4583 95.3958 50.8542 95.75 52.4375 95.75C54.4375 95.75 56.0833 95.25 57.375 94.25C58.6667 93.25 59.3125 91.875 59.3125 90.125C59.3125 88.2917 58.7396 86.875 57.5938 85.875C56.4479 84.875 54.2917 83.8542 51.125 82.8125C48.125 81.8542 45.8854 80.5833 44.4062 79C42.9271 77.4167 42.1875 75.4375 42.1875 73.0625C42.1875 70.7708 42.9271 68.8542 44.4062 67.3125C45.8854 65.7708 47.8125 64.8958 50.1875 64.6875V61.375C50.1875 60.8333 50.3646 60.3854 50.7188 60.0313C51.0729 59.6771 51.5208 59.5 52.0625 59.5C52.6042 59.5 53.0521 59.6771 53.4062 60.0313C53.7604 60.3854 53.9375 60.8333 53.9375 61.375V64.6875C55.4375 64.8958 56.7812 65.3542 57.9687 66.0625C59.1562 66.7708 60.1458 67.6875 60.9375 68.8125C61.2292 69.2292 61.2917 69.6771 61.125 70.1562C60.9583 70.6354 60.625 70.9792 60.125 71.1875C59.6667 71.3958 59.1875 71.4167 58.6875 71.25C58.1875 71.0833 57.7708 70.7708 57.4375 70.3125C56.8542 69.5625 56.1354 69.0104 55.2812 68.6562C54.4271 68.3021 53.3958 68.125 52.1875 68.125C50.2708 68.125 48.75 68.5625 47.625 69.4375C46.5 70.3125 45.9375 71.5 45.9375 73C45.9375 74.5833 46.5625 75.8646 47.8125 76.8438C49.0625 77.8229 51.375 78.8333 54.75 79.875C57.5833 80.75 59.6771 82.0104 61.0313 83.6563C62.3854 85.3021 63.0625 87.375 63.0625 89.875C63.0625 92.5 62.2917 94.6146 60.75 96.2188C59.2083 97.8229 56.9375 98.8542 53.9375 99.3125V102.625C53.9375 103.167 53.7604 103.615 53.4062 103.969C53.0521 104.323 52.6042 104.5 52.0625 104.5Z" fill="white" stroke="white" stroke-width="0.2"/>
</g>
<path d="M145.257 23.5373H24.2888C22.5668 23.5373 21.2139 22.2392 21.2139 20.587C21.2139 18.9348 22.5668 17.6367 24.2888 17.6367H145.257C146.979 17.6367 148.332 18.9348 148.332 20.587C148.332 22.2392 146.979 23.5373 145.257 23.5373Z" fill="#020202"/>
<path d="M133.822 133.999H15.0057C6.7034 133.999 0 127.509 0 119.543V44.9599C0 36.9941 6.76489 30.5625 15.0057 30.5625H133.822C142.124 30.5625 148.889 37.0531 148.889 44.9599V119.543C148.889 127.568 142.124 133.999 133.822 133.999ZM15.0057 42.4227C13.5298 42.4227 12.2998 43.6028 12.2998 45.019V119.602C12.2998 121.077 13.5298 122.257 15.0057 122.257H133.822C135.359 122.257 136.589 121.077 136.589 119.602V45.019C136.589 43.6028 135.359 42.4227 133.822 42.4227H15.0057Z" fill="#020202"/>
<path d="M142.739 52.6921C139.357 52.6921 136.589 50.0368 136.589 46.7915V14.3974C136.589 12.9813 135.359 11.8011 133.822 11.8011H15.0057C13.5298 11.8011 12.2998 12.9813 12.2998 14.3974V46.7915C12.2998 50.0368 9.53233 52.6921 6.14989 52.6921C2.76745 52.6921 0 50.0368 0 46.7915V14.3974C0 6.43164 6.76489 0 15.0057 0H133.822C142.124 0 148.889 6.49065 148.889 14.3974V46.7915C148.889 50.0368 146.121 52.6921 142.739 52.6921Z" fill="#020202"/>
<path d="M140.646 102.489H110.143C102.086 102.489 95.5059 96.1753 95.5059 88.4456V76.1723C95.5059 68.4425 102.086 62.1289 110.143 62.1289H140.646C144.028 62.1289 146.796 64.7842 146.796 68.0295C146.796 71.2748 144.028 73.9301 140.646 73.9301H110.143C108.851 73.9301 107.806 74.9332 107.806 76.1723V88.4456C107.806 89.6847 108.851 90.6878 110.143 90.6878H140.646C144.028 90.6878 146.796 93.3431 146.796 96.5884C146.796 99.8337 144.028 102.489 140.646 102.489Z" fill="#020202"/>
<defs>
<clipPath id="clip0_2949_56510">
<rect width="60" height="60" fill="white" transform="translate(22 52)"/>
</clipPath>
</defs>
</svg>
