<svg width="254" height="244" viewBox="0 0 254 244" fill="none" xmlns="http://www.w3.org/2000/svg">
<path fill-rule="evenodd" clip-rule="evenodd" d="M35.5608 52.0698C37.157 50.9324 39.166 50.7705 40.8943 51.6398L145.311 104.159C147.304 105.161 148.584 107.361 148.584 109.784V214.822C148.584 216.922 147.619 218.879 146.023 220.017C144.427 221.154 142.418 221.316 140.689 220.447L42.8195 171.22C36.8394 168.212 33 161.614 33 154.346V57.2647C33 55.1639 33.9646 53.2071 35.5608 52.0698ZM44.1675 66.8602V154.346C44.1675 156.769 45.4473 158.968 47.4407 159.97L137.416 205.226V113.762L44.1675 66.8602Z" fill="black" stroke="black" stroke-width="0.4" stroke-linejoin="round"/>
<path fill-rule="evenodd" clip-rule="evenodd" d="M250.439 52.0698C248.843 50.9324 246.834 50.7705 245.106 51.6398L140.689 104.159C138.696 105.161 137.416 107.361 137.416 109.784V214.822C137.416 216.922 138.381 218.879 139.977 220.017C141.573 221.154 143.582 221.316 145.311 220.447L243.18 171.22C249.161 168.212 253 161.614 253 154.346V57.2647C253 55.1639 252.035 53.2071 250.439 52.0698ZM241.832 66.8602V154.346C241.832 156.769 240.553 158.968 238.559 159.97L148.584 205.226V113.762L241.832 66.8602Z" fill="black" stroke="black" stroke-width="0.4" stroke-linejoin="round"/>
<path fill-rule="evenodd" clip-rule="evenodd" d="M149.932 15.0189C145.527 12.8036 140.473 12.8036 136.068 15.0189L52.0775 57.2643L143 102.996L233.922 57.2643L149.932 15.0189ZM131.447 3.76909C138.788 0.0769647 147.212 0.0769715 154.553 3.7691L249.727 51.6394C251.72 52.6421 253 54.8414 253 57.2643C253 59.6873 251.72 61.8866 249.727 62.8892L145.311 115.408C143.842 116.147 142.158 116.147 140.689 115.408L36.2732 62.8892C34.2798 61.8866 33 59.6873 33 57.2643C33 54.8414 34.2798 52.6421 36.2732 51.6394L131.447 3.76909Z" fill="black" stroke="black" stroke-width="0.4" stroke-linejoin="round"/>
<path fill-rule="evenodd" clip-rule="evenodd" d="M166.794 75.6931L89.334 36.9623L93.9325 25.7012L171.415 64.4433L197.519 77.5731L192.898 88.8228L166.805 75.6988L166.794 75.6931Z" fill="black" stroke="black" stroke-width="0.4" stroke-linejoin="round"/>
<path d="M98.3804 203.404C81.8493 220.611 55.0471 220.611 38.516 203.404C21.9849 186.197 21.9849 158.3 38.516 141.093C55.0471 123.886 81.8493 123.886 98.3804 141.093C114.912 158.3 114.912 186.197 98.3804 203.404Z" fill="#491DC5"/>
<path fill-rule="evenodd" clip-rule="evenodd" d="M94.0885 145.561C79.9278 130.822 56.9687 130.822 42.8079 145.561C28.6472 160.301 28.6472 184.198 42.8079 198.938C56.9687 213.677 79.9278 213.677 94.0885 198.938C108.249 184.198 108.249 160.301 94.0885 145.561ZM34.2241 136.627C53.1256 116.953 83.7709 116.953 102.672 136.627C121.574 156.301 121.574 188.198 102.672 207.872C83.7709 227.546 53.1256 227.546 34.2241 207.872C15.3227 188.198 15.3227 156.301 34.2241 136.627Z" fill="#491DC5"/>
<path fill-rule="evenodd" clip-rule="evenodd" d="M93.92 152.197C96.4485 154.503 96.6245 158.416 94.313 160.939L61.6086 196.624L42.8316 178.345C40.3798 175.959 40.3319 172.041 42.7246 169.596C45.1173 167.15 49.0445 167.102 51.4963 169.489L61.1002 178.838L85.1564 152.589C87.4679 150.067 91.3915 149.891 93.92 152.197Z" fill="white"/>
</svg>
