<svg width="193" height="193" viewBox="0 0 193 193" fill="none" xmlns="http://www.w3.org/2000/svg">
<path d="M96.531 192.98C70.8004 192.98 46.5442 182.986 28.2705 164.72C10.0788 146.536 0 122.291 0 96.4898C0 70.6883 9.99685 46.5253 28.2705 28.2594C46.5442 9.99358 70.7185 0 96.531 0C122.344 0 146.517 9.99358 164.791 28.2594C202.403 65.856 202.403 127.042 164.791 164.638C146.517 182.904 122.262 192.98 96.531 192.98ZM96.531 16.3819C75.1435 16.3819 54.9848 24.7366 39.907 39.808C24.7472 54.9613 16.471 75.0294 16.471 96.4078C16.471 117.786 24.8292 137.936 39.907 153.008C55.0668 168.161 75.1435 176.434 96.531 176.434C117.919 176.434 138.076 168.079 153.236 153.008C184.457 121.8 184.457 71.0155 153.236 39.726C138.076 24.7365 117.919 16.3819 96.531 16.3819Z" fill="#020202"/>
<path d="M96.4997 96.3574C90.2205 96.3574 85.083 94.3595 81.0872 90.3637C77.0913 86.3678 75.0934 81.2303 75.0934 74.9512C75.0934 68.672 77.0913 63.5345 81.0872 59.5387C85.083 55.5428 90.2205 53.5449 96.4997 53.5449C102.779 53.5449 107.916 55.5428 111.912 59.5387C115.908 63.5345 117.906 68.672 117.906 74.9512C117.906 81.2303 115.908 86.3678 111.912 90.3637C107.916 94.3595 102.779 96.3574 96.4997 96.3574ZM59.3955 142.167C57.017 142.167 54.9953 141.334 53.3304 139.669C51.6655 138.004 50.833 135.983 50.833 133.604V128.752C50.833 125.137 51.7368 122.045 53.5445 119.476C55.3521 116.907 57.683 114.957 60.5372 113.625C66.9115 110.771 73.0242 108.63 78.8752 107.203C84.7262 105.776 90.6011 105.063 96.4997 105.063C102.398 105.063 108.249 105.8 114.053 107.275C119.856 108.749 125.945 110.866 132.319 113.625C135.269 114.957 137.647 116.907 139.455 119.476C141.263 122.045 142.166 125.137 142.166 128.752V133.604C142.166 135.983 141.334 138.004 139.669 139.669C138.004 141.334 135.982 142.167 133.604 142.167H59.3955Z" fill="#491DC5"/>
</svg>
