<svg width="628" height="607" viewBox="0 0 628 607" fill="none" xmlns="http://www.w3.org/2000/svg">
<g opacity="0.99">
<path d="M318.228 226.764C310.721 236.604 303.55 246.779 294.697 255.613C286.966 263.887 277.666 270.26 267.805 276.298C262.987 279.429 258.28 282.337 252.902 284.573C247.411 286.586 242.033 287.368 236.206 287.704C214.356 289.157 189.817 290.499 172.224 275.404C171.104 274.733 170.768 273.056 171.888 271.938C179.06 264.222 188.584 259.973 197.772 255.277C198.893 254.606 199.789 254.159 200.91 253.6C204.383 251.587 207.745 249.575 211.219 247.562C212.675 242.083 213.236 236.045 213.572 230.678C213.236 229 212.899 227.547 212.451 225.87C210.098 221.509 209.314 216.701 210.098 211.893C206.624 207.867 203.599 204.401 200.574 199.928C194.859 191.43 191.049 181.255 191.385 171.08C191.721 161.911 195.419 153.078 200.574 145.586C205.728 138.094 212.115 131.609 219.735 126.913C227.242 122.552 235.422 119.756 244.386 120.427C252.678 121.098 260.746 124.453 266.236 130.714C271.727 136.752 273.968 145.027 276.545 152.518C278.002 156.208 278.898 160.234 280.579 163.7C282.596 167.725 286.069 171.415 287.75 176C291.224 184.274 290.103 194.338 286.294 202.612C282.82 210.104 275.985 218.937 267.133 220.055C266.46 220.055 265.676 220.055 265.452 219.384C264.78 220.055 264.331 220.838 263.995 221.732C263.995 221.732 263.995 222.068 263.659 222.068C263.995 226.093 264.331 230.342 265.116 234.703C282.148 233.026 299.18 229.559 315.315 224.192C317.556 222.403 319.573 224.64 318.228 226.764Z" fill="white"/>
<path d="M507.257 267.573C493.699 260.417 480.477 253.261 466.806 246.44C456.161 240.961 445.292 235.594 434.759 230.45C424.114 225.307 413.581 219.939 402.376 215.802C391.955 211.777 380.526 208.982 369.097 208.646C358.452 208.311 348.031 210.1 337.834 212.336C334.361 213.119 330.999 214.013 327.525 215.131C325.06 215.802 323.043 216.585 320.69 217.144C320.69 217.256 320.578 217.256 320.578 217.368C289.54 228.326 266.345 231.792 266.345 231.792L267.914 261.87L207.966 244.986L171.325 264.778C171.325 264.778 171.213 264.778 171.213 264.666C169.532 265.784 167.739 266.343 166.058 267.461C165.162 267.908 164.377 268.467 163.481 268.915L146.561 278.084C146.001 278.419 145.441 278.643 144.88 278.978L144.32 279.314C131.658 286.246 119.444 293.738 110.144 305.031C99.275 318.226 92.888 334.551 87.7336 350.876C84.26 361.163 81.6828 371.226 78.8815 381.513C78.5453 383.526 77.761 385.539 77.4248 387.551C78.3212 389.229 79.7779 391.018 81.1225 392.359C89.9747 402.311 101.18 409.803 113.842 413.828C117.876 415.282 122.134 415.841 126.168 416.959C127.624 417.406 128.521 417.742 129.641 418.077C131.322 436.415 134.123 454.417 137.933 472.196C142.863 495.342 142.863 520.836 165.834 533.135C216.93 559.971 292.341 534.589 339.627 509.095C377.501 488.633 386.353 463.586 391.843 422.661C395.317 398.621 401.032 374.357 404.729 350.205C408.763 351.435 412.461 352.888 416.271 354.566C416.719 354.566 417.055 354.566 417.391 354.566C434.983 362.505 453.024 369.996 470.84 377.712C471.288 377.712 471.625 378.047 471.961 378.047C473.193 378.718 474.874 379.501 476.331 380.06C476.667 378.382 477.451 376.929 477.787 375.252C486.079 349.199 494.147 323.145 502.999 297.428C505.352 289.936 507.705 282.78 510.507 275.4C511.179 273.723 511.627 272.269 512.187 270.592C510.395 269.921 509.05 269.25 507.257 267.573Z" fill="#491DC5"/>
<path d="M10.3074 106.666C60.2827 101.746 107.233 108.679 124.489 112.816C129.643 115.388 128.074 145.242 128.074 154.523C128.074 163.804 127.066 166.935 121.911 171.519C117.765 175.209 113.283 173.085 111.603 171.519L115.188 196.789C110.594 193.1 99.501 180.464 94.5707 174.65C72.1602 173.979 25.4344 172.414 17.5908 171.519C7.73017 170.513 4.70476 152.399 3.69629 140.546C2.57577 128.805 6.7217 112.816 10.3074 106.666Z" fill="white"/>
<path d="M122.585 441.888C121.464 447.926 118.551 453.069 114.741 457.877C111.044 462.238 106.449 466.711 102.416 470.736C98.0456 475.097 93.5635 479.234 88.4091 483.036C83.2547 486.726 77.54 489.521 71.3771 491.534C65.3263 493.546 58.7152 495.895 52.2162 497.013C41.011 498.69 30.1419 494.217 21.5139 487.173C12.6617 480.017 3.80962 469.506 3.13731 457.989C2.80115 451.168 4.25783 444.347 5.15425 437.974C6.27477 431.153 7.17119 424.332 8.62787 417.623C10.981 403.982 13.7823 390.452 17.48 376.811C17.48 376.475 17.48 376.475 17.8162 376.475C18.4885 372.114 18.9367 367.642 19.8331 363.281C22.1862 350.422 26.3321 337.787 32.495 326.27C38.2097 315.647 46.1654 306.255 56.5862 300.441C64.0937 296.08 72.9459 293.62 81.4618 292.166C81.798 292.502 82.1341 292.837 82.5824 293.62C89.0814 291.607 95.8045 290.824 102.079 294.291C108.578 297.757 112.949 304.13 116.086 310.951C117.767 314.418 119.784 318.443 120.12 322.468C120.456 326.158 118.999 329.624 116.982 332.308C113.509 337.116 108.13 339.8 102.64 341.812C102.976 343.266 103.76 344.16 104.096 345.502C108.13 358.137 111.94 370.661 114.741 383.52C117.879 396.378 120.232 409.573 121.913 422.991C123.033 429.029 123.706 435.849 122.585 441.888Z" fill="white"/>
<path d="M145.443 440.897C143.09 444.363 140.289 447.717 137.6 450.736C126.73 463.595 113.732 474.777 99.1656 483.946C84.2627 493.115 66.7825 501.389 48.7421 500.83C39.5538 500.494 31.0379 497.699 23.1942 492.555C16.0229 488.195 9.18768 482.268 5.1538 474.889C-3.69833 459.234 1.11992 440.226 4.03327 423.901C8.06715 403.886 11.5408 383.759 16.0229 364.079C18.0398 354.575 20.3929 344.959 23.5304 336.237C26.3317 327.739 30.3655 319.576 36.4164 312.756C51.0952 296.766 73.9539 287.933 95.8041 289.945C97.4848 289.945 99.5018 290.281 101.295 290.616C100.174 292.07 99.2777 293.747 98.1572 294.977C96.4764 294.642 94.4594 294.642 92.6666 294.642C82.806 294.306 72.6092 296.095 63.421 299.785C56.2496 302.916 49.4144 306.941 43.5877 312.42C37.5369 318.123 32.9428 325.055 29.9173 332.771C26.4437 341.045 24.4268 349.655 22.4098 358.265C20.3929 367.434 18.376 376.602 16.6952 385.771C15.0144 394.94 12.9975 404.445 11.2046 413.613C9.52383 422.111 7.731 430.498 6.38637 439.443C4.92969 447.158 4.36943 455.768 6.05021 463.483C7.731 471.199 12.101 477.796 18.376 483.163C24.4268 488.642 32.0463 493.003 40.2261 495.127C48.7421 497.14 57.2581 496.581 65.4379 494.456C81.1252 490.431 96.1402 481.821 109.026 472.093C121.688 462.589 132.557 451.407 141.745 438.325C143.426 435.418 147.236 438.548 145.443 440.897Z" fill="black"/>
<path d="M621.887 373.919C619.534 382.417 613.595 389.573 606.984 395.052C594.322 405.674 576.954 411.713 560.595 409.029C556.561 408.358 552.303 407.016 548.269 405.339C547.597 405.004 546.812 404.668 546.252 404.668C544.795 404.333 543.114 403.55 541.882 402.991C539.081 401.873 536.391 401.314 533.59 400.643C526.419 398.966 519.92 396.282 514.093 392.368C510.395 391.25 506.585 390.691 503.224 389.238C494.932 386.442 487.537 382.081 480.365 376.938C473.866 372.13 467.479 367.098 462.325 360.613C457.507 354.575 454.481 346.636 455.49 338.585C456.61 329.752 460.98 320.918 465.014 313.091C469.048 304.817 473.53 297.101 478.236 289.61C480.589 285.92 483.391 282.118 486.08 278.428C488.433 275.297 490.898 272.726 494.372 270.937C498.406 268.924 502.888 270.266 507.034 271.607C511.068 273.061 515.326 274.738 519.359 276.415C527.651 280.105 535.047 284.913 542.218 290.057C542.89 290.728 543.339 291.511 543.339 292.07C544.011 292.405 544.795 292.405 545.356 292.741C547.372 293.859 548.493 295.089 549.053 297.101C550.174 299.114 551.07 300.232 553.087 300.791C555.44 301.462 558.242 301.909 560.595 302.245C571.464 303.922 582.445 305.04 592.642 308.73C600.149 311.526 607.32 315.551 612.475 321.589C618.189 328.41 620.318 337.243 621.327 346.189C623.232 355.581 624.24 365.197 621.887 373.919Z" fill="white"/>
<path d="M619.092 355.574C615.394 369.215 604.413 381.627 589.51 382.41C580.994 382.745 572.815 380.061 565.643 375.589C558.472 371.563 551.301 366.42 547.267 359.264C543.233 352.107 542.112 343.609 541.776 335.447C541.44 325.943 541.104 316.326 541.104 306.822L540.432 283.005C540.095 273.501 539.759 264.667 539.759 255.499C539.759 255.163 539.423 255.163 539.423 254.828C535.725 249.349 531.916 243.982 528.554 238.167C527.882 237.832 527.433 237.496 527.433 236.49C527.433 236.154 527.433 235.819 527.097 235.372C526.425 233.918 525.641 232.576 525.08 231.346C524.408 230.228 524.744 229.334 525.417 228.551C524.744 226.538 524.296 224.19 523.96 222.066C521.943 213.232 522.503 205.181 526.313 196.572C529.787 188.856 534.605 181.924 539.199 174.768L548.051 162.132C550.404 158.666 552.869 154.976 555.895 151.845C559.032 149.05 562.73 147.82 566.54 147.037C570.574 146.366 575.056 145.919 578.865 146.702C586.373 148.155 590.855 153.858 593.208 160.679C596.009 168.953 596.346 177.339 597.242 185.837C599.259 204.958 604.077 225.979 606.766 244.988C609.568 264.108 609.904 281.328 614.274 300.449C618.532 319.122 624.583 338.019 619.092 355.574Z" fill="white"/>
<path d="M542.445 293.071C540.765 291.953 538.972 291.393 537.627 290.275C532.137 287.144 526.758 284.237 521.268 281.106C517.57 279.094 514.096 277.081 510.398 275.404C511.071 273.727 511.519 272.273 512.079 270.596C520.595 275.404 529.111 280.1 537.627 284.908C539.308 286.026 541.101 286.585 542.445 287.704C542.221 289.381 542.445 291.393 542.445 293.071Z" fill="black"/>
<path d="M547.601 268.255C545.248 265.46 542.783 262.553 540.43 259.757C538.413 256.962 536.396 254.278 534.379 251.483C529.561 244.998 525.191 238.624 521.493 231.804C517.795 225.318 513.985 218.945 510.848 212.124C509.391 208.658 508.047 205.303 507.71 201.613C507.374 197.588 507.71 193.898 507.038 189.649C506.366 186.518 511.072 185.959 511.856 188.978C512.529 192.668 512.193 196.47 512.529 200.16C512.865 203.85 514.21 207.316 515.666 211.006C518.804 217.827 522.165 223.865 525.975 230.462C527.656 233.257 529.449 236.164 531.466 238.96C533.819 242.65 536.62 246.451 539.309 249.806C543.343 255.285 547.601 260.428 551.971 265.46C553.764 267.585 549.618 270.492 547.601 268.255Z" fill="black"/>
<path d="M573.82 63.5117C573.148 109.356 572.364 177.452 569.002 191.653C564.632 210.326 563.512 227.098 530.232 230.341C497.177 233.472 408.879 230.005 381.315 230.005C353.75 230.005 349.716 223.185 349.716 192.547C349.716 189.081 349.716 184.273 349.716 178.906C353.75 173.427 358.232 168.619 363.722 164.929C368.092 162.133 372.911 160.568 378.065 160.121C383.78 159.785 390.055 161.239 395.769 161.798C401.484 162.469 406.975 163.251 412.801 161.798C417.956 160.68 422.662 158.667 426.808 155.76C435.996 150.057 443.167 141.447 449.666 132.949C456.502 124.116 463.337 114.947 472.525 108.35C481.713 101.865 492.582 98.51 503.788 98.0628C515.777 97.7273 527.879 100.075 539.308 94.9319C548.496 90.9066 555.332 82.9677 561.719 75.476C565.977 71.7861 569.786 67.3135 573.82 63.5117Z" fill="#A48EE2"/>
<path d="M574.156 28.8569C574.156 35.3422 573.82 45.182 573.82 56.699C573.82 58.7117 573.82 60.7244 573.82 63.1844C569.786 67.2097 565.976 71.4587 562.278 75.8195C555.779 83.3112 549.056 91.0265 539.868 95.2755C528.663 100.419 516.337 98.4063 504.347 98.4063C493.142 98.7418 482.273 102.096 473.085 108.693C463.896 115.179 457.061 124.348 450.226 133.293C443.727 141.791 436.556 150.177 427.367 156.103C422.997 158.899 418.515 160.911 413.361 162.141C407.87 163.595 402.156 162.812 396.329 162.141C390.614 161.023 384.339 160.129 378.625 160.464C373.47 160.8 368.316 162.477 364.282 165.272C358.791 168.962 354.421 173.77 350.275 179.249C350.275 176.901 350.275 174.441 350.275 171.758C350.948 127.926 353.413 46.9711 353.413 29.7514C353.413 27.7387 353.413 26.0615 353.749 24.0488C380.642 24.0488 407.198 24.0488 434.09 24.3843L574.268 24.6079C574.156 25.8379 574.156 27.5151 574.156 28.8569Z" fill="white"/>
<path d="M573.82 58.4746C573.82 60.4873 573.82 62.5 573.82 64.9599C569.786 68.9853 565.976 73.2343 562.278 77.5951C555.779 84.975 549.056 92.802 539.868 96.9392C528.663 102.083 516.337 100.07 504.347 100.07C493.142 100.406 482.273 103.76 473.085 110.357C463.896 116.842 457.061 126.011 450.226 134.957C443.727 143.455 436.556 151.841 427.367 157.767C422.997 160.562 418.515 162.575 413.361 163.805C407.87 165.259 402.156 164.476 396.329 163.805C390.614 162.687 384.339 161.792 378.625 162.128C373.47 162.463 368.316 164.141 364.282 166.936C358.791 170.626 354.421 175.434 350.275 180.913C350.275 178.565 350.275 176.105 350.275 173.421C355.094 167.942 360.136 163.134 366.971 160.227C378.176 155.083 389.382 158.773 401.035 159.892C406.526 160.562 411.904 160.227 417.395 158.214C422.549 156.202 426.919 153.406 430.617 149.94C439.133 142.784 445.296 133.615 452.467 125.117C459.638 116.283 467.37 108.233 477.343 103.089C487.651 97.6101 498.857 95.9329 510.398 96.2683C516.449 96.6038 523.06 96.9392 529.111 95.9329C534.601 95.262 539.42 93.1375 543.79 90.2303C552.306 84.5277 558.468 75.9179 565.304 68.4262C567.769 64.1772 570.682 61.4936 573.82 58.4746Z" fill="black"/>
<path d="M574.158 24.0439L433.869 23.7085C406.976 23.7085 380.42 23.7085 353.527 23.373C353.527 25.0503 353.191 27.063 353.191 29.0757C353.191 46.5189 350.838 127.25 350.054 171.082C350.054 173.877 350.054 176.225 350.054 178.573C350.054 184.052 350.054 188.86 350.054 192.215C350.054 222.852 353.751 229.673 381.652 229.673C400.813 229.673 448.436 231.35 487.206 231.35C504.686 231.35 520.261 231.015 530.458 229.897C563.513 226.766 564.858 210.217 569.228 191.209C572.702 176.896 573.262 109.024 574.046 63.0676C574.046 61.055 574.046 58.7068 574.046 56.5823C574.046 45.0653 574.382 35.1137 574.382 28.7402C574.158 27.5102 574.158 25.833 574.158 24.0439ZM569.452 28.852C569.452 35.3373 569.116 44.5062 569.116 56.6942C569.116 57.8123 569.116 58.7068 569.116 60.1604C569.116 61.2786 569.116 62.1731 569.116 63.2913C568.78 99.9669 567.659 176.113 564.746 190.426C564.41 191.879 564.073 193.221 563.625 194.451C559.928 211.335 557.574 222.741 529.785 225.424C520.597 226.542 506.591 226.878 486.757 226.878C463.899 226.878 438.015 226.207 416.949 225.76C402.046 225.424 389.384 225.089 381.092 225.089C368.206 225.089 361.595 223.411 358.682 219.61C354.984 215.249 354.312 205.633 354.312 192.439C354.312 188.972 354.312 184.723 354.312 178.797C354.312 176.784 354.312 174.772 354.312 172.759V171.305C354.648 151.29 355.432 124.119 355.993 97.8424C356.665 67.5403 357.449 38.6918 357.449 29.1875C357.449 28.852 357.449 28.5166 357.449 28.0693C369.439 28.0693 381.316 28.0693 393.306 28.0693C406.528 28.0693 420.198 28.0693 433.533 28.0693L569.452 28.852Z" fill="black"/>
<path d="M603.852 241.295C603.516 248.116 603.852 254.937 599.034 260.416C591.862 268.69 580.993 278.083 569.452 272.38C558.807 266.901 554.213 254.378 552.42 243.532C550.403 230.896 551.748 218.038 551.748 205.514C551.748 199.476 551.075 192.879 549.731 186.841C548.05 180.356 545.361 174.541 541.439 169.174C537.741 163.695 533.147 158.663 531.578 152.29C530.122 147.482 530.906 142.003 534.38 138.313C533.707 136.636 532.923 135.182 532.363 133.952C530.906 131.604 530.346 128.809 530.346 125.678C530.346 122.882 531.466 120.199 533.483 118.522C533.819 118.186 534.155 117.851 534.94 117.851C534.604 114.384 536.06 111.03 538.638 109.017C543.008 105.886 548.946 106.669 553.316 108.682C558.471 111.477 563.177 115.502 567.323 119.528C569.34 121.541 571.357 123.553 573.374 126.013L573.038 124L571.021 113.154C570.348 109.688 569.34 105.998 569.004 102.308C568.668 99.5128 569.34 96.8293 572.141 95.8229C574.943 95.152 577.856 96.4938 579.985 98.1711C590.854 105.663 591.19 121.317 592.311 133.169C593.767 147.817 594.328 162.353 596.008 177.001C596.681 184.157 597.689 191.649 598.81 198.805C599.93 205.961 601.611 213.118 602.844 220.609C603.404 226.759 603.852 233.804 603.852 241.295Z" fill="white"/>
<path d="M563.508 271.037C563.172 272.155 561.828 273.049 560.707 273.049C559.25 273.049 559.026 272.378 558.354 271.372C555.216 265.67 552.863 259.072 550.846 253.034C547.373 240.399 546.813 227.54 549.166 214.682C548.83 211.215 548.83 207.525 548.493 204.395C547.037 191.536 543.003 178.901 536.504 168.054C533.366 162.911 529.332 157.767 527.315 152.065C525.635 147.257 524.514 139.765 529.332 136.075C533.702 132.944 540.201 134.062 544.572 136.746C549.39 139.541 553.087 143.902 556.113 148.71C562.948 159.556 567.318 171.856 569.335 184.491C569.671 187.622 564.965 188.181 564.517 185.162C562.5 172.527 558.018 160.004 550.846 149.381C548.045 145.691 544.796 141.666 540.202 139.877C538.185 139.206 535.383 138.423 533.366 139.206C530.565 139.877 530.229 142.672 530.229 145.244C530.565 150.723 533.702 155.531 536.728 159.892C539.865 164.7 542.443 169.396 545.02 174.54C551.071 188.517 554.208 204.506 553.312 219.49C553.312 219.825 553.312 220.608 553.312 220.943C552.975 224.969 552.639 228.659 552.639 232.908C552.639 236.933 553.312 241.182 554.096 245.207C555.216 250.351 556.449 255.494 558.466 260.414C559.587 262.762 560.483 265.222 561.94 267.57C562.612 268.465 563.957 269.919 563.508 271.037Z" fill="black"/>
<path d="M580.32 174.314C576.846 160.337 572.812 146.472 565.417 133.949C561.719 127.911 556.901 122.432 551.41 117.959C545.92 113.934 537.404 111.138 531.577 116.282C525.526 121.761 527.543 130.594 529.56 137.415C530.68 140.546 535.05 138.533 533.93 135.402C532.473 131.041 530.232 123.438 534.602 119.748C540.093 115.387 546.928 120.083 550.962 123.773C560.15 132.048 565.641 143.229 569.675 154.411C572.028 160.896 573.708 167.605 575.389 174.426C576.174 178.116 580.992 177.445 580.32 174.314Z" fill="black"/>
<path d="M582.113 159.123C580.096 153.644 578.079 148.277 575.614 142.798C574.942 141.345 574.493 140.003 573.933 138.773C572.813 136.425 571.916 133.965 570.796 131.617C569.339 128.486 567.658 125.131 565.641 122.448C562.168 117.304 558.134 112.943 552.755 109.812C549.618 108.135 545.92 107.017 542.446 108.135C540.093 108.806 537.628 110.931 537.292 113.614C536.956 116.745 532.138 115.962 532.474 112.943C533.594 106.458 539.309 102.656 545.36 102.656C551.074 102.656 556.901 106.123 561.383 109.812C563.736 111.825 566.202 114.621 567.882 117.304C569.339 118.981 570.684 120.994 571.58 123.007C573.037 125.019 573.933 127.368 575.054 129.827C579.424 138.661 582.561 148.165 586.259 156.999C587.828 160.018 583.346 162.254 582.113 159.123Z" fill="black"/>
<path d="M242.928 216.146C243.265 214.693 244.609 213.798 246.066 214.134C260.072 218.495 277.104 215.811 285.284 202.617C289.318 196.131 290.102 188.64 288.085 181.484C286.965 177.794 285.732 173.992 284.052 170.637C282.371 167.171 279.682 164.152 278.561 160.798C277.889 158.45 277.889 156.437 277.104 153.977C276.768 151.964 275.984 149.952 275.087 148.274C273.07 144.249 270.269 140.783 266.796 137.987C264.442 135.975 267.468 132.285 270.269 134.297C276.768 139.776 281.138 147.156 282.595 155.43C282.931 157.779 283.267 159.791 284.612 161.916C286.068 163.928 286.965 165.941 288.31 167.954C290.326 171.644 292.007 175.446 293.128 179.918C295.145 187.633 294.809 196.579 291.111 203.735C287.413 210.556 281.25 216.035 274.079 218.942C265.227 222.632 254.582 222.632 245.394 219.613C243.601 218.606 242.704 217.6 242.928 216.146Z" fill="black"/>
<path d="M263.433 153.962C263.769 150.496 264.553 146.806 266.906 144.122C269.259 141.774 272.957 140.432 276.431 142.445C277.551 143.116 278.112 144.457 277.887 145.911C277.215 147.029 275.87 147.924 274.414 147.365C272.733 146.247 270.94 147.365 270.38 148.818C268.923 150.831 268.923 153.962 268.923 156.31C268.923 159.105 269.259 161.789 270.94 164.025C272.621 166.038 274.638 167.715 276.991 169.504C279.792 171.517 276.319 175.207 273.517 173.194C270.716 171.181 267.803 168.833 265.786 165.479C263.433 161.789 263.097 157.764 263.433 153.962Z" fill="black"/>
<path d="M244.272 162.019C244.272 160.9 244.609 159.67 245.729 158.888C246.401 158.552 247.41 158.217 248.53 158.217C249.651 158.552 250.211 158.888 250.884 159.894C251.22 160.229 251.556 161.012 251.556 161.571C251.556 161.907 251.556 161.907 251.556 162.242C252.228 163.36 252.676 164.255 252.676 165.708C252.676 166.827 252.34 167.721 251.22 168.057C250.099 168.392 249.203 168.392 248.418 167.721C247.298 167.05 246.738 166.044 246.065 165.373C245.729 165.038 245.393 164.702 245.393 164.255C245.057 163.808 244.272 163.137 244.272 162.019Z" fill="black"/>
<path d="M267.693 158.778C267.693 157.66 268.03 156.43 269.15 155.647C269.822 155.312 270.831 154.977 271.951 154.977C273.072 155.312 273.632 155.647 274.304 156.654C274.641 156.989 274.977 157.772 274.977 158.331C274.977 158.666 274.977 158.666 274.977 159.002C275.649 160.12 276.097 161.015 276.097 162.468C276.097 163.586 275.761 164.481 274.641 164.816C273.52 165.152 272.624 165.152 271.839 164.481C270.719 163.81 270.159 162.804 269.486 162.133C269.15 161.797 268.814 161.462 268.814 161.015C268.478 160.567 267.693 159.785 267.693 158.778Z" fill="black"/>
<path d="M226.908 156.32C228.365 150.617 233.743 147.822 239.234 146.48C244.052 145.362 249.542 145.026 253.576 148.493C255.929 150.505 252.904 154.531 250.103 152.183C247.75 150.17 244.052 150.505 240.914 151.064C237.441 151.735 233.183 153.077 232.062 156.767C231.726 158.221 230.606 159.115 228.925 158.78C227.58 159.115 226.572 157.773 226.908 156.32Z" fill="black"/>
<path d="M267.132 182.251C269.933 181.58 272.622 181.133 275.424 182.251C276.096 182.587 276.88 182.587 277.104 183.37C277.441 183.705 277.777 184.823 277.441 185.047C277.441 185.718 277.104 186.5 276.32 186.724C275.648 187.059 274.863 187.395 274.639 187.059C273.519 186.724 272.958 186.724 271.838 186.724C271.166 186.724 270.157 186.724 269.485 187.059C269.149 187.059 269.149 187.059 268.812 187.059C268.14 187.395 267.356 187.395 266.796 187.059C266.235 186.724 265.675 186.389 265.339 185.606C265.451 184.264 266.235 182.587 267.132 182.251Z" fill="black"/>
<path d="M245.06 123.329C245.396 121.876 246.741 120.981 248.197 121.317C257.722 124.112 266.238 128.808 273.409 135.964C274.53 137.083 274.866 138.313 273.745 139.431C273.073 140.549 270.944 140.884 270.272 139.766C263.773 133.728 255.929 128.92 247.413 126.572C245.62 125.677 244.724 124.783 245.06 123.329Z" fill="black"/>
<path d="M269.485 134.293C267.804 136.306 264.667 134.293 265.115 132.28C264.443 131.945 263.995 131.162 263.434 130.827C263.434 130.827 263.098 130.827 263.098 130.491C262.762 130.156 262.426 130.156 262.426 130.156C262.09 129.82 261.305 129.485 260.969 129.485C260.297 129.15 259.512 128.814 258.952 128.367C258.616 128.702 257.832 128.702 257.271 128.702C250.1 128.031 242.929 128.702 236.094 129.82C232.62 130.491 229.258 131.274 226.233 132.169C224.552 132.839 222.759 133.287 221.079 133.846C219.622 134.517 219.622 135.299 219.398 136.977C219.062 138.654 218.725 140.443 218.277 142.12C217.941 143.797 216.821 145.81 217.605 147.599C217.941 149.053 219.062 149.947 219.958 151.065C221.079 152.184 221.639 153.414 221.975 154.755C223.095 157.103 223.432 160.234 223.095 163.03C223.095 164.483 222.759 165.825 221.975 167.391C221.303 168.509 219.958 170.521 220.294 171.08C220.294 171.08 220.294 171.416 220.63 171.416C220.294 171.416 219.958 171.751 219.958 171.751C216.821 168.621 212.451 166.943 208.417 167.726C198.556 169.18 194.074 182.038 198.108 190.089C202.142 198.587 213.011 201.606 221.303 197.245C221.303 197.581 221.303 197.581 221.303 197.916C221.639 207.756 222.423 217.596 223.32 227.436C223.656 229.113 221.863 230.566 220.182 230.231C217.829 229.56 215.028 229.56 212.675 230.231C210.658 230.902 208.977 228.777 209.537 226.765C210.658 223.634 207.52 220.727 205.167 219.273C202.03 217.596 198.668 216.142 195.643 214.465C189.928 210.999 184.437 206.191 179.955 201.271C170.767 190.089 166.285 175.218 167.966 160.458C168.638 153.302 170.767 146.146 174.465 140.107C178.499 134.069 184.774 129.261 190.488 124.901C202.478 116.067 216.372 108.911 230.939 106.563C234.973 105.892 239.455 105.445 243.601 105.892C245.618 105.892 247.635 106.227 250.1 106.227C252.453 106.227 253.574 104.774 255.254 103.096C258.056 100.748 261.753 101.084 264.443 103.432C266.796 105.445 267.58 108.575 267.58 111.147L271.614 110.476C272.735 110.141 273.967 111.147 274.415 112.154C276.32 120.316 274.64 128.479 269.485 134.293Z" fill="black"/>
<path d="M222.087 197.463C215.252 200.929 206.064 198.134 202.03 191.425C200.013 187.735 199.677 183.71 200.349 179.461C201.022 175.771 203.823 170.963 207.521 169.621C212.339 167.944 217.829 171.634 219.51 176.106C220.631 179.237 225.225 177.224 223.88 174.094C221.863 168.615 216.373 164.925 210.658 164.589C204.159 164.254 199.453 168.95 196.988 174.429C192.169 184.716 196.315 197.239 206.848 201.936C212.339 204.284 218.39 204.731 223.88 201.936C226.906 200.594 224.889 196.121 222.087 197.463Z" fill="black"/>
<path d="M223.207 180.581C219.173 179.463 215.475 178.904 211.217 177.786C209.761 177.45 208.416 178.904 208.416 179.798C208.416 181.252 209.088 182.146 210.433 182.594C214.467 183.712 218.165 184.271 222.423 185.389C223.879 185.725 225.224 184.271 225.224 183.376C225.56 181.811 224.552 180.916 223.207 180.581Z" fill="black"/>
<path d="M182.534 138.309C181.862 136.631 181.077 134.842 180.517 133.5C180.181 132.83 179.845 131.823 179.397 131.152C179.06 130.481 178.724 129.475 177.94 128.804C177.268 127.686 176.259 127.127 175.139 127.127C173.682 127.127 172.785 127.462 172.001 128.581C170.881 130.258 171.329 132.047 172.001 133.724C171.329 133.389 170.881 133.389 170.32 133.053C168.303 132.382 166.286 134.507 167.183 136.184C168.864 139.874 172.673 141.663 176.371 142.669C177.492 143.005 178.724 142.669 179.509 141.551C180.181 141.887 180.629 141.887 181.189 141.551C182.198 141.104 182.982 139.65 182.534 138.309Z" fill="black"/>
<path d="M81.4611 392.358C75.4103 419.865 71.1523 447.819 70.2559 475.661C70.2559 478.792 65.1015 478.456 65.4376 474.99C66.5582 452.627 69.1354 430.376 73.2813 408.348C74.738 401.192 76.0826 394.371 77.6513 387.662C78.6598 389.228 80.0044 390.905 81.4611 392.358Z" fill="black"/>
<path d="M539.084 339.695C537.963 332.204 537.627 324.824 537.627 317.332C537.291 308.499 537.627 299.33 537.291 290.496C537.291 288.819 537.291 286.806 537.291 285.017C536.955 273.836 536.619 262.99 534.49 252.032C533.817 247.671 533.817 245.546 532.473 241.186L533.145 241.856C535.498 245.546 536.282 246.217 538.86 250.131C539.532 253.262 539.98 256.169 540.316 259.635C540.316 259.971 540.316 259.971 540.316 260.306C541.437 269.475 541.773 278.644 541.997 288.148C541.997 289.825 541.997 291.838 541.997 293.627C541.997 308.834 541.997 324.265 543.678 339.472C544.574 342.043 539.42 342.938 539.084 339.695Z" fill="black"/>
<path d="M626.038 342.593C624.917 335.101 623.685 327.945 622.34 321.124C615.841 288.138 610.014 254.817 605.644 221.831C605.308 218.701 604.972 215.793 604.188 212.998C601.386 191.529 598.697 169.837 596.68 148.369C595.56 138.081 594.663 127.683 592.31 117.731C591.189 112.923 589.957 108.227 587.94 103.754C586.259 100.064 584.242 96.0387 580.769 93.9142C577.295 91.9016 573.261 91.5661 569.9 93.5788C565.53 96.3742 565.53 100.735 566.426 105.096L568.779 117.731L571.58 131.708C572.701 134.056 573.597 136.516 574.718 138.864C575.39 140.318 575.838 141.66 576.399 142.89C577.519 142.554 578.416 141.771 578.079 140.094C577.407 136.628 576.623 133.273 576.062 129.807C574.606 122.986 573.709 116.166 572.365 109.792C572.029 107.444 571.244 104.984 570.908 102.636C570.572 100.959 570.236 99.1696 571.58 97.8278C573.933 95.8151 577.295 96.3742 579.872 98.4987C583.01 101.294 584.242 105.655 585.363 109.345C587.044 113.706 588.164 118.514 589.06 123.322C591.077 132.826 591.862 142.778 592.758 152.506C596.792 193.318 602.283 233.796 609.118 273.826C612.591 293.841 616.961 314.191 619.987 334.765C622.788 352.432 625.141 372.783 613.488 388.102C605.196 398.948 591.414 404.762 577.967 406.104C561.272 407.781 544.688 402.638 528.888 396.6C511.856 389.779 494.825 381.952 477.793 374.795C477.456 376.473 476.672 377.926 476.336 379.604C492.696 386.76 508.719 393.916 525.415 400.737C541.438 407.222 558.694 412.701 576.511 411.247C590.853 410.129 605.196 404.427 614.945 393.804C627.382 379.715 628.279 360.93 626.038 342.593Z" fill="black"/>
<path d="M67.1164 355.237C79.4421 355.237 244.383 352.889 262.76 352.889C281.136 352.889 298.616 354.566 297.832 394.708C297.496 425.345 299.513 472.532 297.832 492.882C296.375 506.859 299.513 522.401 275.758 522.401C251.891 522.401 103.982 522.401 81.7952 522.401C59.7209 522.401 45.9385 524.079 45.9385 501.715C45.9385 470.519 46.6108 397.28 46.6108 378.942C47.059 360.045 54.7906 355.237 67.1164 355.237Z" fill="black"/>
<path d="M147.235 355.239C145.554 360.718 141.744 366.42 136.029 367.874C132.556 368.545 129.53 366.756 127.737 364.184C123.704 367.65 118.885 369.886 113.395 366.979C112.722 366.644 112.274 365.861 112.274 365.302C111.938 365.302 111.154 364.967 110.818 364.967C108.801 367.315 105.999 368.992 102.526 369.327C100.173 369.327 97.7075 368.656 96.0267 367.315C94.3459 370.781 91.2084 373.8 86.8384 372.794C81.3478 371.675 80.3394 365.078 78.5465 360.158C75.4091 351.325 70.7029 340.479 61.5146 336.677C60.8423 337.348 59.4976 338.131 58.3771 337.013C57.7048 336.677 56.9204 335.894 56.6963 335.335C55.2397 335 55.0156 333.323 55.2397 332.205C54.9035 328.179 58.041 323.371 60.7302 320.24C65.5485 315.097 71.039 310.736 76.7537 306.599C86.6143 299.443 99.9485 293.404 112.835 296.759C118.549 298.436 122.023 300.225 126.505 304.251C130.875 308.611 135.021 313.755 138.494 319.122C145.218 329.745 150.932 342.603 147.235 355.239Z" fill="white"/>
<path d="M89.5276 372.911C106.56 374.364 247.297 371.457 258.502 371.457C270.044 371.457 285.731 374.588 285.731 392.143C285.731 409.81 284.05 487.41 285.059 495.125C286.515 502.841 281.025 510.779 266.682 510.779C252.676 510.779 82.2443 508.431 73.8403 508.431C65.4364 508.431 60.6182 502.952 60.6182 484.95C60.6182 466.948 62.9713 395.945 62.2989 386.776C62.2989 377.719 72.6078 371.569 89.5276 372.911Z" fill="#A48EE2"/>
<path d="M222.089 441.898C221.753 441.227 220.969 440.444 220.408 440.444C215.254 438.99 210.548 435.3 208.867 430.157C206.85 423.672 215.702 416.515 213.237 412.49C212.116 410.477 213.909 408.129 211.22 404.998C205.505 398.96 195.981 396.5 190.49 403.321C190.154 403.657 190.154 403.992 189.818 403.992L189.482 404.328C188.81 404.663 188.361 405.446 187.801 405.781L187.129 406.117C186.793 406.117 186.457 406.452 186.008 406.452C185.336 406.787 184.888 406.787 184.328 407.123C182.871 407.458 181.974 407.458 180.63 407.123C179.957 406.787 178.613 406.452 177.492 405.669C176.372 404.998 175.812 404.216 174.691 402.874C170.993 397.73 175.363 392.028 166.847 393.705L152.169 396.836C147.014 397.954 148.471 402.538 149.031 406.34C150.152 411.484 151.048 415.174 147.35 419.982C143.877 424.007 137.826 426.02 132.671 424.343C125.836 422.33 124.155 441.003 123.483 444.693C122.811 448.383 136.369 451.514 138.386 455.875C139.843 459.341 139.843 463.031 138.05 466.162C134.352 473.653 140.067 474.436 144.885 478.126C146.006 478.797 148.359 481.816 149.255 482.151C154.073 483.829 156.763 479.356 160.797 478.461C169.313 476.113 170.657 489.643 175.7 487.295C176.036 487.295 176.372 487.295 176.82 487.295C182.535 485.841 188.025 484.164 193.852 482.934C195.533 482.599 196.989 481.257 196.653 479.468C196.989 479.132 197.774 479.132 198.11 478.797C199.567 477.679 199.791 475.666 198.782 474.436C198.446 474.101 198.11 473.765 198.11 473.318C197.774 472.982 197.774 472.647 197.774 472.647C197.774 472.312 197.438 471.976 197.438 471.529C197.438 471.193 197.438 470.858 197.101 470.411C197.101 470.075 197.101 470.075 197.101 469.74V469.069C197.101 468.733 197.101 468.398 197.101 468.398C197.101 468.062 197.101 467.727 197.438 467.28C197.438 466.944 197.774 466.609 197.774 466.162C197.774 465.826 198.11 465.491 198.446 464.708C198.446 464.373 198.782 464.373 198.782 464.037C199.118 463.702 199.455 463.366 199.903 462.919C200.239 462.584 200.239 462.584 200.575 462.248C200.575 462.248 200.911 461.913 201.247 461.913C201.92 461.577 202.368 461.242 202.704 461.242C203.376 460.906 205.057 460.906 205.842 460.906C206.514 460.906 207.522 460.906 208.195 461.242C209.315 461.242 209.315 461.577 209.875 461.577C211.556 461.913 213.013 462.695 214.245 463.254C215.702 463.925 217.719 462.919 218.279 461.577C218.279 461.242 218.279 460.906 218.279 460.906C218.952 460.571 219.736 460.235 219.96 459.229C221.641 454.421 223.434 449.725 224.778 444.917C224.554 444.246 223.77 442.569 222.089 441.898ZM177.604 452.52C172.786 453.974 168.08 452.52 165.279 449.054C162.477 445.588 162.141 440.779 164.158 437.09L164.494 436.754C164.83 436.083 165.167 435.636 165.615 435.077C165.951 434.741 165.951 434.741 166.735 433.959C167.856 433.288 168.416 432.841 169.873 432.505C171.89 431.834 174.243 431.834 176.372 432.17C180.742 432.841 186.232 436.195 186.681 441.339C187.017 444.134 185.56 446.817 183.543 448.83C181.974 450.507 179.845 451.737 177.604 452.52Z" fill="#EDE8F9"/>
<path d="M60.6206 528.328C71.4896 526.875 287.526 530.006 294.362 530.006C301.197 530.006 302.653 531.683 324.728 540.852C347.138 550.021 374.927 567.464 385.796 571.489C396.665 575.85 384.34 598.325 373.47 601.456C362.601 604.587 140.738 606.935 133.567 605.817C111.716 602.686 63.3098 556.841 55.8023 548.679C48.4069 541.187 49.6394 529.223 60.6206 528.328Z" fill="black"/>
<path d="M93.5624 335.226C88.7441 326.728 82.021 320.019 73.505 315.211C70.7037 313.534 67.7904 317.559 70.3676 318.901C84.0379 326.616 94.4588 341.264 95.2432 356.918C95.5793 360.608 94.907 364.41 92.8901 367.429C91.2093 370.56 87.1754 373.467 84.0379 370.224C81.6849 367.429 81.2366 363.068 80.3402 359.602C78.8835 355.241 77.5389 351.104 75.522 346.967C71.4881 339.251 63.1962 331.312 53.6718 334.108C50.5343 335.226 52.5513 339.587 55.6887 338.469C59.7226 337.015 64.2047 339.922 66.894 342.829C70.3676 346.296 72.3845 351.104 73.7291 355.465C75.4099 359.825 76.0822 364.298 77.4269 368.659C78.8835 372.125 81.1246 375.48 84.9344 376.15C89.3044 377.269 93.7865 374.138 96.1396 370.671C98.4927 367.205 99.6132 363.18 99.6132 359.154C100.734 350.88 98.1565 342.27 93.5624 335.226Z" fill="black"/>
<path d="M104.212 322.59C100.178 316.888 95.0233 311.744 89.8689 306.936C87.5158 304.923 84.7145 308.613 86.7315 310.626C96.5921 319.124 105.108 329.746 109.142 342.158C110.823 347.861 112.616 355.017 110.823 360.831C110.15 363.627 108.47 365.975 105.668 366.869C103.651 367.54 100.85 367.54 99.1693 365.751C97.1523 363.403 93.4546 366.422 95.4716 368.882C98.9452 372.907 104.66 373.243 109.142 370.895C114.296 368.099 116.313 362.061 116.649 356.582C116.874 344.618 111.383 332.542 104.212 322.59Z" fill="black"/>
<path d="M132.557 350.099C131.884 338.134 128.187 326.282 121.351 316.33C117.654 310.851 112.499 305.82 106.673 302.353C103.871 300.676 101.182 304.702 103.535 306.043C114.404 313.2 121.912 324.381 125.385 337.016C127.066 343.054 128.187 350.211 127.402 356.472C127.066 359.603 125.946 362.958 123.368 364.97C121.351 366.647 118.214 367.318 115.861 365.641C113.06 363.964 110.37 367.654 112.723 369.331C117.542 372.797 123.929 371.008 127.626 367.318C132.557 362.958 132.893 356.36 132.557 350.099Z" fill="black"/>
<path d="M146.901 362.074C143.427 368.895 134.911 374.039 127.404 369.79C124.603 368.336 126.283 363.752 129.085 365.429C132.222 367.106 135.584 366.547 138.273 364.311C144.324 360.285 145.444 351.116 145.108 344.296C144.772 337.139 143.091 330.319 139.618 324.281C133.118 311.645 121.913 301.917 108.355 297.109C104.881 295.991 101.52 295.097 97.71 294.761C98.8305 293.308 99.7269 291.63 100.847 290.4C110.036 292.078 118.552 295.544 126.395 301.246C138.721 310.415 147.125 324.392 149.59 339.264C150.935 346.644 150.599 355.254 146.901 362.074Z" fill="black"/>
<path d="M85.4958 538.072C93.3394 536.059 283.156 536.618 288.31 536.618C293.129 536.618 337.389 556.298 338.734 557.304C340.191 558.758 127.067 564.125 119.56 560.77C112.164 557.192 77.7642 540.196 85.4958 538.072Z" fill="white"/>
<path d="M214.583 567.363C222.875 566.245 269.153 566.692 272.178 566.692C274.979 566.692 298.398 573.513 297.054 575.525C295.597 577.538 235.985 578.992 232.736 577.203C229.262 575.525 208.532 568.369 214.583 567.363Z" fill="white"/>
<path d="M74.2891 550.026C72.6083 548.908 70.8155 547.678 69.4709 546.336C68.7986 545.666 68.0142 544.883 67.1178 544.324C66.7816 543.988 66.4455 543.653 66.4455 543.653C66.1093 543.317 65.7731 542.982 65.3249 542.535C64.2044 541.417 62.9718 541.081 61.8513 542.199C60.7308 542.87 60.3946 544.547 61.5152 545.666C64.6526 549.132 67.566 551.704 71.3758 554.164C72.4963 554.834 74.1771 554.834 74.8494 553.828C75.1855 552.374 75.1855 550.697 74.2891 550.026Z" fill="white"/>
<path d="M98.3825 569.366C98.3825 568.695 98.0464 567.913 97.7102 567.689C97.3741 567.354 97.3741 567.354 97.0379 567.018C96.7017 567.018 96.7017 566.683 96.3656 566.683C96.0294 566.683 96.0294 566.347 95.6933 566.347C95.3571 566.347 95.021 566.347 95.021 566.012C93.9004 566.012 93.5643 566.012 93.3402 566.347C93.004 566.683 92.6679 566.683 92.6679 566.683C92.3317 567.018 92.3317 567.018 91.9956 567.353C91.6594 568.024 91.3232 568.807 91.3232 569.366C91.3232 569.702 91.3232 570.037 91.3232 570.484C91.3232 570.82 91.3232 571.155 91.6594 571.603C91.6594 571.938 91.9956 572.273 92.3317 572.273C92.6679 572.609 93.004 572.944 93.7884 573.392C94.1245 573.392 94.4607 573.392 94.4607 573.727C94.7969 573.727 95.133 573.727 95.133 573.727C95.4692 573.727 95.8053 573.727 96.2535 573.392C96.2535 573.392 96.5897 573.392 96.5897 573.056L96.9259 572.721C97.262 572.385 97.262 572.385 97.5982 572.05C97.9343 571.714 97.9343 571.379 98.2705 570.932C98.6066 570.596 98.2705 570.261 98.6066 570.261C98.3825 570.149 98.3825 569.813 98.3825 569.366Z" fill="white"/>
<path d="M109.363 578.644C109.363 578.308 109.363 577.973 109.363 577.525V577.19C109.363 576.519 109.027 575.736 108.691 575.513C108.019 574.842 107.234 574.395 106.338 574.395C106.002 574.395 105.666 574.73 105.217 574.73C104.881 574.73 104.545 575.065 104.097 575.401C104.097 575.736 103.761 575.736 103.761 576.072C103.761 576.407 103.425 576.743 103.761 577.525C103.761 578.196 103.761 579.203 103.761 579.873C103.761 580.209 104.097 580.544 104.097 580.992C104.433 581.327 104.769 581.663 105.217 581.663C105.554 581.663 105.89 581.998 106.674 581.663C107.01 581.663 107.346 581.327 107.795 581.327C108.467 580.992 108.915 580.209 109.251 579.873C109.251 579.873 109.587 579.538 109.587 579.203C109.027 579.314 109.363 578.979 109.363 578.644Z" fill="white"/>
<path d="M96.3665 174.656C97.487 173.985 98.7196 173.985 99.504 174.992C103.202 180.694 107.796 186.173 112.726 190.981C111.269 185.502 109.925 179.8 109.028 174.321C108.692 172.867 110.149 171.973 111.045 171.973C112.502 171.973 113.398 172.644 113.398 173.985C115.079 181.477 116.872 189.192 118.889 196.796C119.225 198.808 116.536 199.927 115.191 198.808C107.348 193.106 100.849 185.95 95.6942 177.675C95.3581 176.781 95.3581 175.439 96.3665 174.656Z" fill="black"/>
<path d="M5.15394 114.161C6.61062 109.353 7.95525 104.321 13.4458 102.979C16.2471 102.309 18.9364 102.309 21.7377 102.309C24.8751 102.309 27.7885 102.309 30.926 102.309C43.5879 102.309 55.8015 102.644 68.4635 103.427C81.1254 104.098 93.3391 105.439 106.001 106.893C109.138 107.228 112.052 107.564 115.189 108.347C117.991 108.682 120.68 109.018 123.033 109.8C125.386 110.471 127.067 112.148 128.187 114.161C129.308 116.509 129.308 119.305 129.308 121.876C129.644 128.362 129.644 134.512 129.98 140.997C130.316 146.699 130.652 152.961 130.316 158.664C130.316 163.472 129.196 168.951 125.946 172.641C123.145 175.772 118.775 177.784 114.741 177.002C112.724 176.666 111.043 175.883 109.587 174.653C107.57 172.641 110.259 169.174 112.388 170.963C115.189 173.312 118.887 172.641 121.576 170.628C125.274 167.833 125.946 162.913 125.946 158.328C126.282 153.185 125.61 147.818 125.61 142.674C125.61 136.971 125.274 131.157 125.274 125.79C125.274 123.442 125.274 120.646 124.938 118.298C124.602 115.95 123.257 114.608 120.904 113.937C115.75 112.484 110.259 112.26 105.217 111.589C94.0114 110.136 83.1423 109.241 71.9371 108.458C60.7318 107.788 49.0784 107.005 37.8732 107.005C32.3826 107.005 26.668 107.005 21.1774 107.005C19.1605 107.005 16.3592 106.669 14.3422 107.676C12.3253 108.57 11.2048 110.807 10.4204 112.819C7.05883 122.547 6.05036 132.834 6.72267 143.121C7.05883 148.265 8.17935 153.744 9.52398 158.328C10.6445 162.354 11.8771 167.833 16.6953 169.174C19.4966 169.845 22.41 169.845 25.5474 169.845C28.6849 169.845 32.0465 170.181 35.0719 170.181C41.5709 170.516 47.9579 170.516 54.569 170.852C67.455 171.187 80.453 171.97 93.3391 172.305C96.4765 172.305 95.6921 177.113 92.6667 176.666C80.0048 176.331 67.1188 175.548 54.4569 175.213C47.9579 174.877 41.795 174.877 35.296 174.542C32.1585 174.542 28.797 174.206 25.7716 174.206C22.9702 174.206 20.0569 174.206 17.2556 173.871C11.765 172.753 8.73961 169.063 6.94678 164.031C5.26599 158.552 3.80931 153.185 2.9129 147.706C1.45622 136.636 2.01648 125.119 5.15394 114.161Z" fill="black"/>
<path d="M574.157 24.035L433.868 23.6995C406.975 23.6995 380.419 23.6995 353.526 23.3641C353.526 21.6869 353.863 20.2333 354.199 19.0033C356.328 5.92084 363.835 1.11276 379.298 0.441867C397.675 -0.676291 533.034 1.11276 549.618 1.11276C563.624 1.11276 572.028 5.92084 574.269 20.2333C573.821 21.1278 573.821 22.6932 574.157 24.035Z" fill="black"/>
<path d="M521.265 12.8642C521.265 12.5288 521.265 11.7461 520.928 11.4106C520.928 11.0752 520.592 10.7397 520.256 10.2925C520.256 10.2925 520.256 9.95702 519.92 9.95702C519.584 9.62158 519.584 9.62158 519.248 9.28613C518.911 8.95068 518.575 8.95068 518.575 8.95068H518.239C517.903 8.95068 517.567 8.95068 517.119 8.61523C516.782 8.61523 516.446 8.61523 515.998 8.61523C515.662 8.61523 514.878 8.61523 514.541 8.95068C514.205 8.95068 513.869 9.28613 513.421 9.62158C513.533 10.0688 513.533 10.0688 513.197 10.4043L512.749 10.8515C512.412 11.187 512.412 11.9697 512.076 12.3052C511.74 13.4233 511.74 14.3178 512.412 15.1005C512.412 15.436 512.749 15.7714 513.085 16.2187C513.421 16.5542 513.421 16.5542 513.757 16.8896C513.757 16.8896 514.093 17.225 514.429 17.225C514.766 17.5605 515.55 17.5605 515.886 17.5605C516.222 17.5605 516.558 17.5605 517.343 17.5605C518.015 17.5605 519.024 17.225 519.696 16.8896C520.032 16.5542 520.368 16.2187 520.816 16.2187C521.152 15.8833 521.153 15.5478 521.489 15.1005C521.489 14.7651 521.825 14.4297 521.825 13.9824V13.5351C521.265 13.5351 521.265 13.1997 521.265 12.8642Z" fill="#5833FF"/>
<path d="M541.434 12.8541C541.434 12.1832 541.098 11.4005 540.762 10.8414C540.426 10.506 540.426 10.1705 540.09 10.1705C539.754 9.83508 539.417 9.83508 538.969 9.49963C538.297 9.16419 537.512 9.16419 536.952 9.49963C536.28 9.49963 535.832 9.49963 535.271 9.83508C534.935 9.83508 534.151 10.1705 533.815 10.506C533.142 11.1769 532.358 11.9596 532.134 12.8541C531.798 13.525 531.798 13.9723 532.134 14.5313C532.47 15.2022 532.806 15.6495 533.591 15.9849H533.927C534.263 16.6558 535.047 17.4386 535.944 17.6622C537.064 17.9976 537.961 17.9976 539.081 17.6622C540.202 17.3267 541.098 16.2086 541.434 15.3141C541.434 14.3077 541.434 13.525 541.434 12.8541Z" fill="#5833FF"/>
<path d="M559.14 13.1855C559.14 12.8501 559.14 12.5146 558.803 12.5146C558.467 11.8437 558.467 11.3965 558.131 11.061C557.459 10.3901 556.674 9.60742 555.778 9.60742C554.657 9.60742 553.761 9.94287 552.977 10.2783C552.64 10.6138 552.304 10.9492 551.856 11.3965C551.52 11.7319 551.52 12.0674 551.184 12.8501C550.848 13.521 550.848 13.9682 550.848 14.5273C550.848 15.1982 551.184 15.6455 551.52 16.2046C551.856 16.54 551.856 16.54 552.192 16.8754C552.528 16.8754 552.865 17.2109 552.865 17.2109C553.201 17.2109 553.537 17.5463 553.537 17.5463C553.873 17.5463 554.209 17.5463 554.209 17.8818C554.545 17.8818 554.882 17.8818 555.666 17.8818C556.338 17.8818 556.786 17.5463 557.347 17.2109C557.683 16.8754 558.019 16.54 558.467 15.7573C558.803 15.0864 558.803 15.0864 558.803 14.6391C559.14 13.9682 559.14 13.521 559.14 13.1855Z" fill="#5833FF"/>
<path d="M428.596 63.2939C410.556 62.9585 392.179 62.9585 374.026 62.623C370.889 62.623 370.553 66.9839 373.354 66.9839C391.395 67.3193 409.771 67.3193 427.924 67.6548C430.949 67.8784 431.733 63.2939 428.596 63.2939Z" fill="black"/>
<path d="M453.59 63.2793H443.729C443.057 63.2793 442.609 63.2793 442.048 63.6147C441.712 63.9502 441.376 64.7329 440.928 65.292C440.928 66.4101 441.6 67.6401 442.945 67.6401H452.805C453.478 67.6401 453.926 67.6401 454.486 67.3047C454.822 66.9692 455.158 66.1865 455.607 65.6274C455.607 64.6211 454.934 63.2793 453.59 63.2793Z" fill="black"/>
<path d="M452.463 78.4902H376.491C373.354 78.4902 373.018 82.8511 375.819 82.8511H451.79C454.928 83.2983 455.264 78.4902 452.463 78.4902Z" fill="black"/>
<path d="M53.4515 155.078C46.6163 150.717 39.7812 145.909 33.058 140.765C38.7727 137.076 44.5994 133.609 50.5382 129.919C51.6587 129.248 51.6587 127.571 50.8743 126.788C50.202 125.67 48.8574 125.67 47.7369 126.453L27.6795 139.088C26.2228 139.759 26.559 141.884 27.6795 142.778C35.187 148.481 42.5825 153.96 50.8743 159.103C53.4515 159.998 56.2528 156.643 53.4515 155.078Z" fill="black"/>
<path d="M75.1882 120.306C70.0338 132.941 64.5433 145.8 59.5009 158.323C58.3804 161.119 62.6384 162.684 63.5348 160.001C68.6892 147.365 74.1798 134.507 79.2221 121.983C80.6788 118.964 76.6449 117.622 75.1882 120.306Z" fill="black"/>
<path d="M107.683 140.327C100.175 134.625 92.7799 129.146 85.2724 123.443C82.9193 121.766 80.118 125.12 82.4711 127.133C88.9701 132.277 95.6933 136.973 102.304 142.005C95.4692 146.365 88.634 150.838 81.9109 155.199C79.5578 156.876 82.247 160.342 84.7122 158.889C92.2197 153.745 99.9513 149.049 107.571 144.017C109.028 143.123 108.691 141.11 107.683 140.327Z" fill="black"/>
<path d="M207.746 245.092L252.455 313.076L267.694 261.976L207.746 245.092Z" fill="#C8BBED"/>
<path d="M267.694 261.989L289.881 281.781L267.694 234.482V261.989Z" fill="#C8BBED"/>
<path d="M267.694 261.994C267.694 261.994 317.558 388.346 339.296 509.107" stroke="black" stroke-width="2.27398" stroke-miterlimit="10"/>
<path d="M295.257 306.385C298.228 306.385 300.636 303.982 300.636 301.018C300.636 298.053 298.228 295.65 295.257 295.65C292.287 295.65 289.879 298.053 289.879 301.018C289.879 303.982 292.287 306.385 295.257 306.385Z" fill="#C8BBED"/>
<path d="M320.247 373.916C323.217 373.916 325.625 371.513 325.625 368.549C325.625 365.585 323.217 363.182 320.247 363.182C317.276 363.182 314.868 365.585 314.868 368.549C314.868 371.513 317.276 373.916 320.247 373.916Z" fill="#C8BBED"/>
<path d="M338.737 434.408C341.707 434.408 344.115 432.005 344.115 429.041C344.115 426.077 341.707 423.674 338.737 423.674C335.766 423.674 333.358 426.077 333.358 429.041C333.358 432.005 335.766 434.408 338.737 434.408Z" fill="#C8BBED"/>
<path d="M602.725 485.185C602.725 510.008 601.604 512.02 566.308 513.027C528.77 514.145 417.391 511.908 386.128 511.908C355.09 511.908 350.607 507.548 350.607 487.309C350.607 482.948 350.944 467.294 350.944 467.294L314.19 475.009L352.4 430.842C352.4 430.842 353.857 401.323 354.081 387.346C354.081 385.668 354.081 383.879 354.081 382.538C354.081 381.419 354.081 380.86 354.081 380.525C354.081 366.883 362.373 362.187 383.103 361.404C403.832 360.734 555.551 361.74 574.264 361.74C592.976 361.74 602.949 366.101 602.165 380.078C602.165 380.749 602.165 381.531 602.165 382.09C602.165 383.544 602.165 385.221 602.165 386.898C602.501 414.07 602.725 473.22 602.725 485.185Z" fill="white"/>
<path d="M418.4 363.417C469.496 363.417 558.466 364.088 572.472 364.088C590.849 364.088 600.373 368.449 600.037 382.091C600.037 382.762 600.037 383.544 600.037 384.103C600.037 385.557 600.037 387.234 600.037 388.911C599.701 414.741 600.037 472.773 600.037 484.514C600.037 508.554 598.916 511.126 564.18 511.685C557.345 511.685 548.157 512.021 537.512 512.021C490.114 512.021 412.461 510.567 387.474 510.567C357.108 510.567 352.738 506.206 352.738 486.527C352.738 482.166 353.074 467.071 353.074 467.071L316.993 474.786L354.53 431.29C354.53 431.29 355.987 402.441 356.211 388.352C356.211 386.675 356.211 384.886 356.211 383.992C356.211 382.873 356.211 382.538 356.211 381.979C356.211 368.785 364.503 363.977 384.561 363.641C390.163 363.417 402.489 363.417 418.4 363.417ZM418.4 358.609C400.36 358.609 389.379 358.609 385.121 358.945C368.089 359.28 352.065 362.635 352.065 382.091C352.065 382.426 352.065 382.762 352.065 383.544V383.88C352.065 385.333 352.065 386.675 352.065 388.241C351.729 400.205 350.609 422.903 350.385 429.389L313.968 471.543L304.779 482.166L318.45 479.035L348.816 472.55C348.816 477.358 348.48 483.731 348.48 486.191C348.48 495.025 349.152 503.858 356.323 509.337C361.814 513.362 370.33 514.816 387.922 514.816C398.567 514.816 417.952 515.151 441.035 515.487C472.073 515.822 510.171 516.605 537.736 516.605C548.941 516.605 558.129 516.605 564.404 516.27C583.565 515.934 592.305 514.816 598.244 510.567C604.743 505.423 604.743 496.59 604.743 484.514C604.743 481.383 604.743 475.01 604.743 466.847C604.743 444.819 604.407 408.144 604.743 389.023C604.743 387.346 604.743 385.892 604.743 384.662C604.743 384.327 604.743 383.992 604.743 383.544C604.743 383.209 604.743 382.873 604.743 382.426C605.079 375.941 603.286 370.909 599.589 367.219C594.434 362.076 586.367 359.728 572.696 359.728C567.878 359.728 553.983 359.728 536.615 359.728C502.664 358.945 451.792 358.609 418.4 358.609Z" fill="black"/>
<path d="M600.146 381.748C600.146 382.419 600.146 383.202 600.146 383.761H356.656C356.656 383.09 356.656 382.307 356.656 381.748C356.656 368.554 364.948 363.746 385.005 363.41C405.399 362.739 553.98 363.746 572.021 363.746C590.509 363.746 600.482 368.107 600.146 381.748Z" fill="#020202"/>
<path d="M382.653 464.27C382.653 466.618 380.972 469.413 378.619 469.973C376.266 470.643 373.465 469.973 371.784 468.295C370.663 467.177 370.327 465.947 370.663 464.605C370.663 464.27 370.663 463.487 371 463.152C371 462.816 371 462.034 371 461.698C371.672 460.245 372.68 459.35 374.137 458.567C375.258 457.896 376.938 457.896 377.835 457.896C378.507 457.896 378.955 458.232 379.516 458.232C379.852 458.232 380.188 458.567 380.636 458.903C380.972 459.238 381.308 459.574 381.757 460.356C382.429 461.698 382.653 463.04 382.653 464.27Z" fill="black"/>
<path d="M372.122 409.925C371.001 408.807 370.665 407.13 370.665 405.9C370.665 405.229 371.001 404.446 371.001 403.887C371.337 403.216 371.674 402.434 372.458 401.874L372.794 401.539L373.13 401.204C374.587 400.085 375.932 399.75 377.164 399.75C378.285 399.75 379.517 400.085 380.638 401.204C381.758 402.322 382.318 403.216 382.655 404.894C382.991 407.242 381.982 410.372 379.853 411.379C378.397 412.05 377.052 412.832 375.483 412.497C374.475 412.05 373.018 411.267 372.122 409.925Z" fill="black"/>
<path d="M380.971 431.397C382.652 433.074 382.988 435.758 382.428 438.218C382.092 439.336 380.971 440.23 380.075 441.013C378.618 441.684 377.722 442.131 376.377 442.131C374.024 442.131 371.559 440.678 370.662 438.441C369.99 436.764 369.99 434.975 370.662 433.298C371.335 431.844 372.343 430.502 373.8 429.831C374.92 429.161 376.153 428.713 377.498 429.161C378.954 429.608 379.851 430.39 380.971 431.397Z" fill="black"/>
<path d="M485.52 403.549C457.171 405.897 428.934 407.015 400.36 405.897C397.223 405.897 396.887 410.258 399.688 410.258C428.374 411.376 457.283 410.593 485.968 407.91C489.33 407.91 488.658 403.549 485.52 403.549Z" fill="black"/>
<path d="M578.973 403.211C554.321 404.329 529.894 404.329 505.355 403.211C502.217 403.211 501.881 407.572 504.682 407.572C529.558 408.69 554.321 408.69 579.645 407.572C582.334 407.572 582.11 403.211 578.973 403.211Z" fill="black"/>
<path d="M574.379 433.404C529.11 435.752 483.393 436.871 438.123 436.2C425.237 435.864 412.576 435.529 399.69 435.082C396.552 435.082 396.216 439.442 399.017 439.442C444.623 441.12 490.788 441.12 536.729 439.442C549.615 439.107 562.277 438.324 575.163 437.765C577.853 437.877 577.18 433.404 574.379 433.404Z" fill="black"/>
<path d="M447.756 465.716C432.517 464.263 417.054 464.039 401.814 464.598C398.677 464.598 399.461 469.406 402.487 468.959C417.39 468.288 432.517 468.959 447.532 470.077C450.109 470.524 450.781 466.052 447.756 465.716Z" fill="black"/>
<path d="M578.97 462.246C549.724 463.923 520.142 465.377 490.336 465.936C481.82 465.936 473.304 466.271 464.788 466.271C461.987 466.271 461.315 470.632 464.116 470.632C494.146 470.297 523.728 469.514 553.646 468.284C562.162 467.949 570.678 467.166 579.194 466.831C582.667 466.831 582.107 462.246 578.97 462.246Z" fill="black"/>
<path d="M208.426 249.832L252.148 315.576L265.923 265.969L290.48 285.095L265.923 237.879" stroke="black" stroke-width="3.78997"/>
<path d="M265.675 216.588C264.219 216.588 262.874 217.259 262.874 218.601V249.574C262.874 251.027 263.546 251.922 264.891 252.369C266.348 252.369 267.692 251.698 267.692 250.356V219.383C267.692 217.818 267.132 216.588 265.675 216.588Z" fill="black"/>
<path d="M214.018 226.42C214.018 232.458 213.681 239.055 212.897 245.093C212.897 246.211 212.561 247.106 212.561 248.224C212.225 248.56 212.225 248.56 211.889 248.56C210.208 249.678 208.751 250.237 207.07 251.355C207.406 249.342 207.743 247.33 208.191 245.317C209.311 238.832 209.648 232.682 209.648 226.196C209.648 224.743 211.104 223.848 212.449 224.184C213.233 224.072 214.018 224.966 214.018 226.42Z" fill="black"/>
<path d="M212.564 245.097C212.564 246.215 212.228 247.109 212.228 248.227C211.892 248.563 211.892 248.563 211.556 248.563C209.875 249.681 208.418 250.24 206.738 251.358C196.429 256.837 186.344 262.54 176.035 268.019C174.354 267.348 172.562 266.342 170.881 265.223C183.207 258.403 195.532 252.029 207.634 245.208C208.306 244.873 209.091 244.538 209.651 244.09C211.22 243.308 212.34 244.09 212.564 245.097Z" fill="black"/>
<path d="M320.244 217.6C318.787 219.612 317.443 221.96 316.21 224.085C299.851 229.228 283.827 234.596 266.795 236.72C263.658 237.056 263.097 232.359 266.123 231.912C284.836 229.564 302.652 222.967 320.244 217.6Z" fill="black"/>
<path d="M222.089 441.898C221.753 441.227 220.969 440.444 220.408 440.444C215.254 438.99 210.548 435.3 208.867 430.157C206.85 423.672 215.702 416.515 213.237 412.49C212.116 410.477 213.909 408.129 211.22 404.998C205.505 398.96 195.981 396.5 190.49 403.321C190.154 403.657 190.154 403.992 189.818 403.992L189.482 404.328C188.81 404.663 188.361 405.446 187.801 405.781L187.129 406.117C186.793 406.117 186.457 406.452 186.008 406.452C185.336 406.787 184.888 406.787 184.328 407.123C182.871 407.458 181.974 407.458 180.63 407.123C179.957 406.787 178.613 406.452 177.492 405.669C176.372 404.998 175.812 404.216 174.691 402.874C170.993 397.73 175.363 392.028 166.847 393.705L152.169 396.836C147.014 397.954 148.471 402.538 149.031 406.34C150.152 411.484 151.048 415.174 147.35 419.982C143.877 424.007 137.826 426.02 132.671 424.343C125.836 422.33 124.155 441.003 123.483 444.693C122.811 448.383 136.369 451.514 138.386 455.875C139.843 459.341 139.843 463.031 138.05 466.162C134.352 473.653 140.067 474.436 144.885 478.126C146.006 478.797 148.359 481.816 149.255 482.151C154.073 483.829 156.763 479.356 160.797 478.461C169.313 476.113 170.657 489.643 175.7 487.295C176.036 487.295 176.372 487.295 176.82 487.295C182.535 485.841 188.025 484.164 193.852 482.934C195.533 482.599 196.989 481.257 196.653 479.468C196.989 479.132 197.774 479.132 198.11 478.797C199.567 477.679 199.791 475.666 198.782 474.436C198.446 474.101 198.11 473.765 198.11 473.318C197.774 472.982 197.774 472.647 197.774 472.647C197.774 472.312 197.438 471.976 197.438 471.529C197.438 471.193 197.438 470.858 197.101 470.411C197.101 470.075 197.101 470.075 197.101 469.74V469.069C197.101 468.733 197.101 468.398 197.101 468.398C197.101 468.062 197.101 467.727 197.438 467.28C197.438 466.944 197.774 466.609 197.774 466.162C197.774 465.826 198.11 465.491 198.446 464.708C198.446 464.373 198.782 464.373 198.782 464.037C199.118 463.702 199.455 463.366 199.903 462.919C200.239 462.584 200.239 462.584 200.575 462.248C200.575 462.248 200.911 461.913 201.247 461.913C201.92 461.577 202.368 461.242 202.704 461.242C203.376 460.906 205.057 460.906 205.842 460.906C206.514 460.906 207.522 460.906 208.195 461.242C209.315 461.242 209.315 461.577 209.875 461.577C211.556 461.913 213.013 462.695 214.245 463.254C215.702 463.925 217.719 462.919 218.279 461.577C218.279 461.242 218.279 460.906 218.279 460.906C218.952 460.571 219.736 460.235 219.96 459.229C221.641 454.421 223.434 449.725 224.778 444.917C224.554 444.246 223.77 442.569 222.089 441.898ZM177.604 452.52C172.786 453.974 168.08 452.52 165.279 449.054C162.477 445.588 162.141 440.779 164.158 437.09L164.494 436.754C164.83 436.083 165.167 435.636 165.615 435.077C165.951 434.741 165.951 434.741 166.735 433.959C167.856 433.288 168.416 432.841 169.873 432.505C171.89 431.834 174.243 431.834 176.372 432.17C180.742 432.841 186.232 436.195 186.681 441.339C187.017 444.134 185.56 446.817 183.543 448.83C181.974 450.507 179.845 451.737 177.604 452.52Z" stroke="black" stroke-width="3.03198" stroke-miterlimit="10"/>
</g>
</svg>
